<svg width="20" height="20" viewBox="0 0 20 20" fill="none" xmlns="http://www.w3.org/2000/svg">
<g clip-path="url(#clip0_453_6289)">
<path d="M1.66699 10.1698C1.66699 8.26275 1.66699 7.30923 2.09966 6.51879C2.53233 5.72834 3.32278 5.23777 4.90369 4.25661L6.57035 3.22223C8.24148 2.18508 9.07705 1.6665 10.0003 1.6665C10.9236 1.6665 11.7592 2.18508 13.4303 3.22223L15.097 4.25661C16.6779 5.23776 17.4683 5.72834 17.901 6.51879C18.3337 7.30923 18.3337 8.26275 18.3337 10.1698V11.4373C18.3337 14.688 18.3337 16.3134 17.3573 17.3233C16.381 18.3332 14.8097 18.3332 11.667 18.3332H8.33366C5.19096 18.3332 3.61961 18.3332 2.6433 17.3233C1.66699 16.3134 1.66699 14.688 1.66699 11.4373V10.1698Z" stroke="white" stroke-width="1.5"/>
<path d="M10 12.5L10 15" stroke="white" stroke-width="1.5" stroke-linecap="round"/>
</g>
<defs>
<clipPath id="clip0_453_6289">
<rect width="20" height="20" fill="white"/>
</clipPath>
</defs>
</svg>
