<svg width="64" height="17" viewBox="0 0 64 17" fill="none" xmlns="http://www.w3.org/2000/svg">
<path d="M24.3535 7.22858C24.1879 8.47107 23.1939 8.47107 22.2827 8.47107H21.7857L22.1999 6.06893C22.1999 5.90326 22.3655 5.82043 22.5312 5.82043H22.7797C23.4424 5.82043 24.0222 5.82043 24.3535 6.15176C24.3535 6.48309 24.3535 6.81442 24.3535 7.22858ZM23.9394 3.91528H20.3776C20.1291 3.91528 19.9634 4.08095 19.8806 4.32945L18.4724 13.441C18.4724 13.6067 18.5553 13.7724 18.8037 13.7724H20.4604C20.7089 13.7724 20.8746 13.6067 20.9574 13.3582L21.3715 10.8732C21.3715 10.6247 21.6201 10.4591 21.8685 10.4591H23.0282C25.3475 10.4591 26.6728 9.29939 27.087 7.06292C27.2527 6.06893 27.087 5.32344 26.6728 4.74361C26.0102 4.24661 25.099 3.91528 23.9394 3.91528Z" fill="#263577"/>
<path d="M32.1393 10.542C31.9736 11.5359 31.2281 12.1986 30.2341 12.1986C29.7372 12.1986 29.323 12.0329 29.0745 11.7016C28.826 11.3703 28.7431 10.9561 28.826 10.542C28.9916 9.54796 29.7372 8.8853 30.7311 8.8853C31.2281 8.8853 31.6423 9.05097 31.8908 9.3823C32.0565 9.6308 32.2221 10.045 32.1393 10.542ZM34.4586 7.22865H32.802C32.6363 7.22865 32.5534 7.31149 32.4706 7.47715L32.3878 7.97415L32.305 7.80848C31.9736 7.31149 31.1453 7.06299 30.317 7.06299C28.4118 7.06299 26.838 8.47114 26.5067 10.4591C26.341 11.4531 26.5895 12.3643 27.1693 13.0269C27.6663 13.6068 28.4118 13.8553 29.323 13.8553C30.814 13.8553 31.6423 12.8613 31.6423 12.8613L31.5595 13.3583C31.5595 13.5239 31.6423 13.6896 31.8908 13.6896H33.3818C33.6303 13.6896 33.7959 13.5239 33.8788 13.2754L34.7899 7.47715C34.7899 7.39432 34.7071 7.22865 34.4586 7.22865Z" fill="#263577"/>
<path d="M43.4873 7.229H41.7478C41.5822 7.229 41.4165 7.31184 41.3337 7.4775L39.0144 10.9565L38.0204 7.64317C37.9375 7.39467 37.7719 7.31184 37.5234 7.31184H35.8667C35.701 7.31184 35.5354 7.4775 35.6182 7.726L37.5234 13.1929L35.7839 15.6779C35.6182 15.8436 35.7839 16.1749 36.0324 16.1749H37.7719C37.9375 16.1749 38.1032 16.0921 38.186 15.9264L43.8186 7.726C43.9015 7.4775 43.7358 7.229 43.4873 7.229Z" fill="#263577"/>
<path d="M49.5344 7.22858C49.3688 8.47107 48.3748 8.47107 47.4636 8.47107H46.9666L47.3808 6.06893C47.3808 5.90326 47.5465 5.82043 47.7121 5.82043H47.9606C48.6233 5.82043 49.2031 5.82043 49.5344 6.15176C49.6173 6.48309 49.6173 6.81442 49.5344 7.22858ZM49.1203 3.91528H45.5585C45.31 3.91528 45.1443 4.08095 45.0615 4.32945L43.6533 13.441C43.6533 13.6067 43.7362 13.7724 43.9847 13.7724H45.807C45.9726 13.7724 46.1383 13.6895 46.1383 13.441L46.5525 10.8732C46.5525 10.6247 46.801 10.4591 47.0495 10.4591H48.2091C50.5284 10.4591 51.8538 9.29939 52.2679 7.06292C52.4336 6.06893 52.2679 5.32344 51.8538 4.74361C51.2739 4.24661 50.3628 3.91528 49.1203 3.91528Z" fill="#2199D6"/>
<path d="M57.403 10.542C57.2373 11.5359 56.4918 12.1986 55.4978 12.1986C55.0008 12.1986 54.5867 12.0329 54.3382 11.7016C54.0897 11.3703 54.0068 10.9561 54.0897 10.542C54.2553 9.54796 55.0008 8.8853 55.9948 8.8853C56.4918 8.8853 56.906 9.05097 57.1545 9.3823C57.3201 9.6308 57.4858 10.045 57.403 10.542ZM59.7223 7.22865H58.0656C57.9 7.22865 57.8171 7.31149 57.7343 7.47715L57.6515 7.97415L57.5686 7.80848C57.2373 7.31149 56.409 7.06299 55.5807 7.06299C53.6755 7.06299 52.1017 8.47114 51.7704 10.4591C51.6047 11.4531 51.8532 12.3643 52.433 13.0269C52.93 13.6068 53.6755 13.8553 54.5867 13.8553C56.0776 13.8553 56.906 12.8613 56.906 12.8613L56.8231 13.3583C56.8231 13.5239 56.906 13.6896 57.1545 13.6896H58.6454C58.8939 13.6896 59.0596 13.5239 59.1424 13.2754L60.0536 7.47715C60.0536 7.39432 59.8879 7.22865 59.7223 7.22865Z" fill="#2199D6"/>
<path d="M61.7117 4.16378L60.2207 13.441C60.2207 13.6067 60.3036 13.7724 60.5521 13.7724H62.043C62.2915 13.7724 62.4572 13.6067 62.54 13.3582L63.9482 4.24661C63.9482 4.08095 63.8653 3.91528 63.6168 3.91528H61.9602C61.8774 3.91528 61.7945 4.08095 61.7117 4.16378Z" fill="#2199D6"/>
<path d="M3.72852 15.512L3.97701 13.7726H3.39718H0.498047L2.48603 1.09919C2.48603 1.09919 2.48603 1.01636 2.56886 1.01636H2.6517H7.53881C9.11263 1.01636 10.2723 1.34769 10.8521 2.01035C11.1006 2.34168 11.2663 2.67301 11.3491 3.00434C11.4319 3.4185 11.4319 3.83266 11.3491 4.41249V4.74382L11.5976 4.90949C11.8461 4.99232 12.0118 5.15798 12.1774 5.32365C12.4259 5.57214 12.5916 5.90348 12.5916 6.31764C12.6744 6.7318 12.6744 7.2288 12.5088 7.80862C12.3431 8.47128 12.1774 8.96827 11.9289 9.46527C11.6804 9.87943 11.3491 10.2108 11.0178 10.5421C10.6864 10.7906 10.1894 10.9563 9.77528 11.1219C9.27829 11.2048 8.7813 11.2876 8.20147 11.2876H7.78731C7.53881 11.2876 7.29032 11.3704 7.04182 11.5361C6.87616 11.7017 6.71049 11.9502 6.62766 12.1987V12.3644L6.13066 15.4292V15.512V15.5949C6.13066 15.5949 6.13065 15.5949 6.04782 15.5949H3.72852V15.512Z" fill="#263577"/>
<path d="M11.9279 4.41211C11.9279 4.49494 11.9279 4.57778 11.845 4.66061C11.1824 7.97391 9.02875 9.05073 6.21244 9.05073H4.80428C4.47295 9.05073 4.14163 9.29923 4.14163 9.63056L3.39613 14.2692L3.23047 15.5945C3.23047 15.843 3.39613 16.0087 3.56179 16.0087H6.12961C6.46094 16.0087 6.70943 15.7602 6.70943 15.5117V15.346L7.20643 12.364V12.1984C7.28926 11.867 7.53776 11.7014 7.78626 11.7014H8.20042C10.6854 11.7014 12.5905 10.7074 13.0875 7.80824C13.336 6.56576 13.1704 5.57177 12.5905 4.90911C12.4249 4.74344 12.1764 4.57777 11.9279 4.41211Z" fill="#2199D6"/>
<path d="M11.2664 4.16378C11.1836 4.16378 11.1007 4.08095 10.9351 4.08095C10.8523 4.08095 10.6866 3.99811 10.6037 3.99811C10.1896 3.91528 9.77542 3.91528 9.36126 3.91528H5.55097C5.46814 3.91528 5.3853 3.91528 5.30247 3.99811C5.13681 4.08095 4.97115 4.24661 4.97115 4.41228L4.14282 9.54789V9.71356C4.22565 9.38223 4.47414 9.13373 4.80547 9.13373H6.21363C9.02994 9.13373 11.1836 7.97408 11.8462 4.74361C11.8462 4.66078 11.8462 4.57794 11.9291 4.49511C11.7634 4.41228 11.5977 4.32945 11.4321 4.24661C11.3492 4.16378 11.2664 4.16378 11.2664 4.16378Z" fill="#252C5E"/>
<path d="M4.97068 4.41266C4.97068 4.24699 5.13634 4.08133 5.30201 3.99849C5.38484 3.99849 5.46767 3.91566 5.55051 3.91566H9.36079C9.77496 3.91566 10.272 3.91566 10.6033 3.99849C10.6861 3.99849 10.8518 3.9985 10.9346 4.08133C11.0175 4.08133 11.1003 4.16416 11.2659 4.16416C11.3488 4.16416 11.3488 4.16416 11.4316 4.24699C11.5973 4.32983 11.7629 4.41266 11.9286 4.49549C12.0943 3.253 11.9286 2.42468 11.2659 1.67918C10.5205 0.850859 9.19513 0.519531 7.53848 0.519531H2.65137C2.32004 0.519531 1.98871 0.768026 1.98871 1.09936L0.000732422 13.8556C0.000732422 14.1041 0.166397 14.3526 0.414895 14.3526H3.39686L4.14236 9.54827L4.97068 4.41266Z" fill="#263577"/>
</svg>
