<svg width="24" height="24" viewBox="0 0 24 24" fill="none" xmlns="http://www.w3.org/2000/svg">
<path d="M12.3045 23.2798C18.6153 23.2798 23.7312 18.1639 23.7312 11.8531C23.7312 5.54239 18.6153 0.426514 12.3045 0.426514C5.9938 0.426514 0.87793 5.54239 0.87793 11.8531C0.87793 18.1639 5.9938 23.2798 12.3045 23.2798Z" fill="url(#paint0_linear_450_5427)"/>
<path fill-rule="evenodd" clip-rule="evenodd" d="M13.6771 12.8408V12.8393C13.5985 12.845 13.1936 12.8693 12.2902 12.8693C11.5689 12.8693 11.0611 12.8479 10.8826 12.8393V12.8415C8.10589 12.7194 6.03339 12.2359 6.03339 11.6574C6.03339 11.0796 8.10589 10.5961 10.8826 10.4719V12.3601C11.064 12.373 11.5839 12.4037 12.3023 12.4037C13.1643 12.4037 13.5964 12.368 13.6771 12.3608V10.4733C16.448 10.5969 18.5155 11.0803 18.5155 11.6574C18.5155 12.2359 16.448 12.7179 13.6771 12.8408ZM13.6771 10.2769V8.5872H17.5436V6.0105H7.01608V8.5872H10.8826V10.2762C7.74024 10.4205 5.37708 11.0432 5.37708 11.7888C5.37708 12.5344 7.74024 13.1564 10.8826 13.3014V18.7162H13.6771V13.3C16.8144 13.1557 19.1719 12.5337 19.1719 11.7888C19.1719 11.0439 16.8144 10.4219 13.6771 10.2769Z" fill="white"/>
<defs>
<linearGradient id="paint0_linear_450_5427" x1="23.7312" y1="11.8532" x2="0.87793" y2="11.8532" gradientUnits="userSpaceOnUse">
<stop stop-color="#EB6335"/>
<stop offset="1" stop-color="#FFD300"/>
</linearGradient>
</defs>
</svg>
