<svg width="48" height="16" viewBox="0 0 48 16" fill="none" xmlns="http://www.w3.org/2000/svg">
<path fill-rule="evenodd" clip-rule="evenodd" d="M12.1332 15.821H8.07144L5.0256 3.8592C4.88103 3.30896 4.57407 2.82251 4.12254 2.59324C2.9957 2.01708 1.754 1.55855 0.399414 1.32729V0.866756H6.94262C7.84567 0.866756 8.52297 1.55855 8.63585 2.36198L10.2162 10.9904L14.276 0.866756H18.2249L12.1332 15.821ZM20.481 15.821H16.645L19.8037 0.866756H23.6397L20.481 15.821ZM28.6051 5.0072C28.718 4.20177 29.3953 3.74124 30.1854 3.74124C31.4271 3.62561 32.7797 3.85687 33.9086 4.43104L34.5859 1.21132C33.457 0.750793 32.2153 0.519531 31.0885 0.519531C27.3654 0.519531 24.6562 2.59092 24.6562 5.46574C24.6562 7.65275 26.5752 8.80108 27.9298 9.49288C29.3953 10.1827 29.9597 10.6432 29.8468 11.333C29.8468 12.3677 28.718 12.8282 27.5911 12.8282C26.2365 12.8282 24.882 12.4833 23.6422 11.9072L22.9649 15.1289C24.3195 15.703 25.785 15.9343 27.1396 15.9343C31.3143 16.0479 33.9086 13.9786 33.9086 10.8725C33.9086 6.96096 28.6051 6.73169 28.6051 5.0072ZM47.3311 15.821L44.2852 0.866756H41.0136C40.3363 0.866756 39.659 1.32729 39.4333 2.01708L33.7931 15.821H37.742L38.5302 13.636H43.3822L43.8337 15.821H47.3311ZM41.579 4.89196L42.7059 10.528H39.5471L41.579 4.89196Z" fill="#172B85"/>
</svg>
