<svg width="25" height="22" viewBox="0 0 25 22" fill="none" xmlns="http://www.w3.org/2000/svg">
<g clip-path="url(#clip0_450_5432)">
<path d="M20.5811 9.83553C20.5811 9.83553 20.8981 11.3682 20.969 11.6896H19.5759C19.7135 11.3229 20.2432 9.89734 20.2432 9.89734C20.2349 9.9097 20.3809 9.5224 20.4643 9.28343L20.5811 9.83553ZM24.9982 3.60171V18.1047C24.9982 19.1966 24.1015 20.0824 22.9961 20.0824H2.97512C1.8698 20.0824 0.973022 19.1966 0.973022 18.1047V3.60171C0.973022 2.50986 1.8698 1.62402 2.97512 1.62402H22.9961C24.1015 1.62402 24.9982 2.50986 24.9982 3.60171ZM7.33386 13.9516L9.96996 7.55708H8.19727L6.55805 11.9245L6.37869 11.0386L5.79475 8.09682C5.69881 7.68892 5.40267 7.57356 5.03562 7.55708H2.33695L2.30776 7.6848C2.96678 7.84961 3.5549 8.08858 4.06794 8.38935L5.56117 13.9516H7.33386ZM11.2713 13.9598L12.3224 7.55708H10.6457L9.59874 13.9598H11.2713ZM17.1066 11.8668C17.115 11.1375 16.6645 10.5813 15.701 10.1239C15.1129 9.83141 14.7541 9.63365 14.7541 9.33287C14.7625 9.06094 15.0586 8.78077 15.7177 8.78077C16.2641 8.76841 16.6645 8.89613 16.9648 9.02386L17.115 9.0939L17.3444 7.70952C17.0149 7.5818 16.4893 7.43759 15.8428 7.43759C14.1869 7.43759 13.0232 8.31107 13.0148 9.55536C13.0023 10.4742 13.849 10.9851 14.483 11.2941C15.1295 11.6072 15.3506 11.8132 15.3506 12.0893C15.3423 12.5178 14.8251 12.7155 14.3454 12.7155C13.678 12.7155 13.3193 12.6125 12.7729 12.3736L12.5518 12.2706L12.3183 13.7085C12.7103 13.8857 13.4361 14.0422 14.1869 14.0505C15.9471 14.0546 17.0941 13.1935 17.1066 11.8668ZM22.9961 13.9598L21.6447 7.55708H20.3475C19.9471 7.55708 19.6426 7.67244 19.4716 8.08858L16.9815 13.9598H18.7417C18.7417 13.9598 19.0295 13.1688 19.092 12.9998H21.2443C21.2943 13.2264 21.4445 13.9598 21.4445 13.9598H22.9961Z" fill="url(#paint0_linear_450_5432)"/>
</g>
<defs>
<linearGradient id="paint0_linear_450_5432" x1="24.9982" y1="10.8532" x2="0.973022" y2="10.8532" gradientUnits="userSpaceOnUse">
<stop stop-color="#EB6335"/>
<stop offset="1" stop-color="#FFD300"/>
</linearGradient>
<clipPath id="clip0_450_5432">
<rect width="24.0252" height="21.0953" fill="white" transform="translate(0.9729 0.305664)"/>
</clipPath>
</defs>
</svg>
