<?xml version="1.0" encoding="utf-8"?>
<!-- Generator: Adobe Illustrator 26.3.1, SVG Export Plug-In . SVG Version: 6.00 Build 0)  -->
<svg version="1.1" id="Layer_1" xmlns="http://www.w3.org/2000/svg" xmlns:xlink="http://www.w3.org/1999/xlink" x="0px" y="0px"
	 viewBox="0 0 800 533" style="enable-background:new 0 0 800 533;" xml:space="preserve">
<style type="text/css">
	.st0{display:none;fill:url(#SVGID_1_);}
	.st1{display:none;}
	.st2{display:inline;fill:url(#SVGID_00000032634186374696758670000004827847306193598643_);}
	.st3{display:inline;fill:url(#SVGID_00000110468936014720084560000015119373312782945213_);}
	.st4{fill:#3863FC;}
	.st5{fill:#192F8E;}
	.st6{display:inline;fill:url(#SVGID_00000084515622375133718940000009400953324153529729_);}
	.st7{display:inline;fill:url(#SVGID_00000164498409666765054520000005052087478521578933_);}
	.st8{display:inline;fill:url(#SVGID_00000070841190591875907970000018384864996651919550_);}
</style>
<radialGradient id="SVGID_1_" cx="569.0919" cy="391.6667" r="727.5145" gradientTransform="matrix(1 0 0 0.7995 -169.0919 -46.6375)" gradientUnits="userSpaceOnUse">
	<stop  offset="8.660394e-07" style="stop-color:#00FFFF"/>
	<stop  offset="3.649502e-02" style="stop-color:#00E7F4"/>
	<stop  offset="9.469430e-02" style="stop-color:#00C8E5"/>
	<stop  offset="0.1607" style="stop-color:#00ACD8"/>
	<stop  offset="0.2352" style="stop-color:#0096CE"/>
	<stop  offset="0.3222" style="stop-color:#0085C6"/>
	<stop  offset="0.4298" style="stop-color:#007AC0"/>
	<stop  offset="0.5808" style="stop-color:#0073BD"/>
	<stop  offset="1" style="stop-color:#0071BC"/>
</radialGradient>
<rect class="st0" width="800" height="533"/>
<g class="st1">
	
		<radialGradient id="SVGID_00000122680714705539418680000001393165994575890870_" cx="575.5681" cy="405.2402" r="566.7804" gradientTransform="matrix(1 0 0 0.6154 -169.0919 27.9585)" gradientUnits="userSpaceOnUse">
		<stop  offset="0" style="stop-color:#808080"/>
		<stop  offset="0.1925" style="stop-color:#5C5D65"/>
		<stop  offset="0.4373" style="stop-color:#343648"/>
		<stop  offset="0.6619" style="stop-color:#181A32"/>
		<stop  offset="0.8568" style="stop-color:#060926"/>
		<stop  offset="1" style="stop-color:#000321"/>
	</radialGradient>
	<rect style="display:inline;fill:url(#SVGID_00000122680714705539418680000001393165994575890870_);" width="800" height="533"/>
</g>
<g class="st1">
	
		<radialGradient id="SVGID_00000083063880702045259640000018174800543396101553_" cx="295.2185" cy="290.0893" r="105.6622" gradientUnits="userSpaceOnUse">
		<stop  offset="3.608497e-07" style="stop-color:#CCCCCC"/>
		<stop  offset="6.358729e-02" style="stop-color:#B7B7B7"/>
		<stop  offset="0.2446" style="stop-color:#808080"/>
		<stop  offset="0.421" style="stop-color:#525252"/>
		<stop  offset="0.5887" style="stop-color:#2E2E2E"/>
		<stop  offset="0.7454" style="stop-color:#151515"/>
		<stop  offset="0.8869" style="stop-color:#050505"/>
		<stop  offset="1" style="stop-color:#000000"/>
	</radialGradient>
	
		<circle style="display:inline;fill:url(#SVGID_00000083063880702045259640000018174800543396101553_);" cx="295.2" cy="290.1" r="115.7"/>
</g>
<g>
	<g>
		<image style="overflow:visible;" width="865" height="211" xlink:href="4F1900D1.png"  transform="matrix(1 0 0 1 -33 160)">
		</image>
	</g>
	<g>
		<image style="overflow:visible;" width="870" height="202" xlink:href="4F1900D3.png"  transform="matrix(1 0 0 1 -36 165)">
		</image>
	</g>
	<g>
		<image style="overflow:visible;" width="862" height="192" xlink:href="4F1900D6.png"  transform="matrix(1 0 0 1 -29 172)">
		</image>
	</g>
	<g>
		<image style="overflow:visible;" width="859" height="191" xlink:href="4F1900D7.png"  transform="matrix(1 0 0 1 -30 173)">
		</image>
	</g>
	<g>
		<g>
			<path class="st4" d="M35,323c0,0-5.4-2.4-5.4-2.4s1.2,0,1.2,0s-5.8,3-5.8,3l-0.8,0.4c0,0-0.7-0.6-0.7-0.6s-5.3-4.5-5.3-4.5
				l1.5,0.2c0,0-5.2,2.5-5.2,2.5s-1.1,0.5-1.1,0.5s-0.6-1-0.6-1c-0.3-0.4-3.6-5.9-3.8-6.2c0,0,0.4-0.7,0.4-0.7s3.2-5.6,3.2-5.6
				s-0.2,0.6-0.2,0.6l0.1-4.8c0,0,1.4,1.3,1.4,1.3s-0.1,0-0.1,0s-1.5,0.1-1.5,0.1s0.2-1.5,0.2-1.5s0.7-6.5,0.7-6.5s0.1-0.7,0.1-0.7
				s0.7-0.3,0.7-0.3s6-2.8,6-2.8s-0.4,0.3-0.4,0.3l3.5-4.2l3.7-4c0,0-0.1,0.1-0.1,0.1l3-4.3l-0.2,0.7l0.2-6.7c0,0,0-0.4,0-0.4
				s0.2-0.3,0.2-0.3l3.5-5c0,0,0.3-0.4,0.3-0.4s0.5-0.1,0.5-0.1l7.2-1.3l-1,1l0.7-6.1c0,0,0.1-0.6,0.1-0.6s0.5-0.3,0.5-0.3
				s5.5-2.9,5.5-2.9l-0.6,0.7c0.5-1.7,1.1-4.1,1.6-5.7c0,0,1.8-5.6,1.8-5.6s0.2-0.5,0.2-0.5l0.5-0.2l5.9-2.1l-0.7,1.3
				c0,0-2.2-8.4-2.2-8.4l-0.2-0.8c0,0,0.7-0.4,0.7-0.4s0.2-0.1,0.2-0.1s0.2,2,0.2,2l-4.8-1.6l0.8-0.1l-5.6,2.8c0,0-0.4,0.2-0.4,0.2
				s-0.4-0.1-0.4-0.1S38,239,38,239s-0.1,0-0.1,0l-0.1,0c0,0-5.3-2.3-5.3-2.3l0.9,0c0,0-5.7,2.9-5.7,2.9s-0.6,0.3-0.6,0.3
				s-0.5-0.4-0.5-0.4s-5.3-4.4-5.3-4.4s1.1,0.1,1.1,0.1l-5.2,2.5l-0.9,0.4c-0.4-0.8-3.2-6.9-3.7-7.9c0,0-0.2-0.4-0.2-0.4
				s0.2-0.4,0.2-0.4l3-6.8c0,0-0.1,0.4-0.1,0.4l0-6.6c0,0,0-1.2,0-1.2s1.2,0.3,1.2,0.3L22,217c0,0-0.2,0-0.2,0l5.1-0.1
				c0,0-0.5,0.1-0.5,0.1l5.5-3.5c0,0,0.2-0.1,0.2-0.1s0.2,0,0.2,0s6.1-0.1,6.1-0.1l0.3,0l0.3,0.2c0,0,5.3,4.7,5.3,4.7s-1-0.1-1-0.1
				l5.3-2.8l0.4-0.2c0,0,0.4,0.2,0.4,0.2l5.6,2.5c0,0-0.6,0-0.6,0c3.1-1.2,7.9-2.7,11.1-3.7c0,0,0.4-0.1,0.4-0.1l0.3,0.2
				c0,0,5.2,3.3,5.2,3.3l-1,0.2c0,0,5.4-6.4,5.4-6.4s0.4-0.4,0.4-0.4s0.5,0.2,0.5,0.2s6,2.5,6,2.5c-0.5-0.2,5.2,1.4,5.1,1.3
				c0,0-0.4,0-0.4,0l8.3-1.9c0,0,0.8-0.2,0.8-0.2l0.1,0.8c0,0,0.6,8.8,0.6,8.8s0,0.4,0,0.4s-0.3,0.2-0.3,0.2s-6,5-6,5l0.1-1l5.8,6.7
				l0.4,0.4c-0.4,0.5-1.3,1.6-1.7,2.1c0,0-0.5-0.3-0.5-0.3s-5.9-3.2-5.9-3.2S90,232,90,232s0.6,2.1,0.6,2.1s-0.1-0.1-0.1-0.1
				c0.1,0.1,2.9,4.6,2.9,4.6c0,0-0.3,0.3-0.3,0.3s-4.1,4.5-4.1,4.5l0.1-0.1c0,0-2.8,5.1-2.8,5.1s-0.1,0.2-0.1,0.2s-0.2,0.1-0.2,0.1
				s-7.1,1.9-7.1,1.9s0.2-0.1,0.2-0.1l-4.2,3l0.2-0.5l1.1,7.7l0,0.3c0,0-0.3,0.2-0.3,0.2l-5,3.4c0,0,0.2-0.4,0.2-0.4l-0.9,6.2
				c0,0,0,0.2,0,0.2s-0.2,0.1-0.2,0.1c0,0-5,3.6-5,3.7c0,0-5,2.8-5,2.8c0,0,0.2-0.4,0.2-0.4s-0.9,6.4-0.9,6.4l0,0.3
				c0,0-0.3,0.1-0.3,0.1l-6.7,1.6c0,0,0.3-0.6,0.3-0.6l2.7,8.8c0,0,0.1,0.4,0.1,0.4s-0.4,0.1-0.4,0.1l-7.2,2.2c0,0,0.2-0.1,0.2-0.1
				s-3.8,3.5-3.8,3.5s0.1-0.2,0.1-0.2s-0.2,1.3-0.2,1.3s-0.6-0.4-0.6-0.4s1.8-1,1.8-1s0.2-0.1,0.2-0.1s0.2,0.1,0.2,0.1
				s5.8,2.6,5.8,2.6s-0.3,0-0.3,0c3.3-1.2,8.2-2.8,11.6-3.8c0,0,0.1,0,0.1,0s0.1,0.1,0.1,0.1l5.5,3.4c0,0-0.4,0.1-0.4,0.1l5.7-6.6
				c0,0,0.1-0.2,0.1-0.2s0.2,0.1,0.2,0.1s6.3,2.6,6.3,2.6c-0.2,0,5.5,1.4,5.5,1.4c-0.6,0,8.8-1.8,8.7-1.8c0,0,0.3-0.1,0.3-0.1l0,0.3
				l0.4,9.9c0,0,0,0.1,0,0.1s-0.1,0.1-0.1,0.1s-6.3,6.3-6.3,6.3s0-0.3,0-0.3l6.1,8.3l0.1,0.1c0,0-0.1,0.1-0.1,0.1s-1.2,1.2-1.2,1.2
				l-0.1,0.1c0,0-0.1-0.1-0.1-0.1s-7.6-6-7.6-6l0.2,0c0,0-5.4,6.1-5.4,6.1s0,0,0,0l-0.1,0l-5.9-0.6c0.1,0-5.9,0.8-5.8,0.8
				c0,0,0,0,0,0c0,0-5.8-4.6-5.8-4.5c0,0-5-1.6-5-1.6l0.1,0l-5.6,5.3c0,0,0,0,0,0s0,0,0,0c0,0-5.8-2-5.7-2c0,0-5.6,2.9-5.6,2.9l0,0
				l0,0c0,0-5.9-1.8-5.9-1.8L35,323L35,323z M35.5,321.7c0,0,6,1.8,5.9,1.8c0,0,5.6-2.9,5.6-2.9c0,0,5.8,1.9,5.8,1.9c0,0,0,0,0,0
				s5.6-5.3,5.6-5.3s0,0,0,0s0,0,0,0s5,1.6,5,1.6c0,0,5.8,4.5,5.8,4.5c0,0-0.1,0-0.1,0c0,0,5.9-0.8,5.9-0.8c0,0,5.9,0.6,5.9,0.6
				s-0.1,0-0.1,0s5.4-6.1,5.4-6.1s0.1-0.1,0.1-0.1s0.1,0.1,0.1,0.1l7.6,6c0,0-0.2,0-0.2,0l1.2-1.2c0,0,0,0.2,0,0.2l-6.1-8.2
				l-0.1-0.1c0,0,0.1-0.1,0.1-0.1s6.2-6.4,6.2-6.4s-0.1,0.2-0.1,0.2l-0.4-9.9c0,0,0.3,0.2,0.3,0.2s-8.8,1.8-8.8,1.8s-0.1,0-0.1,0
				s-0.1,0-0.1,0c0,0-5.5-1.4-5.5-1.4c0,0-6.3-2.6-6.3-2.6c0,0,0.3-0.1,0.3-0.1s-5.7,6.6-5.7,6.6l-0.2,0.2l-0.2-0.1l-5.5-3.4l0.3,0
				l-5.8,1.8c-1.7,0.6-4.1,1.5-5.9,2.1c0,0-0.1-0.1-0.1-0.1s-5.8-2.6-5.8-2.6l0.3,0c0,0-1.8,1-1.8,1l-0.7,0.4c0,0,0.1-0.7,0.1-0.7
				s0.2-1.3,0.2-1.3s0-0.1,0-0.1s0.1-0.1,0.1-0.1s3.8-3.5,3.8-3.5s0.1-0.1,0.1-0.1s0.1,0,0.1,0s7.2-2.3,7.2-2.3l-0.3,0.5l-2.7-8.8
				c0,0-0.1-0.4-0.1-0.4l0.5-0.1l6.7-1.7c0,0-0.3,0.4-0.3,0.4l0.8-6.4l0-0.2c0,0,0.2-0.1,0.2-0.1l5-2.8c-0.2,0.2,5-3.7,5-3.6
				c0,0-0.2,0.3-0.2,0.3s0.9-6.2,0.9-6.2l0-0.2c0,0,0.2-0.1,0.2-0.1l4.9-3.4l-0.2,0.5c0,0-1.2-7.7-1.2-7.7s-0.1-0.3-0.1-0.3
				s0.3-0.2,0.3-0.2s4.2-3,4.2-3s0.1-0.1,0.1-0.1l0.1,0c0,0,7.1-1.9,7.1-1.9s-0.4,0.3-0.4,0.3s2.7-5.2,2.7-5.2s0-0.1,0-0.1
				s0.1-0.1,0.1-0.1l4.1-4.5c0,0-0.1,0.7-0.1,0.7s-2.7-4.2-2.7-4.2l0-0.1c-0.3-0.9-0.9-2.8-1.1-3.7c0.9,0.5,6.3,3.4,7.3,3.9
				c0,0-0.8,0.2-0.8,0.2s1-1.3,1-1.3s0,0.8,0,0.8l-5.8-6.7c0,0-0.4-0.5-0.4-0.5s0.5-0.4,0.5-0.4l5.9-5.1c0,0-0.2,0.6-0.2,0.6
				l-0.6-8.8c0,0,0.9,0.6,0.9,0.6s-8.3,2-8.3,2s-0.2,0-0.2,0s-0.2,0-0.2,0s-5.2-1.4-5.2-1.4s0,0,0,0s-0.1,0-0.1,0s-6-2.5-6-2.5
				s0.9-0.2,0.9-0.2s-5.4,6.4-5.4,6.4l-0.4,0.5c0,0-0.6-0.4-0.6-0.4l-5.2-3.3l0.7,0.1c-3.3,1-7.9,2.5-11,3.7c0,0-0.3,0.1-0.3,0.1
				l-0.3-0.1c0,0-5.6-2.5-5.6-2.5s0.7,0,0.7,0l-5.3,2.9c0,0-0.5,0.3-0.5,0.3s-0.5-0.4-0.5-0.4s-5.3-4.7-5.3-4.7l0.6,0.2
				c0,0-6.1,0.1-6.1,0.1s0.5-0.1,0.5-0.1s-5.5,3.5-5.5,3.5s-0.2,0.1-0.2,0.1s-0.3,0-0.3,0s-5.1,0.1-5.1,0.1l-0.1,0c0,0-0.1,0-0.1,0
				s-5.4-1.4-5.4-1.4s1.2-0.9,1.2-0.9l0,6.6c0,0,0,0.2,0,0.2s-0.1,0.2-0.1,0.2l-3,6.8c0,0,0-0.8,0-0.8s3.3,6.9,3.3,6.9
				s-1.3-0.5-1.3-0.5c0.3-0.2,5.6-2.8,5.8-2.8c0,0,0.5,0.4,0.5,0.4s5.4,4.3,5.4,4.3s-1.1-0.1-1.1-0.1s5.7-2.9,5.7-2.9
				s0.4-0.2,0.4-0.2l0.4,0.2c0,0,5.3,2.2,5.3,2.2l-0.1,0c0,0,5.9,1.7,5.9,1.7s-0.8,0.1-0.8,0.1l5.6-2.8c0,0,0.4-0.2,0.4-0.2
				s0.4,0.1,0.4,0.1c1.6,0.5,5.6,1.8,7.1,2.3c-0.1,0-2.3,1.4-2.3,1.4c0,0,0.5-1.2,0.5-1.2s2.3,8.4,2.3,8.4s0.3,1,0.3,1s-1,0.4-1,0.4
				l-5.9,2.2c0,0,0.7-0.7,0.7-0.7s-1.8,5.6-1.8,5.6c-0.5,1.8-1.2,4.3-1.7,6.2c0,0-0.4,0.2-0.4,0.2l-5.4,3c0,0,0.6-0.9,0.6-0.9
				c-0.1,0.5-0.8,6.7-0.8,7c0,0-0.9,0.2-0.9,0.2l-7.2,1.4c0,0,0.8-0.5,0.8-0.5l-3.5,5l0.2-0.7c0,0-0.2,6.7-0.2,6.7s0,0.4,0,0.4
				s-0.2,0.3-0.2,0.3s-3,4.3-3,4.3s0,0.1,0,0.1l-0.1,0.1c0,0-3.7,4-3.7,4s-3.5,4.2-3.5,4.2l-0.2,0.2c0,0-0.3,0.1-0.3,0.1
				s-6,2.8-6,2.8s0.7-1,0.7-1l-0.7,6.5c0,0-1.4-1.5-1.4-1.5s0.1,0,0.1,0s1.4-0.1,1.4-0.1l0,1.4c0,0-0.1,4.8-0.1,4.8s0,0.3,0,0.3
				s-0.2,0.3-0.2,0.3s-3.1,5.6-3.1,5.6s0-1.4,0-1.4s3.4,5.5,3.4,5.5s-1.7-0.5-1.7-0.5l5.2-2.5c0,0,0.8-0.4,0.8-0.4
				c0.3,0.3,5.6,4.7,6,5.1c0,0-1.5-0.2-1.5-0.2c0.3-0.1,6.3-3.3,6.3-3.3c0,0,0.6,0.3,0.6,0.3s5.3,2.3,5.3,2.3S35.5,321.7,35.5,321.7
				L35.5,321.7z"/>
			<path class="st4" d="M21.2,303.2c0.9-0.7,0.9-1.4,2-1.3c0,0-0.4,0.3-0.4,0.3l0.9-0.7l0.8,1.1C23.5,302.8,22.3,302.9,21.2,303.2
				L21.2,303.2z M18.7,304.2c1.9-0.6,3.4-1.9,5.2-2.9c0,0,0.8,1.1,0.8,1.1l-0.6,0.9l-0.1,0.1C22.5,304.2,20.3,304.4,18.7,304.2
				L18.7,304.2z"/>
			<path class="st4" d="M59.1,235.6c0.1-0.3,0.2-0.7,0.1-0.9c0-0.2,0-0.2,0.3-0.3l-0.1,0.1l2-1.1l0.2,1.3l-0.7-0.3l0.6-0.1
				C60.8,234.6,59.9,235,59.1,235.6L59.1,235.6z M57.1,237.4c1.5-1.2,2.5-2.8,3.7-4.3c0.3,0,0.9,0.1,1.2,0.2c0,0,1.2,0.2,1.2,0.2
				l-1,1.1l-1.6,1.7C59.9,236.9,58.2,237.4,57.1,237.4L57.1,237.4z"/>
		</g>
		<path class="st4" d="M130,319.8c-1-1.8-2.1-3.6-3-5.4c0,0,0.3-0.6,0.3-0.6s3-6,3-6l-0.1,0.5l0.4-5.7l0.6-5.7
			c0,0.9-0.1-5.5-0.1-5.3c0,0,0.2,0.6,0.2,0.6s-3.5-5.8-3.5-5.8l-0.2-0.3c0-0.5-0.1-6.6-0.1-7.1c0,0,0.3-0.3,0.3-0.3l4.7-5.5
			c0,0-0.1,1.3-0.1,1.3l-2.8-5.6l-0.2-0.5c0,0,0.2-0.5,0.2-0.5s2.5-5.8,2.5-5.8l0,0.8c-0.6-1.7-1.4-4.1-2-5.8c0,0-1.7-5.9-1.7-5.9
			s-0.1-0.5-0.1-0.5s0.2-0.4,0.2-0.4l3.3-5.5c0,0,0.2,1.3,0.2,1.3l-6.3-5.7c0,0-0.5-0.5-0.5-0.5c0.2-0.5,2.5-6.2,2.8-6.9
			c0,0,0,0.1,0,0.1l1.4-5.4c0,0,0.1,0.6,0.1,0.6l-2.5-5.7c0,0-0.1-0.2-0.1-0.2l0-0.3c0,0,1.4-9.1,1.4-9.1s0.2-1.4,0.2-1.4
			c0.2,0.1,8.6,6.4,9.1,6.8c0,0-1.1,0.1-1.1,0.1s5.9-7.2,5.9-7.2s0.6-0.7,0.6-0.7s0.6,0.8,0.6,0.8l5.9,7.6c0,0-1-0.1-1-0.1
			c0.4-0.4,8.8-6.7,9-6.9c0,0,0,1.4,0,1.4s0,8.8,0,8.8s0-0.1,0-0.1s0.7,6,0.7,6s0,0.2,0,0.2s-0.1,0.2-0.1,0.2l-4.3,5.9
			c0,0,0.1-0.2,0.1-0.2l-1.6,5.2c0,0-0.1-0.5-0.1-0.5l5.1,5.8l0.2,0.2l-0.1,0.3c0,0-1.9,5.9-1.9,5.9l0-0.4l2.8,5.7
			c0,0,0.1,0.2,0.1,0.2s0,0.2,0,0.2c0,0-1.8,6-1.8,6.1c0,0-2.3,5.5-2.3,5.5c0,0,0-0.3,0-0.3l2.9,5.9l0.1,0.2c0,0-0.1,0.2-0.1,0.2
			l-4.2,5.5c0,0-0.1-0.4-0.1-0.4l6.9,5.8l0.2,0.2c0,0-0.1,0.2-0.1,0.2s-4.2,6.2-4.2,6.2c0.1-0.5-1,5.2-1,5.2c0,0,0-0.2,0-0.2l3.9,6
			c0,0,0.1,0.1,0.1,0.1l-0.1,0.1l-4.6,6c0,0,0-0.1,0-0.1c0,0-0.5,5.6-0.5,5.5c0,0,0.2,4.2,0.2,4.2l0,0.1l-0.1,0c0,0-4.5,1.5-4.5,1.5
			c0,0-5.8-0.6-5.8-0.6c0,0,0,0,0,0c0,0-5.8,1.2-5.8,1.2C135.9,320.8,131.1,319.9,130,319.8L130,319.8z M133.1,320.3
			c0,0,4,0.6,4,0.6c0,0,5.8-1.3,5.8-1.3c0,0,5.9,0.5,5.8,0.5c0,0,4.5-1.6,4.5-1.6s-0.1,0.1-0.1,0.1c0,0-0.2-4.2-0.2-4.3
			c0,0,0.4-5.5,0.4-5.5s0,0,0,0c0,0,4.6-6.1,4.6-6.1c0,0,0,0.2,0,0.2l-3.9-5.9c0,0,0-0.1,0-0.1s0-0.1,0-0.1s0.9-5.3,0.9-5.3s0,0,0,0
			c0,0,4.1-6.3,4.2-6.3c0,0,0.1,0.4,0.1,0.4s-7-5.7-7-5.7s-0.2-0.2-0.2-0.2l0.2-0.3l4.1-5.5c0,0,0,0.4,0,0.4s-2.9-5.9-2.9-5.9
			l-0.1-0.2l0.1-0.2c0,0,2.3-5.7,2.2-5.4c0,0,1.7-6.1,1.7-6.1s0,0.3,0,0.3s-2.8-5.7-2.8-5.7s-0.1-0.2-0.1-0.2s0.1-0.2,0.1-0.2
			s1.8-5.9,1.8-5.9s0.1,0.5,0.1,0.5s-5.2-5.7-5.2-5.7s-0.2-0.2-0.2-0.2s0.1-0.3,0.1-0.3s1.5-5.2,1.5-5.2l0-0.1c0,0,0.1-0.1,0.1-0.1
			l4.3-5.9c0,0-0.1,0.4-0.1,0.4c0,0-0.8-6-0.8-6.1c0,0-0.1-8.8-0.1-8.9c0,0,1.1,0.5,1.1,0.5l-7.9,6.1l-0.6,0.4c0,0-0.4-0.6-0.4-0.6
			s-5.9-7.6-5.9-7.6s1.2,0,1.2,0s-5.9,7.3-5.9,7.3l-0.5,0.6l-0.6-0.5l-8-5.8c0,0,1.4-0.6,1.4-0.6l-1.3,9.2c0,0-0.1-0.5-0.1-0.5
			s2.6,5.7,2.6,5.7l0.1,0.3l-0.1,0.3c0,0-1.3,5.4-1.3,5.4c0,0,0,0.1,0,0.1c0,0-2.5,6.3-2.5,6.3l-0.3-1.1c0.1,0.1,7.3,6.5,7,6.2
			c0,0-0.4,0.7-0.4,0.7s-3.3,5.5-3.3,5.5s0.1-0.9,0.1-0.9c0.7,2.1,2,6.7,2.8,8.7c0.1,0.3,1.1,3.1,1.1,3.3c0,0-0.2,0.4-0.2,0.4
			l-2.5,5.8l0-1c0.2,0.3,3.2,6.2,3.3,6.3c0,0-0.5,0.6-0.5,0.6l-4.7,5.6l0.3-0.8l0.2,6.3c0,0-0.2-0.6-0.2-0.6s3.6,5.7,3.6,5.7
			l0.2,0.3c0,0.2,0.2,5.7,0.1,6c0,0-0.6,5.6-0.6,5.6s-0.3,5.6-0.3,5.6s0,0.3,0,0.3s-0.1,0.3-0.1,0.3s-3,6-3,6s0-1.3,0-1.3
			C131,315.9,132.1,318.1,133.1,320.3L133.1,320.3z"/>
		<path class="st4" d="M270.2,321.2c0.3-0.1,0.5-0.4,0.6-0.7c0,0-1.9,0.9-1.9,0.9c-0.4-0.1-6.7-3-6.9-3.1c0,0-0.1-0.7-0.1-0.7
			l-1.3-6.7c0,0,0.2,0.5,0.2,0.5s-3.3-4.8-3.3-4.8l-3-4.9c0.6,0.8-3.5-4.4-3.4-4.1c0,0,0.6,0.4,0.6,0.4s-6.5-2.4-6.5-2.4l-0.3-0.1
			l-0.2-0.3l-4-5l-0.3-0.4c0,0,0-0.5,0-0.5l0.4-7.4l0.8,1.3l-5.8-2.7c0,0-0.6-0.3-0.6-0.3l-0.2-0.6l-1.6-6.2c0,0,0.6,0.8,0.6,0.8
			c-3-1.9-7.4-4.8-10.3-6.9c0,0-0.5-0.3-0.5-0.3s-0.1-0.6-0.1-0.6l-0.6-5.8l2.4,0.2l-1.5,4.8l0,0.1c0,0,0,0.1,0,0.1l-2.3,5.2
			c0,0,0-1.1,0-1.1c0.2,0.4,3.3,6.3,3.3,6.4c-0.3,0.3-4.4,5.4-4.8,5.9c0,0-0.2-1.7-0.2-1.7c0.5,0.4,7.9,6.1,8.1,6.2
			c-0.4,0.5-4.5,6.2-5,6.9c0,0,0.2-0.5,0.2-0.5s-1,5-1,5s-0.2-0.9-0.2-0.9c0.3,0.4,4.3,6.2,4.5,6.5c0,0-0.5,0.7-0.5,0.7l-4.8,5.8
			c0,0,0.2-0.6,0.2-0.6l-0.4,5.2l0-0.2l0.2,3.9l0,0.8c-0.9,0.3-4.6,1.7-5.4,2c0,0-0.2,0-0.2,0s-5.8-0.6-5.8-0.6l0.3,0l-5.8,1.3
			c0,0-0.2,0-0.2,0c-0.4-0.1-5.8-0.9-6.2-1c-0.3-0.6-3.4-6-3.7-6.6c0,0,0.3-0.5,0.3-0.5s3.1-6,3.1-6s-0.1,0.4-0.1,0.4
			s0.4-5.7,0.4-5.7s0.6-5.7,0.6-5.7c0,0.8-0.1-5.5-0.1-5.3c0,0,0.2,0.5,0.2,0.5l-3.6-5.8l-0.1-0.2l0-0.3l-0.1-6.3c0,0,0-0.4,0-0.4
			s0.2-0.3,0.2-0.3s4.9-5.5,4.9-5.5l-0.1,1.1l-2.9-5.6l-0.2-0.4l0.2-0.4c0,0,2.6-5.8,2.6-5.8s0,0.7,0,0.7c-1.3-3.5-2.9-8.5-3.9-12
			c0,0,0.2-0.3,0.2-0.3s3.4-5.5,3.4-5.5s0.2,1.1,0.2,1.1s-6.6-5.7-6.6-5.7l-0.5-0.4l0.2-0.6c0,0,2.6-6.2,2.6-6.2l0,0.1l1.4-5.4
			c0,0,0,0.6,0,0.6s-2.6-5.7-2.6-5.7l-0.1-0.2c0.1-1,1.5-10,1.6-10.8c0,0,1.1,0.8,1.1,0.8s7.7,6,7.7,6l-1.1,0.2
			c0.4-0.6,6.3-8.5,6.5-8.8c0.3,0.6,3.4,8.1,3.8,9c0,0-0.6-0.4-0.6-0.4s2.8,0.5,2.8,0.5s-0.8,1-0.8,1s-1.9-5-1.9-5s-0.2-0.6-0.2-0.6
			s0.5-0.3,0.5-0.3c0.4-0.3,1.6-0.9,1.9-1.2c0,0,0.4,0.5,0.4,0.5s5,5.8,5,5.8s0,0,0,0s4.4,4.3,4.4,4.3s0.2,0.2,0.2,0.2s0,0.3,0,0.3
			l0.2,7.5c0,0,0-0.2,0-0.2l1.9,5.1c0,0-0.5-0.4-0.5-0.4s7.8,1.4,7.8,1.4s0.4,0.1,0.4,0.1l0.1,0.3c0,0,2.1,5.9,2.1,5.9
			s-0.3-0.4-0.3-0.4s5.8,2.8,5.8,2.8l0.2,0.1c0,0,0.1,0.2,0.1,0.2c0,0,2.3,5.9,2.4,6c0,0,1.6,5.8,1.6,5.9c0,0-0.3-0.4-0.3-0.4l6,2.9
			l0.3,0.2c0,0,0,0.4,0,0.4s0,7.1,0,7.1l-0.6-0.6l9.2,0.2l0.5,0c0,0,0,0.5,0,0.5l0.5,7.6l-0.1-0.2c0,0,1.8,3.4,1.8,3.4l-0.8-0.1
			l2-2.3c0,0-0.1,0.6-0.1,0.6l-2.8-5.4l-0.1-0.2l0.1-0.2l2.5-5.6c0,0,0,0.4,0,0.4c-1.2-3.1-2.8-7.9-3.7-11.1c0,0-0.1-0.2-0.1-0.2
			l0.1-0.2l3.3-5.2c0,0,0.1,0.6,0.1,0.6s-6.4-5.5-6.4-5.5s-0.2-0.2-0.2-0.2s0.1-0.3,0.1-0.3s2.5-6,2.5-6s0,0.1,0,0.1
			s1.4-5.2,1.4-5.2l0,0.3c0,0-2.5-5.4-2.5-5.4l0-0.1l0-0.1l0.4-6.2c0,0,0-0.2,0-0.2s0.2-0.1,0.2-0.1s5.3-2.9,5.3-2.9l-0.1,0.2
			l3.6-6.9c0,0,0.3-0.5,0.3-0.5s0.3,0.4,0.3,0.4s5.9,7.7,5.9,7.7s-0.5,0-0.5,0l5.4-5.7c0,0,0.1-0.1,0.1-0.1s0.2,0,0.2,0
			s7.8,1.2,7.8,1.2s0.2,0,0.2,0s0,0.2,0,0.2s1.3,7.8,1.3,7.8l0,0.1c0,0-0.1,0.1-0.1,0.1s-4.3,5.9-4.3,5.9l0-0.1l-1.6,5.2l-0.1-0.2
			l5.1,5.8c0,0,0.1,0.1,0.1,0.1s0,0.1,0,0.1s-1.9,5.9-1.9,5.9s0-0.2,0-0.2s2.8,5.7,2.8,5.7s0,0.1,0,0.1l0,0.1c0,0-1.8,6.1-1.8,6.1
			c0,0-2.3,5.5-2.3,5.5c0,0,0-0.1,0-0.1s2.9,5.9,2.9,5.9s0,0.1,0,0.1l-0.1,0.1l-4.2,5.5c0,0,0-0.2,0-0.2s6.9,5.7,6.9,5.7
			s0.1,0.1,0.1,0.1s-0.1,0.1-0.1,0.1c0,0-4.3,6.4-4.2,6.2c0,0-1,5.2-1,5.2c-0.1-0.3,3.9,6,3.9,5.9c0,0,0,0.1,0,0.1l0,0.1
			c0,0-4.7,6.2-4.6,6c0,0-0.4,5.5-0.4,5.5l-0.7,5.5c0-0.1,2.9,6.4,2.9,6.4c0,0,0,0.1,0,0.1s-0.1,0-0.1,0l-6.4-1c0,0-5.6,1.2-5.6,1.2
			c0,0,0,0,0,0s-5.2-1-5.2-1S270.2,321.2,270.2,321.2L270.2,321.2z M269.5,320c0,0,5.2,0.9,5.2,0.9c0,0,5.6-1.3,5.6-1.3
			c0,0,6.4,1,6.4,1c0,0,0,0.1,0,0.1c0,0-2.9-6.4-2.9-6.4c0,0,0.7-5.5,0.7-5.5c0,0,0.4-5.5,0.4-5.6c0,0,4.6-6,4.6-6c0,0,0,0.1,0,0.1
			l-3.9-6c0,0,0,0,0-0.1c0,0,1-5.3,1-5.3c0,0,4.2-6.2,4.2-6.3c0,0,0,0.2,0,0.2s-7-5.7-7-5.7s-0.1-0.1-0.1-0.1s0.1-0.1,0.1-0.1
			l4.2-5.5l0,0.2c0,0-2.9-5.9-2.9-5.9l0-0.1c0,0,0-0.1,0-0.1c0,0,2.3-5.6,2.2-5.5c0,0,1.7-6.1,1.7-6.1l0,0.1c0,0-2.8-5.7-2.8-5.7
			s0-0.1,0-0.1l0-0.1c0,0,1.8-5.9,1.8-5.9s0,0.2,0,0.2s-5.1-5.7-5.1-5.7s-0.1-0.1-0.1-0.1s0-0.1,0-0.1s1.5-5.2,1.5-5.2s0,0,0,0
			s0,0,0,0s4.3-5.9,4.3-5.9s0,0.2,0,0.2s-1.3-7.8-1.3-7.8l0.2,0.2l-7.8-1.1c0,0,0.3-0.1,0.3-0.1l-5.4,5.8c0,0-0.3,0.3-0.3,0.3
			s-0.2-0.3-0.2-0.3s-6-7.6-6-7.6s0.6-0.1,0.6-0.1s-3.6,7-3.6,7l-0.1,0.1c0,0-0.1,0.1-0.1,0.1s-5.3,2.9-5.3,2.9l0.2-0.3
			c0,0-0.4,6.2-0.4,6.2l0-0.2c0,0,2.5,5.4,2.5,5.4s0.1,0.1,0.1,0.1s0,0.1,0,0.1l-1.3,5.2c0,0,0,0,0,0.1c0,0-2.5,6-2.5,6
			s-0.1-0.5-0.1-0.5l6.4,5.4c0,0,0.3,0.2,0.3,0.2s-0.2,0.3-0.2,0.3s-3.3,5.2-3.3,5.2s0-0.4,0-0.4c1,3.3,2.6,8.1,3.8,11.3
			c0,0-0.1,0.2-0.1,0.2l-2.5,5.6l0-0.4l2.9,5.4c0,0,0.2,0.3,0.2,0.3s-0.2,0.3-0.2,0.3s-2,2.3-2,2.3l-0.5,0.6c0,0-0.3-0.7-0.3-0.7
			l-1.8-3.4c0,0-0.1-0.1-0.1-0.1s0-0.1,0-0.1s-0.5-7.6-0.5-7.6l0.5,0.5l-9.2-0.1c0,0-0.5,0-0.5,0s0-0.5,0-0.5l-0.1-7.1
			c0,0,0.3,0.5,0.3,0.5l-6-2.9l-0.2-0.1l-0.1-0.3l-1.6-5.8c0.1,0.3-2.4-5.9-2.3-5.9c0,0,0.3,0.3,0.3,0.3l-5.8-2.8
			c0,0-0.2-0.1-0.2-0.1s-0.1-0.2-0.1-0.2l-2.2-5.9c0,0,0.5,0.4,0.5,0.4s-7.8-1.3-7.8-1.3l-0.4-0.1c0,0-0.1-0.4-0.1-0.4s-2-5.1-2-5.1
			l0-0.1l0-0.1l-0.2-7.5c0,0,0.2,0.5,0.2,0.5c0,0-4.4-4.3-4.4-4.3c0,0-5-5.7-5-5.8c0,0,0.9,0.1,0.9,0.1s-1.4,0.9-1.4,0.9l0.3-0.9
			c0.4,1,2.1,5.3,2.4,6.2c-1.1-0.2-3.4-0.6-4.5-0.8c0,0-0.2-0.4-0.2-0.4s-3.3-7.8-3.3-7.8s1.3,0.2,1.3,0.2s-5.7,7.8-5.7,7.8
			s-0.5,0.6-0.5,0.6s-0.6-0.5-0.6-0.5s-7.7-6-7.7-6s1.3-0.5,1.3-0.5s-1.3,9.2-1.3,9.2l-0.1-0.5c0,0,2.6,5.7,2.6,5.7l0.1,0.3
			l-0.1,0.3c0,0-1.4,5.4-1.4,5.4c0,0,0,0.1,0,0.1c0,0-2.6,6.3-2.6,6.3s-0.2-1-0.2-1s6.6,5.7,6.6,5.7s0.6,0.5,0.6,0.5
			c-0.2,0.3-3.5,5.7-3.8,6.1c0,0,0.1-0.7,0.1-0.7c1,3.4,2.6,8.3,3.8,11.5c0,0,0.1,0.3,0.1,0.3s-0.1,0.3-0.1,0.3l-2.6,5.8
			c0,0,0-0.8,0-0.8s3,5.6,3,5.6s0.3,0.6,0.3,0.6s-0.4,0.5-0.4,0.5l-4.8,5.6c0,0,0.2-0.6,0.2-0.6s0.2,6.3,0.2,6.3s-0.2-0.5-0.2-0.5
			s3.7,5.7,3.7,5.7s0.1,0.2,0.1,0.2s0,0.3,0,0.3s0.1,5.5,0.1,5.5s0,0.1,0,0.1s0,0.1,0,0.1s-0.6,5.6-0.6,5.6l-0.3,5.6
			c0,0,0,0.2,0,0.2s-0.1,0.2-0.1,0.2l-3.1,6c0,0,0-1,0-1s3.2,5.6,3.2,5.6l-0.7-0.5c0,0,5.5,0.9,5.5,0.9s-0.4,0-0.4,0
			s5.8-1.3,5.8-1.3c0.1,0,0.2,0,0.3,0c0,0,5.8,0.6,5.8,0.6s-0.5,0.1-0.5,0.1s4.4-1.7,4.4-1.7s-0.7,1.1-0.7,1.1s-0.2-3.9-0.2-3.9
			s0-0.1,0-0.1s0-0.1,0-0.1s0.4-5.2,0.4-5.2s0-0.3,0-0.3l0.2-0.3c0,0,4.8-5.8,4.8-5.8s-0.1,1.4-0.1,1.4l-4-5.7c0,0-0.3-0.4-0.3-0.4
			s0.1-0.5,0.1-0.5l1-5l0-0.2c0,0,0.1-0.2,0.1-0.2s4.3-6,4.3-6l0.2,1.6c-0.5-0.4-7.9-6-8.2-6.2c0,0,0.8-1,0.8-1s4.3-5.3,4.3-5.3
			l-0.1,1.3l-3-5.6c0,0-0.3-0.5-0.3-0.5l0.2-0.5c0,0,2.3-5.2,2.3-5.2s-0.1,0.1-0.1,0.1l1.5-4.8l2.4,0.2l0.7,5.8l-0.5-0.9
			c2.9,2.1,7.2,5,10.2,6.8c0,0,0.4,0.3,0.4,0.3s0.1,0.5,0.1,0.5l1.6,6.2l-0.7-0.9l5.8,2.6l0.8,0.4c0,0-0.4,8-0.4,8.3
			c0,0-0.3-0.9-0.3-0.9l4,4.9c0,0-0.6-0.4-0.6-0.4s6.5,2.3,6.5,2.3l0.3,0.1l0.2,0.3l3.5,4.3l0.1,0.1c0,0,0,0.1,0,0.1l3,4.9
			c0,0,3.2,4.7,3.2,4.7s0.2,0.2,0.2,0.2l0.1,0.3l1.3,6.7c0,0-0.8-1-0.8-1l6.2,2.8c0,0-1.9,0.9-1.9,0.9c0.1-0.3,0.4-0.7,0.6-0.9
			C268.8,318.8,269.5,320,269.5,320L269.5,320z"/>
		<path class="st4" d="M353.3,319.8c-1-1.7-2.1-3.5-3-5.3c0,0,0.3-0.7,0.3-0.7s3-5.9,3-5.9l-0.1,0.5c0,0,0.4-5.6,0.4-5.6
			s0.6-5.6,0.6-5.6c0,1.1-0.1-5.5-0.1-5.2c0,0,0.2,0.7,0.2,0.7l-3.5-5.7l-0.2-0.3c0,0,0-0.4,0-0.4l-0.1-6.2l0-0.5
			c0,0,0.3-0.4,0.3-0.4s4.7-5.5,4.7-5.5s-0.2,1.4-0.2,1.4c-0.2-0.2-3.1-6-3.1-6.1c0,0,0.2-0.5,0.2-0.5l2.5-5.7l0,0.9
			c-1.2-3.2-2.7-8.1-3.7-11.5c0,0-0.2-0.5-0.2-0.5s0.3-0.4,0.3-0.4s3.3-5.4,3.3-5.4l0.2,1.5c-0.2-0.1-7.1-6.3-7-6.1
			c0,0,0.3-0.7,0.3-0.7l2.5-6.1c0,0,0.4,1.3,0.4,1.3s-0.4-0.3-0.4-0.3s1.5-0.2,1.5-0.2c-0.3,0.3-6.4,7.7-6.5,7.8
			c-0.3-0.2-6.6-4.5-7.1-4.8c0,0,0.4,0.2,0.4,0.2s-5.4-1-5.4-1s0.7-0.1,0.7-0.1l-6.3,3.9c0,0-0.6,0.4-0.6,0.4l-0.6-0.4
			c0,0-5.4-4-5.4-4s-0.1-0.1-0.1-0.1l-0.1-0.1c0,0-3-4.7-3-4.7s-0.3-0.5-0.3-0.5s0.3-0.5,0.3-0.5s3.1-5.3,3.1-5.3l-0.1,0.4
			c0,0,0.4-4.8,0.4-4.8c-0.1-1.1-0.1-4.1-0.1-5.3c0,0,1,0.1,1,0.1l5.2,0.4l-0.5,0.1c0,0,5.8-3.6,5.8-3.6l0.2-0.1
			c0.2,0,6.8-0.1,7-0.1c0,0,0.2,0.2,0.2,0.2l5.7,4.8l-0.9-0.1c0,0,5.7-2.9,5.7-2.9s0.3-0.2,0.3-0.2s0.4,0.2,0.4,0.2s0.6,0.3,0.6,0.3
			s-1.1,0.6-1.1,0.6c0.1-0.6,0.3-2,0.4-2.7c0.6,0.5,4.9,3.6,5.6,4.2c0,0-0.2-0.1-0.2-0.1s0.6,0.2,0.6,0.2s-0.6,0-0.6,0
			c2-0.6,4.6-1.7,6.5-2.2c0,0-0.4,0.3-0.4,0.3s2.3-2.8,2.3-2.8s0.6-0.7,0.6-0.7s0.6,0.8,0.6,0.8l1.3,1.7c0,0-0.8-0.3-0.8-0.3
			l1.7-0.5l0.3-0.1c0,0,0.3,0.2,0.3,0.2s5.6,3.4,5.6,3.4l-0.9,0.1l5.8-6.5c0,0,0.3-0.4,0.3-0.4s0.5,0.2,0.5,0.2s6.3,2.5,6.3,2.5
			s-0.1,0-0.1,0s5.5,1.4,5.5,1.4l-0.4,0c0,0,5.8-2.6,5.8-2.6s0.1-0.1,0.1-0.1s0.2,0,0.2,0l6.5,0.4c0,0,0.3,0,0.3,0l0.2,0.3
			c0,0,3.4,5.6,3.4,5.6s-0.3-0.2-0.3-0.2c0.5,0.2,7.9,2.9,8.2,3c-0.3,0.2-8.4,5.5-8.9,5.9c0,0,0-0.9,0-0.9s5.7,4.6,5.7,4.6
			s0.2,0.2,0.2,0.2c-0.1,0.3-1.4,7.6-1.4,7.9c0,0-0.3,0.1-0.3,0.1s-7.8,1.2-7.8,1.2s-0.2,0-0.2,0s-0.2-0.1-0.2-0.1l-6-4.4
			c0,0,0.1,0.1,0.1,0.1s-5.3-1.6-5.3-1.6s0.4-0.1,0.4-0.1s-5.9,5.2-5.9,5.2s-0.2,0.2-0.2,0.2l-0.2-0.1c0,0-6-1.9-6-1.9s0.3,0,0.3,0
			l-5.8,2.8l0.2-0.2l-0.2,0.5c0,0-0.1-0.3-0.1-0.3l5.1,5.7c0,0,0.1,0.1,0.1,0.1s-0.1,0.2-0.1,0.2l-1.9,5.8c0,0,0-0.2,0-0.2l2.8,5.7
			c0,0,0.1,0.1,0.1,0.1s0,0.1,0,0.1c0,0-1.8,6-1.8,6c0,0-2.3,5.4-2.3,5.4c0,0,0-0.2,0-0.2l2.9,5.8c0,0,0.1,0.1,0.1,0.1
			S380,275,380,275s-4.2,5.4-4.2,5.4s0-0.3,0-0.3s6.9,5.7,6.9,5.7l0.1,0.1c0,0-0.1,0.1-0.1,0.1s-4.2,6.1-4.2,6.1
			c0.1-0.3-1,5.1-1,5.1c0,0,0-0.1,0-0.1s3.9,5.9,3.9,5.9s0,0.1,0,0.1s-0.1,0.1-0.1,0.1l-4.6,5.9c0,0,0-0.1,0-0.1s-0.4,5.4-0.4,5.4
			c0,0,0.2,4.2,0.2,4.2c0,0,0,0.1,0,0.1s0,0,0,0c0,0-4.5,1.6-4.5,1.5c0,0-5.8-0.6-5.8-0.6c0,0-5.8,1.2-5.8,1.2
			C359.2,320.8,354.4,319.9,353.3,319.8L353.3,319.8z M356.5,320.3l4,0.6c0,0,5.8-1.3,5.8-1.3c0,0,0,0,0,0l0,0c0,0,5.9,0.5,5.8,0.5
			c0,0,4.5-1.6,4.5-1.6l0,0.1l-0.2-4.2c0,0,0.4-5.4,0.4-5.4c0,0,0,0,0,0s0,0,0,0l4.6-6c0,0,0,0.1,0,0.1l-3.9-5.9c0,0,0,0,0,0
			s0-0.1,0-0.1c0,0,0.9-5.2,1-5.2c0,0,4.2-6.2,4.2-6.2c0,0,0,0.3,0,0.3s-7-5.6-7-5.6l-0.2-0.1l0.1-0.2l4.1-5.4l0,0.3l-2.9-5.8
			l-0.1-0.1c0,0,0-0.1,0-0.1c0,0,2.3-5.5,2.2-5.4c0,0,1.7-6,1.7-6s0,0.2,0,0.2s-2.8-5.6-2.8-5.6c-0.1-0.1-0.1-0.1,0-0.2
			c0,0,1.8-5.8,1.8-5.8l0.1,0.3c0,0-5.1-5.7-5.1-5.7s-0.1-0.2-0.1-0.2s0.1-0.2,0.1-0.2s0.2-0.5,0.2-0.5s0-0.2,0-0.2s0.1-0.1,0.1-0.1
			l5.8-2.8l0.1-0.1c0,0,0.1,0,0.1,0s6,1.9,6,1.9s-0.4,0.1-0.4,0.1s5.8-5.2,5.8-5.2l0.2-0.2l0.2,0.1c0,0,5.3,1.6,5.3,1.6s0.1,0,0.1,0
			s0.1,0,0.1,0l6,4.4c0,0-0.4-0.1-0.4-0.1s7.8-1.3,7.8-1.3l-0.4,0.4l1.3-7.3c0,0,0.2,0.5,0.2,0.5c-0.1-0.1-6.5-5.1-6.3-5.1
			c0,0,0.6-0.4,0.6-0.4s8-5.3,8-5.3l0.1,1l-7.2-2.5c0,0-0.2-0.1-0.2-0.1s-0.1-0.2-0.1-0.2s-3.5-5.6-3.5-5.6l0.5,0.3
			c0,0-6.5-0.4-6.5-0.4l0.3-0.1c0,0-5.8,2.6-5.8,2.6s-0.2,0.1-0.2,0.1s-0.2-0.1-0.2-0.1c0,0-5.5-1.4-5.6-1.4c0,0-6.4-2.5-6.4-2.5
			c0,0,0.8-0.2,0.8-0.2s-5.8,6.5-5.8,6.5s-0.4,0.5-0.4,0.5s-0.5-0.3-0.5-0.3l-5.6-3.3l0.6,0.1l-1.7,0.5l-0.5,0.1
			c0,0-0.3-0.4-0.3-0.4s-1.3-1.7-1.3-1.7s1.2,0,1.2,0s-2.3,2.8-2.3,2.8s-0.2,0.2-0.2,0.2c-2,0.5-4.7,1.6-6.7,2.3
			c0,0-0.3,0.1-0.3,0.1l-0.3-0.1c0,0-0.6-0.2-0.6-0.2s-0.1,0-0.1,0s-0.1-0.1-0.1-0.1s-4.6-3.4-4.6-3.4s1.3-0.5,1.3-0.5
			c-0.1,0.6-0.3,1.8-0.3,2.4c0,0-1-0.4-1-0.4s-0.6-0.2-0.6-0.2s0.7,0,0.7,0l-5.7,2.9c0,0-0.5,0.3-0.5,0.3s-0.4-0.4-0.4-0.4
			s-5.7-4.8-5.7-4.8s0.6,0.2,0.6,0.2l-6.4,0.2c0,0,0.4-0.1,0.4-0.1s-5.8,3.6-5.8,3.6s-0.3,0.2-0.3,0.2s-0.3,0-0.3,0
			s-5.2-0.4-5.2-0.4s1-0.9,1-0.9s0.1,4.3,0.1,4.3s0,0,0,0s0,0,0,0s-0.3,4.8-0.3,4.8s0,0.2,0,0.2s-0.1,0.2-0.1,0.2s-3.1,5.3-3.1,5.3
			s0-1,0-1s3,4.7,3,4.7s-0.2-0.3-0.2-0.3l5.4,4c0,0-1.1,0-1.1,0s6.3-4,6.3-4s0.3-0.2,0.3-0.2s0.4,0.1,0.4,0.1l5.4,1c0,0,0.2,0,0.2,0
			s0.2,0.1,0.2,0.1l6.4,4.2l-1.4,0.2c0.4-0.5,6.3-7.6,6.5-7.9c0.6,0.4,1.4,1,1.9,1.4c0,0.1-2.6,6.5-2.8,6.9c0,0-0.3-1.3-0.3-1.3
			c0.4,0.4,6.9,6,7.1,6.2c-0.2,0.4-3.5,5.7-3.8,6.2c0,0,0.1-1,0.1-1c1,3.3,2.5,8.2,3.7,11.4c0,0,0.2,0.4,0.2,0.4s-0.2,0.4-0.2,0.4
			l-2.5,5.7l0-1.1c0.2,0.4,3.2,6.1,3.3,6.3c0,0-0.6,0.6-0.6,0.6S353,281,353,281s0.3-0.9,0.3-0.9s0.2,6.2,0.2,6.2s-0.2-0.7-0.2-0.7
			l3.6,5.7c0,0,0.2,0.3,0.2,0.3s0,0.4,0,0.4s0.1,5.4,0.1,5.4c0,0,0,0.1,0,0.2c0,0-0.6,5.5-0.6,5.5l-0.3,5.5c0,0,0,0.3,0,0.3
			s-0.1,0.3-0.1,0.3l-3,5.9l0-1.3C354.3,315.9,355.4,318.1,356.5,320.3L356.5,320.3z"/>
		<g>
			<path class="st4" d="M509.1,319.8c-1-1.8-2.1-3.6-3-5.4c0,0,0.3-0.7,0.3-0.7l3-6l-0.1,0.5l0.4-5.7l0.6-5.7c0,1-0.1-5.5-0.1-5.3
				c0,0,0.2,0.7,0.2,0.7l-3.5-5.8c0,0-0.2-0.3-0.2-0.3l0-0.4c0,0-0.1-5.9-0.1-5.9l2.4,0.8c-0.6,0.7-1.8,2.3-2.4,3.1
				c-0.5-0.6-6.2-8.2-6.8-9.1c0,0,2,0.1,2,0.1l-5.4,5.9c0,0-0.4,0.5-0.4,0.5l-0.6-0.1l-6.1-0.6c0,0,0.3,0,0.3,0l-6,0.8
				c0,0-0.5,0.1-0.5,0.1s-0.4-0.3-0.4-0.3l-5.9-4.5l0.4,0.2l-5.2-1.6l1.2-0.3c0,0-0.7,0.6-0.7,0.6s0.1-0.2,0.1-0.2l-4,5.1l-0.2-1.7
				l7.2,5.7c0,0,0.9,0.7,0.9,0.7l-0.6,0.9l-4.3,6.2c0,0,0.2-0.4,0.2-0.4s-1,5.2-1,5.2s-0.2-0.9-0.2-0.9c0.2,0.3,4.4,6.5,4.5,6.7
				c0,0-0.5,0.7-0.5,0.7s-4.8,6-4.8,6s0.2-0.6,0.2-0.6s-0.5,5.4-0.5,5.4l0-0.1c0,0,0.2,4.2,0.2,4.2l0,0.8c-0.9,0.4-4.3,1.5-5.2,1.9
				c0,0-0.2,0.1-0.2,0.1s-0.2,0-0.2,0s-5.8-0.6-5.8-0.6s0.3,0,0.3,0s-5.8,1.3-5.8,1.3s-0.2,0-0.2,0s-0.2,0-0.2,0s-5.5-0.9-5.5-0.9
				S446,321,446,321s-0.2-0.4-0.2-0.4l-3.2-5.6l-0.3-0.5c0,0,0.3-0.5,0.3-0.5l3.1-6l-0.1,0.4c0,0,0.4-5.7,0.4-5.7s0.6-5.7,0.6-5.7
				l0,0.1l-0.1-5.5c0,0,0.2,0.5,0.2,0.5s-3.6-5.8-3.6-5.8s-0.1-0.2-0.1-0.2s0-0.3,0-0.3l-0.1-6.3c0,0,0-0.4,0-0.4s0.2-0.3,0.2-0.3
				s4.9-5.5,4.9-5.5s-0.1,1.1-0.1,1.1l-2.9-5.6c0,0-0.2-0.4-0.2-0.4s0.2-0.4,0.2-0.4s2.6-5.8,2.6-5.8s0,0.7,0,0.7
				c-1.2-3.3-2.8-8.2-3.8-11.6c0,0-0.1-0.4-0.1-0.4s0.2-0.3,0.2-0.3s3.4-5.5,3.4-5.5s0.2,1.1,0.2,1.1l-6.6-5.7c0,0-0.5-0.4-0.5-0.4
				s0.2-0.6,0.2-0.6s2.6-6.2,2.6-6.2s0,0.1,0,0.1l1.4-5.4c0,0,0,0.6,0,0.6l-2.6-5.7c0,0-0.1-0.2-0.1-0.2s0-0.2,0-0.2
				s1.4-9.2,1.4-9.2l0.2-1.3c0,0,1.1,0.8,1.1,0.8s8,6.1,8,6.1s-1.1,0.1-1.1,0.1s5.9-7.5,5.9-7.5l0.6-0.8l0.6,0.8l5.9,7.8
				c0,0-1-0.1-1-0.1c0.6-0.6,8.7-6.8,9.1-7.1c0,0,0,1.4,0,1.4l0,8.9l0-0.1c0,0,0.8,6,0.8,6s0,0.3,0,0.3s-0.2,0.2-0.2,0.2l-4.5,5.9
				c0,0,0.1-0.2,0.1-0.2s-1.6,5.1-1.6,5.1S467,239,467,239s5.3,5.8,5.3,5.8l0.2,0.3c0,0-0.1,0.3-0.1,0.3s-1.9,5.9-1.9,5.9
				s0-0.5,0-0.5l1.7,3.4c0,0-0.6-0.3-0.6-0.3l6.3-0.1c0,0,0.2,0,0.2,0s0.2,0.1,0.2,0.1l5.6,4.9l-0.6-0.1c0,0,5.6-2.9,5.6-2.9
				s0.2-0.1,0.2-0.1l0.2,0.1l5.8,2.6l-0.4,0c3.3-1.2,8.3-2.8,11.7-3.8c0,0,0.2-0.1,0.2-0.1s0.2,0.1,0.2,0.1s3.7,2.3,3.7,2.3
				s-0.7,0.6-0.7,0.6s-1.9-6.2-1.9-6.2s-0.1-0.2-0.1-0.2s0.1-0.2,0.1-0.2l3.3-5.5l0.1,0.6l-6.4-5.7c0,0-0.2-0.2-0.2-0.2
				s0.1-0.3,0.1-0.3l2.5-6.2c0,0,0,0.1,0,0.1s1.4-5.4,1.4-5.4s0,0.3,0,0.3l-2.5-5.7c0,0,0-0.1,0-0.1l0-0.1c0,0,1.4-9.1,1.4-9.1
				s0.1-0.7,0.1-0.7s0.5,0.4,0.5,0.4s8,5.9,8,5.9s-0.5,0.1-0.5,0.1l6-7.3c0,0,0.3-0.3,0.3-0.3l0.3,0.4l5.9,7.6c0,0-0.5-0.1-0.5-0.1
				s7.9-6.1,7.9-6.1s0.5-0.4,0.5-0.4l0,0.6l0,8.9c0-0.2,0.7,6,0.7,5.9c0,0,0,0.1,0,0.1s-0.1,0.1-0.1,0.1s-4.3,5.9-4.3,5.9
				s0-0.1,0-0.1l-1.6,5.2c0,0-0.1-0.2-0.1-0.2s5.1,5.8,5.1,5.8l0.1,0.1c0,0,0,0.1,0,0.1s-1.9,5.9-1.9,5.9s0-0.2,0-0.2l2.8,5.7
				c0,0,0,0.1,0,0.1s0,0.1,0,0.1c0,0-1.8,6.1-1.8,6.1c0,0-2.3,5.5-2.3,5.5c0,0,0-0.1,0-0.1s2.9,5.9,2.9,5.9s0,0.1,0,0.1
				s-0.1,0.1-0.1,0.1s-4.2,5.5-4.2,5.5l0-0.2l6.9,5.7l0.1,0.1l-0.1,0.1c0,0-4.3,6.4-4.2,6.2c0,0-1,5.2-1,5.2
				c-0.1-0.3,3.9,5.9,3.9,5.9c0,0,0,0.1,0,0.1s0,0,0,0s-4.6,6-4.6,6c0.1-0.2-0.5,5.5-0.4,5.4c0,0,0.2,4.3,0.2,4.3s0,0,0,0s0,0,0,0
				c0,0-4.5,1.5-4.5,1.5c0,0-5.8-0.6-5.8-0.6c0,0-5.8,1.3-5.8,1.2C514.9,320.7,510.2,320,509.1,319.8L509.1,319.8z M512.2,320.3
				c0,0,4.1,0.6,4,0.6c0,0,5.8-1.3,5.8-1.3l0,0l0,0c0,0,5.9,0.5,5.8,0.5c0,0,4.5-1.6,4.5-1.6s0,0,0,0l-0.2-4.3c0,0,0.4-5.5,0.4-5.5
				c0,0,4.6-6,4.6-6.1c0,0,0,0.1,0,0.1c0,0-3.9-6-3.9-6c0,0,0,0,0,0c0,0,1-5.3,1-5.3c0,0,4.2-6.2,4.2-6.3c0,0,0,0.2,0,0.2l-7-5.7
				l-0.1-0.1c0,0,0.1-0.1,0.1-0.1l4.2-5.5c0,0,0,0.2,0,0.2s-2.9-5.9-2.9-5.9c-0.1-0.1,0-0.1,0-0.1c0,0,2.3-5.6,2.2-5.5
				c0,0,1.7-6.1,1.7-6.1s0,0.1,0,0.1s-2.8-5.7-2.8-5.7c-0.1-0.1,0-0.1,0-0.2c0,0,1.8-5.9,1.8-5.9s0,0.2,0,0.2s-5.1-5.7-5.1-5.7
				l-0.1-0.1l0-0.1c0,0,1.5-5.2,1.5-5.2s0,0,0,0s0,0,0,0l4.3-5.9l-0.1,0.2c0,0-0.8-6-0.8-6c0,0-0.1-8.9-0.1-8.9c0,0,0.5,0.2,0.5,0.2
				s-7.9,6.1-7.9,6.1s-0.3,0.2-0.3,0.2s-0.2-0.3-0.2-0.3s-5.9-7.6-5.9-7.6s0.6,0,0.6,0s-5.9,7.3-5.9,7.3l-0.2,0.3l-0.3-0.2
				c0,0-8-5.9-8-5.9s0.6-0.3,0.6-0.3s-1.3,9.2-1.3,9.2s0-0.2,0-0.2l2.6,5.7c0,0,0.1,0.1,0.1,0.1s0,0.1,0,0.1c0,0-1.3,5.4-1.3,5.4
				c0,0-2.5,6.3-2.5,6.3c0,0-0.1-0.5-0.1-0.5l6.4,5.7c0,0,0.3,0.3,0.3,0.3s-0.2,0.3-0.2,0.3l-3.3,5.5c0,0,0.1-0.4,0.1-0.4
				s1.9,6.2,1.9,6.2l0.4,1.3l-1.1-0.7c0,0-3.8-2.3-3.8-2.3s0.4,0.1,0.4,0.1c-3.5,1-8.4,2.7-11.8,3.9c0,0-0.2-0.1-0.2-0.1l-5.9-2.6
				c0,0,0.5,0,0.5,0l-5.6,3c0,0-0.3,0.2-0.3,0.2s-0.3-0.3-0.3-0.3l-5.6-4.8l0.4,0.1l-6.3,0.1l-0.4,0c-0.2-0.4-1.8-3.5-2-3.9
				c0,0,0.1-0.2,0.1-0.2l1.9-5.9c0,0,0.1,0.6,0.1,0.6l-5.3-5.7c0,0-0.3-0.3-0.3-0.3s0.1-0.4,0.1-0.4s1.6-5.1,1.6-5.1l0-0.1
				c0,0,0.1-0.1,0.1-0.1s4.4-5.9,4.4-5.9l-0.1,0.5c0,0-0.8-6-0.8-6.1c0,0-0.1-8.9-0.1-8.9c0,0,1.1,0.5,1.1,0.5s-7.9,6.3-7.9,6.3
				s-0.6,0.5-0.6,0.5s-0.5-0.6-0.5-0.6s-5.9-7.8-5.9-7.8l1.2,0l-5.9,7.5c0,0-0.5,0.6-0.5,0.6s-0.6-0.5-0.6-0.5s-8.1-6-8.1-6
				s1.3-0.5,1.3-0.5l-1.4,9.2c0,0-0.1-0.5-0.1-0.5s2.6,5.7,2.6,5.7s0.1,0.3,0.1,0.3s-0.1,0.3-0.1,0.3s-1.4,5.4-1.4,5.4
				c0,0,0,0.1,0,0.1c0,0-2.6,6.3-2.6,6.3s-0.2-1-0.2-1l6.6,5.7c0,0,0.6,0.5,0.6,0.5c-0.2,0.3-3.5,5.7-3.8,6.1c0,0,0.1-0.7,0.1-0.7
				c1,3.4,2.6,8.3,3.8,11.5c0,0,0.1,0.3,0.1,0.3S449,263,449,263l-2.6,5.8l0-0.8c0.1,0.2,3.3,6.2,3.3,6.2c0,0-0.4,0.5-0.4,0.5
				l-4.8,5.6c0,0,0.2-0.7,0.2-0.7l0.2,6.3c0,0-0.2-0.5-0.2-0.5l3.7,5.7l0.1,0.2c0,0,0,0.3,0,0.3s0.1,5.5,0.1,5.5s0,0.1,0,0.1
				s0,0.1,0,0.1s-0.6,5.6-0.6,5.6l-0.3,5.6c0,0,0,0.2,0,0.2s-0.1,0.2-0.1,0.2s-3.1,6-3.1,6s0-1,0-1l3.2,5.6c0,0-0.7-0.5-0.7-0.5
				s5.5,0.9,5.5,0.9l-0.4,0c0,0,5.8-1.3,5.8-1.3l0.2,0c0,0,0.2,0,0.2,0s5.8,0.6,5.8,0.6l-0.5,0.1l4.4-1.6c0,0-0.7,1.1-0.7,1.1
				l-0.2-4.2l0-0.1c0,0,0-0.1,0-0.1s0.4-5.5,0.4-5.5s0-0.3,0-0.3s0.2-0.3,0.2-0.3s4.7-6,4.7-6l-0.1,1.3c0,0-4-6-4-6
				s-0.3-0.4-0.3-0.4s0.1-0.5,0.1-0.5l1-5.2c0,0,0-0.2,0-0.2s0.1-0.2,0.1-0.2s4.3-6.3,4.3-6.3s0.2,1.6,0.2,1.6l-7.2-5.7
				c0,0-0.9-0.7-0.9-0.7l0.7-0.9l4-5.1c0,0,0.1-0.1,0.1-0.1l0.1-0.1l0.7-0.6l0.5-0.5l0.7,0.2l5.2,1.6c0,0,0.2,0.1,0.2,0.1l0.2,0.1
				c0,0,6,4.4,6,4.4s-0.9-0.2-0.9-0.2l6-0.8c0.1,0,0.2,0,0.3,0c0,0,6.1,0.6,6.1,0.6s-1.1,0.4-1.1,0.4l5.4-5.9l1-1.2
				c0.5,0.6,6.1,8.1,6.8,8.9c0,0-2.1,0-2.1,0c0.8-1.1,2.8-3.5,3.6-4.6c0.1,2.2,0.2,7.3,0.2,9.6c0,0-0.2-0.7-0.2-0.7l3.5,5.7
				c0,0,0.2,0.3,0.2,0.3c0,0.1,0.2,5.8,0.1,6c0,0-0.6,5.6-0.6,5.6s-0.3,5.6-0.3,5.6s0,0.3,0,0.3s-0.1,0.3-0.1,0.3l-3,6l0-1.3
				C510,315.9,511.1,318.1,512.2,320.3L512.2,320.3z"/>
			<path class="st4" d="M512.1,274.6l0.1,0.3l0,0l0.8-0.2c0-0.3-0.4-0.7-0.6-0.4C512.3,274.3,512.1,274.6,512.1,274.6L512.1,274.6z
				 M512.3,274.3c-0.3,0.3-0.5-0.3-0.5-0.5c0,0,0.8-0.2,0.8-0.2l0,0l0.2-0.4l0.1,1.6c0,0.2-0.1,0.5-0.5,0.6c-0.4,0.2-0.8,0.1-1,0.1
				L512.3,274.3L512.3,274.3z"/>
		</g>
		<g>
			<path class="st4" d="M627.1,322.4c-2.2,1.4-4.5,2.7-6.8,3.8c0,0-0.7-0.5-0.7-0.5l-5.4-4c0,0,0.4,0.2,0.4,0.2s-5.1-1.6-5.1-1.6
				s-0.1,0-0.1,0l-0.1,0c0,0-4.5-2.3-4.5-2.3c-1.4-0.5-3.3-1.5-4.6-2.1c0,0,0.6,0.1,0.6,0.1s-6.5,0.5-6.5,0.5l-0.5,0
				c0,0-0.4-0.3-0.4-0.3s-5-3.5-5-3.5l-0.5-0.4c0,0,0-0.6,0-0.6l-0.4-7.1c0,0,0.9,1.1,0.9,1.1s-5.6-1.6-5.6-1.6l-0.8-0.2l-0.1-0.8
				c0,0-1-5.8-1-5.8s0.5,0.8,0.5,0.8s-4.2-3.1-4.2-3.1s-0.1-0.1-0.1-0.1c-0.3-0.3-4.5-4.6-4.8-4.9c0,0,0.2-0.6,0.2-0.6l1.6-6
				l0.6,1.3c0,0-7.9-3.7-7.9-3.7s-0.8-0.4-0.8-0.4s0.2-0.9,0.2-0.9c1-3.4,2.3-8.4,3-11.9c0,0,0.1,0.7,0.1,0.7s-2.4-5.7-2.4-5.7
				s-0.1-0.3-0.1-0.3s0.1-0.3,0.1-0.3s1.3-6.2,1.3-6.2s0.1-0.5,0.1-0.5s0.5-0.2,0.5-0.2l7.2-3.4c0,0-0.4,1.5-0.4,1.5
				c-0.4-0.6-5.9-8.8-6.2-9.2c0,0,1.6-0.2,1.6-0.2s9.5-1.2,9.5-1.2s-0.8,1.3-0.8,1.3l-2.7-7.2c0,0-0.2-0.5-0.2-0.5l0.4-0.4
				c0,0,4-4.2,4-4.2L581,232c0,0,3.3-4.7,3.3-4.7s0.3-0.4,0.3-0.4s0.4,0,0.4,0s7.1-0.2,7.1-0.2s-0.2,0-0.2,0s4.4-1.2,4.4-1.2
				l-0.6,0.6c0,0,1.7-7.3,1.7-7.3s0.1-0.6,0.1-0.6s0.6,0,0.6,0s5.8-0.5,5.8-0.5l-0.5,0.2l4.4-4.6c0,0,0.3-0.3,0.3-0.3l0.4,0
				c0,0,6.4,0.5,6.4,0.5s0.1,0,0.1,0s0.1,0,0.1,0l5.5,1.7c0,0-0.6,0.1-0.6,0.1s5.6-3.3,5.6-3.3s0.5-0.3,0.5-0.3s0.4,0.4,0.4,0.4
				s5,4.7,5,4.7s-0.9,0-0.9,0s6.5-6.6,6.5-6.6s0.5-0.5,0.5-0.5l0.5,0.5c0,0,5.1,5.8,5.1,5.8L643,216l4.4,2.6c0,0-0.4-0.1-0.4-0.1
				s6.9-1.4,6.9-1.4l0.5-0.1c0,0,0.2,0.5,0.2,0.5l2.3,7.1c0,0-0.2-0.2-0.2-0.2l3.6,3.2c0,0,0,0,0.1,0.1c0,0,3.1,3.7,3.1,3.7
				l-0.2-0.1c0,0,5.1,2.2,5.1,2.2s0.2,0.1,0.2,0.1l0.1,0.1l2.6,4.5c0,0-0.1-0.1-0.1-0.1l3.9,3.8c0,0,0.1,0.1,0.1,0.1s0,0.2,0,0.2
				l0.5,5.7c0.5,2.2,1.5,7.4,2,9.8c0,0-0.1-0.2-0.1-0.2s5.7,4.8,5.7,4.8s0.2,0.1,0.2,0.1s0,0.2,0,0.2c0,0-0.9,6.1-0.9,6.1
				c0,0-1.4,5.1-1.4,5.1c0,0,0-0.3,0-0.3l3.4,6.4c0,0,0.1,0.2,0.1,0.2s-0.2,0.2-0.2,0.2s-4.8,4.8-4.8,4.8s0.1-0.2,0.1-0.2
				s0.2,5.9,0.2,5.9s0,0.1,0,0.1s-0.1,0.1-0.1,0.1s-3.8,4.7-3.8,4.7l-0.1,0.1c0,0-0.1,0-0.1,0l-6.7,1.6c0,0,0.2-0.2,0.2-0.2
				s-0.8,5.1-0.8,5.1s0,0.1,0,0.1s0,0,0,0s-3.1,4.1-3.1,4.1c0.2-0.4-1.5,7.1-1.4,7c0,0,0,0.2,0,0.2s-0.2,0-0.2,0s-7.3-1-7.3-1
				s0.2-0.1,0.2-0.1l-2.2,6.3c0,0,0,0.1,0,0.1l-0.1,0l-5.8,1.3c0,0-6,0.9-6,0.9c0,0,0,0,0,0s0,0,0,0s-5.8-3.3-5.8-3.3s0.1,0,0.1,0
				s-4.4,8.3-4.4,8.3C632.2,326.3,627.1,322.3,627.1,322.4L627.1,322.4z M625,320.8c0.8,0.6,6.5,4.7,7.2,5.4c0,0,4.3-8.4,4.3-8.4
				s0-0.1,0-0.1s0.1,0,0.1,0s5.8,3.3,5.8,3.3s-0.1,0-0.1,0c0,0,6-0.9,6-0.9c0,0,5.8-1.4,5.8-1.4s-0.1,0.1-0.1,0.1s2.1-6.3,2.1-6.3
				l0-0.1c0,0,0.1,0,0.1,0s7.3,0.9,7.3,0.9s-0.2,0.1-0.2,0.1c0,0,1.4-7.1,1.4-7.2c0,0,0,0,0,0s3.1-4.1,3.1-4.1
				c-0.1,0.6,0.8-5.2,0.8-5c0,0,0-0.2,0-0.2s0.2,0,0.2,0l6.7-1.6l-0.1,0.1c0,0,3.8-4.8,3.8-4.8l-0.1,0.2c0,0-0.2-5.9-0.2-5.9
				s0-0.1,0-0.1s0.1-0.1,0.1-0.1s4.8-4.9,4.8-4.9s-0.1,0.4-0.1,0.4l-3.5-6.3l-0.1-0.1l0-0.1c0,0,1.4-5.3,1.3-5.1
				c0,0,0.9-6.1,0.9-6.1s0.1,0.4,0.1,0.4S677,258,677,258s-0.1-0.1-0.1-0.1c-0.5-2.5-1.5-7.4-2.1-10c0,0-0.6-5.7-0.6-5.7
				s0.1,0.3,0.1,0.3s-3.9-3.8-3.9-3.8c0,0-0.1-0.1-0.1-0.1c0,0-2.7-4.5-2.7-4.5s0.2,0.2,0.2,0.2s-5.1-2.2-5.1-2.2s-0.1,0-0.1,0
				l-0.1-0.1c0,0-3.1-3.7-3.1-3.7l0.1,0.1c0,0-3.7-3.2-3.7-3.2s-0.1-0.1-0.1-0.1s0-0.1,0-0.1l-2.4-7.1c0,0,0.7,0.4,0.7,0.4l-6.8,1.5
				c0,0-0.2,0-0.2,0l-0.2-0.1c0,0-4.4-2.6-4.4-2.6l-0.1,0c0,0-0.1-0.1-0.1-0.1s-5.1-5.8-5.1-5.8s0.9,0,0.9,0s-6.5,6.6-6.5,6.6
				s-0.5,0.5-0.5,0.5s-0.5-0.4-0.5-0.4s-5.1-4.6-5.1-4.6s0.8,0.1,0.8,0.1s-5.6,3.3-5.6,3.3s-0.3,0.2-0.3,0.2s-0.3-0.1-0.3-0.1
				s-5.5-1.7-5.5-1.7s0.2,0,0.2,0s-6.4-0.4-6.4-0.4s0.6-0.2,0.6-0.2s-4.4,4.7-4.4,4.7s-0.2,0.2-0.2,0.2s-0.3,0-0.3,0
				s-5.8,0.5-5.8,0.5s0.7-0.6,0.7-0.6s-1.7,7.3-1.7,7.3l-0.1,0.5c-0.5,0.1-4.4,1.3-5,1.4c0,0-0.1,0-0.1,0s-7.1,0.2-7.1,0.2
				s0.7-0.4,0.7-0.4s-3.2,4.8-3.2,4.8c0,0-0.1,0.1-0.1,0.1c0,0-4,4.3-4,4.3s0.2-1,0.2-1c0.3,0.8,3,7.7,3.2,8.2
				c-0.7,0.1-9.7,1.4-10.7,1.5c0,0,0.7-1.5,0.7-1.5l5.4,7.9c0,0,0.7,1,0.7,1c-0.8,0.4-7.2,3.5-8.2,3.9c0,0,0.6-0.7,0.6-0.7
				s-1.3,6.2-1.3,6.2s-0.1-0.6-0.1-0.6l2.5,5.7c0,0,0.1,0.3,0.1,0.3c-0.7,3.6-2,8.7-3,12.3c0,0-0.6-1.3-0.6-1.3
				c0.5,0.3,8.6,3.9,8.8,4.1c-0.2,0.8-1.5,6.1-1.8,7c0,0-0.3-1.1-0.3-1.1l4.3,4.3l-0.1-0.1c0.1,0.2,4.6,3.3,4.6,3.3
				c0,0,0.1,0.5,0.1,0.5s1,5.8,1,5.8l-0.9-1c0.6,0.1,6,1.7,6.5,1.8c0,0,0.1,0.9,0.1,0.9s0.5,7,0.5,7s-0.5-1-0.5-1s5,3.5,5,3.5
				s-0.8-0.2-0.8-0.2l6.5-0.6c0,0,0.3,0,0.3,0c1.5,0.7,3.5,1.5,5,2.2c0,0,4.6,2.3,4.6,2.3s-0.2-0.1-0.2-0.1s5.1,1.6,5.1,1.6l0.2,0.1
				c0,0,0.2,0.1,0.2,0.1s5.4,4,5.4,4l-1.5-0.1C621.4,322.4,623.2,321.6,625,320.8L625,320.8z"/>
			<path class="st4" d="M615.9,296.7c1.5,1.7,2.9,3.4,4.3,5.2c0,0-1.3-0.5-1.3-0.5l6.4-1.3c0,0-0.5,0.2-0.5,0.2l5.5-3.7
				c0,0,0.5-0.3,0.5-0.3s0.6,0.2,0.6,0.2s6.2,1.7,6.2,1.7s-0.8,0-0.8,0s5.2-2,5.2-2l-0.2,0.1c0,0,4.8-2.7,4.8-2.7s-0.3,0.2-0.3,0.2
				s3.5-3.9,3.5-3.9s-0.3,0.8-0.3,0.8s-0.2-6.3-0.2-6.3s0-0.2,0-0.2l0.1-0.2l2.1-5.6c0,0,0.1-0.3,0.1-0.3s0.2-0.2,0.2-0.2l5.9-4.5
				l-0.3,1.2l-2.5-6c0,0-0.1-0.3-0.1-0.3s0.1-0.3,0.1-0.3s2.1-7.1,2.1-7.1s0.1,0.7,0.1,0.7l-3.5-6c0,0,0.1,0.1,0.1,0.1
				s-4.3-4.8-4.3-4.8s-0.2-0.2-0.2-0.2s0-0.3,0-0.3s-0.8-6.5-0.8-6.5s0.9,0.7,0.9,0.7s-8.4,1.3-8.4,1.3l-0.5,0.1
				c0,0-0.3-0.4-0.3-0.4s-3.7-4.9-3.7-4.9s0.2,0.2,0.2,0.2s-5-2.9-5-2.9l0.6,0.1c0,0-6.1,2.1-6.1,2.1s-0.1,0-0.1,0s-0.1,0-0.1,0
				s-5.6-0.1-5.6-0.1l-0.2,0c0,0-0.2-0.1-0.2-0.1l-6.3-4.5c0,0,0.9-0.3,0.9-0.3s-2.1,8.8-2.1,8.8s-0.1,0.6-0.1,0.6l-0.5-0.2
				c0,0-8.5-3.1-8.5-3.1l0.6-0.5l0.7,7.4c0,0,0,0.2,0,0.2s-0.1,0.1-0.1,0.1s-3.3,3.9-3.3,3.9s0.1-0.1,0.1-0.1s-1.4,5.5-1.4,5.5
				c0,0.1,0,0.1-0.1,0.2c0,0-5.6,4.8-5.6,4.8s0.1-0.1,0.1-0.1l-2,5.5l0-0.3c0,0,5.7,6.4,5.7,6.4c0.1,0.1,0.1,0.1,0.1,0.1
				c0,0-0.2,6.9-0.2,6.9s-0.1-0.1-0.1-0.1c0,0,5,4,5,4c0,0,2.1,5.8,2.1,5.8c0,0,2.7,5.4,2.7,5.3
				C608.7,296.4,614.7,296.7,615.9,296.7L615.9,296.7z M612.5,296.6l-4.9-0.1l0,0c0,0,0,0,0,0s-2.8-5.3-2.8-5.3c0,0-2.1-5.8-2.1-5.8
				c0,0,0,0.1,0,0.1l-5-3.9c0,0-0.1,0-0.1,0s0-0.1,0-0.1s0.1-6.9,0.1-6.9s0.1,0.1,0.1,0.1l-5.8-6.4c0,0-0.1-0.1-0.1-0.1
				s0.1-0.1,0.1-0.1s1.9-5.5,1.9-5.5s0-0.1,0-0.1l0.1-0.1l5.5-4.9c0,0-0.1,0.2-0.1,0.2s1.4-5.5,1.4-5.5l0-0.1c0,0,0.1-0.1,0.1-0.1
				l3.2-4c0,0-0.1,0.3-0.1,0.3c0-0.1-0.9-8.2-0.9-8.1c0,0,0.7,0.2,0.7,0.2l8.5,3l-0.7,0.4l2-8.8c0,0,0.2-0.8,0.2-0.8l0.7,0.5
				l6.3,4.4l-0.3-0.1l5.6,0c0,0-0.2,0-0.2,0s6.1-2.1,6.1-2.1l0.3-0.1l0.3,0.2c0,0,5.1,2.8,5.1,2.8l0.1,0.1l0.1,0.1l3.8,4.8
				c0,0-0.7-0.3-0.7-0.3l8.4-1.4c0,0,0.8-0.1,0.8-0.1s0.1,0.8,0.1,0.8s0.9,6.5,0.9,6.5l-0.2-0.5c0,0,4.4,4.7,4.4,4.7
				s0.1,0.1,0.1,0.1s0,0.1,0,0.1l3.6,5.9l0.2,0.3l-0.1,0.4c0,0-2,7.1-2,7.1s0-0.7,0-0.7s2.6,6,2.6,6l0.3,0.7l-0.6,0.5l-5.9,4.6
				c0,0,0.3-0.5,0.3-0.5s-2.1,5.6-2.1,5.6l0.1-0.4l0.3,6.3c0,0,0,0.5,0,0.5s-0.3,0.4-0.3,0.4s-3.5,3.9-3.5,3.9s-0.1,0.1-0.1,0.1
				s-0.2,0.1-0.2,0.1l-4.8,2.7l-0.1,0l-0.1,0c0,0-5.2,2-5.2,2s-0.4,0.1-0.4,0.1l-0.4-0.1c0,0-6.2-1.6-6.2-1.6l1-0.2l-5.5,3.7
				c0,0-0.2,0.1-0.2,0.1c-0.7,0.2-6.8,1.5-7.4,1.6C616.5,301.8,614.5,299.2,612.5,296.6L612.5,296.6z"/>
		</g>
		<path class="st4" d="M741.7,323.1c-2.3-0.7-7-2.2-9.4-2.9c0,0-0.1-0.1-0.1-0.1s-4.6-2.4-4.6-2.4s-4.6-2.3-4.6-2.3s0.6,0.1,0.6,0.1
			s-6.5,0-6.5,0s-0.5,0-0.5,0s-0.4-0.3-0.4-0.3c-0.4-0.2-5.2-4.3-5.4-4.4c0.1-0.3,0.5-4.5,0.5-4.9c0.1-0.6,1.2-6,1.3-6.4
			c0,0,0.7-0.2,0.7-0.2s5.7-1.9,5.7-1.9s-0.8,0.7-0.8,0.7s2.2-4.8,2.2-4.8c0,0,0-0.1,0-0.1c1-1.9,4.1-7.7,5.1-9.4
			c0,0,0.9,2.7,0.9,2.7s2.5,7.3,2.5,7.3s-1.5-0.8-1.5-0.8s7.6-2.2,7.6-2.2s0.9-0.3,0.9-0.3s0.5,0.8,0.5,0.8s2.7,4.7,2.7,4.7
			s-0.3-0.3-0.3-0.3s3.3,2.7,3.3,2.7l-1.1-0.2c0,0,4.8-1.5,4.8-1.5l0.3-0.1l0.3,0c0,0,4.9,0.8,4.9,0.8s0.3,0.1,0.3,0.1l0.3,0.2
			c0,0,5.9,5.2,5.9,5.2l-1.9,0.5c0.2-0.6,2.9-8.9,3-9.2c0,0,1,0.2,1,0.2s7.1,1.5,7.1,1.5s-1.1,1.8-1.1,1.8s-3.5-4.6-3.5-4.6
			l-0.1-0.2c0,0-0.1-0.2-0.1-0.2l-1.5-5.6c0,0,0.5,0.7,0.5,0.7l-6.7-3.5c0,0-0.3-0.2-0.3-0.2l-0.2-0.3l-3.1-6l0.3,0.3l-3.8-3
			c0,0,1.1,0.1,1.1,0.1l-7,3.1l-0.6,0.3l-0.5-0.4c0,0-4.6-4-4.6-4l0.6,0.2l-6.4-0.1c0,0-0.5,0-0.5,0l-0.3-0.4l-4.1-5.1
			c0,0-0.1-0.1-0.1-0.1s-0.1-0.1-0.1-0.1l-2.1-5.4l0.4,0.5l-5.7-3.3l-0.6-0.4l0.2-0.7l2.3-7.6c0,0,0.3,1,0.3,1l-7.9-6.3
			c0,0-0.7-0.5-0.7-0.5s0.5-0.7,0.5-0.7l4.9-6.3l-0.1,0.1c0,0,2.4-4.9,2.4-4.9l-0.1,0.4l-0.7-7.5l-0.1-0.7c0,0,0.7-0.1,0.7-0.1
			l7.7-1.6l-0.3,0.1l4.3-2.9c0,0,0.1-0.1,0.1-0.1s0.1,0,0.1,0s4.8-1.8,4.8-1.8l-0.2,0.1c0,0,5.2-4.1,5.2-4.1s0.2-0.1,0.2-0.1
			s0.2,0,0.2,0l6.5-0.6c0,0-0.1,0-0.1,0s6.5-1.7,6.5-1.7s0.2-0.1,0.2-0.1s0.2,0.1,0.2,0.1s5.2,2.1,5.2,2.1l-0.1,0c3,0.8,6,1.7,9,2.6
			l-0.5,0l6.6-2.9c0,0,0.4-0.2,0.4-0.2s0.3,0.2,0.3,0.2s5.6,4.1,5.6,4.1l0,0c0,0,0,0,0,0s4.4,4.5,4.4,4.5s-0.1-0.1-0.1-0.1l9.3,6.6
			l0.9,0.7c0,0-1.1,0.4-1.1,0.4l-8,2.9l0.3-0.3l-2.2,5.2c0,0-0.1,0.2-0.1,0.2l-0.2,0.1l-5.1,3.1c0,0-0.2,0.1-0.2,0.1s-0.2,0-0.2,0
			s-6.6-0.7-6.6-0.7s-0.1,0-0.1,0s-0.1-0.1-0.1-0.1s-2.6-1.6-2.6-1.6c0.2,0.1-5-2.7-5-2.7c0,0,0.4,0,0.4,0s-6.4,2.1-6.4,2.1
			S758,240,758,240s-0.2-0.2-0.2-0.2l-4.5-5.2l0.7,0l-3.9,4.4c0,0-0.1,0.1-0.1,0.1s-0.2,0-0.2,0s-4.2,0.4-4.2,0.4s0.3-0.2,0.3-0.2
			l-3.4,4.6c0,0,0.1-0.2,0.1-0.2s-0.8,8.2-0.8,8.2s-0.5-0.4-0.5-0.4l10.5-1.8l0.2,0c0,0,0.1,0.2,0.1,0.2l3.7,5l-0.1-0.1
			c0,0,4.7,2,4.7,2l0.1,0l0.1,0.1c0,0,4.1,4.7,4.1,4.7s-0.1-0.1-0.1-0.1s4.4,2.5,4.4,2.5s-0.2,0-0.2,0c2,0,4.9-0.3,6.9-0.2
			c0,0,6.9,0.2,6.9,0.2l0.3,0c0,0,0,0.3,0,0.3c0,0,0.4,8.7,0.4,8.5c0,0,1.1,5.2,1.1,5.2s0-0.1,0-0.1c0,0,2.9,5.5,2.9,5.5
			c0,0,1.9,6.8,1.9,6.8c0,0,0,0,0,0s0,0,0,0c0,0-0.9,5.4-0.9,5.4c0,0-2.4,4.2-2.5,4.2c0,0,0-0.1,0-0.1s1.8,6.5,1.8,6.5s0,0.1,0,0.1
			s-0.1,0.1-0.1,0.1c0,0-4.5,4-4.4,4c0,0-3.7,4.3-3.7,4.3l0,0c0,0-0.1,0-0.1,0c0,0-7.5-0.3-7.3-0.3c0,0-4.9,2.2-4.8,2.2
			c-1.6,1.1-3.9,2.9-5.5,3.9c0,0-5.7,3.6-5.7,3.6s0,0,0,0l0,0c0,0-6.3-2.4-6.3-2.4c0.1,0-5.9,2.9-5.9,2.9
			C743.5,324.4,741.7,323.1,741.7,323.1L741.7,323.1z M734.3,317.9c2.2,1.5,7.1,4.9,9.3,6.5c-0.1,0,5.9-3,5.9-3c0,0,0,0,0,0s0,0,0,0
			c0,0,6.5,2.4,6.3,2.4c0,0,5.7-3.6,5.7-3.6c1.6-1,3.8-2.9,5.5-3.9c0,0,4.8-2.2,4.8-2.3c0,0,7.3,0.2,7.4,0.2c0,0-0.1,0-0.1,0
			s3.7-4.3,3.7-4.3c0,0,4.4-4,4.4-4c0,0,0,0.2,0,0.2s-1.8-6.5-1.8-6.5l0-0.1c0,0,0-0.1,0-0.1s2.4-4.2,2.4-4.2s0,0.1,0,0.1
			s0.9-5.4,0.9-5.4c0.1,0.5-2-7-1.9-6.6c0,0-2.9-5.5-2.9-5.5c0,0,0,0,0-0.1c0,0-1.1-5.2-1.1-5.2c0,0-0.4-8.6-0.4-8.6
			c0,0,0.3,0.3,0.3,0.3s-6.9-0.1-6.9-0.1c-2-0.1-4.9,0.2-6.9,0.3c0,0-0.1,0-0.1,0s-0.1,0-0.1,0l-4.4-2.5c0,0-0.1,0-0.1-0.1
			c0,0-4.2-4.7-4.2-4.7s0.1,0.1,0.1,0.1l-4.7-1.9c-0.1,0-0.1-0.1-0.1-0.1c0,0-3.7-5-3.7-5l0.4,0.1c0,0-10.4,1.8-10.4,1.8l-0.5,0.1
			c0,0,0-0.5,0-0.5s0.7-8.2,0.7-8.2s0-0.1,0-0.1s0.1-0.1,0.1-0.1l3.4-4.6l0.1-0.2c0,0,0.2,0,0.2,0l4.2-0.5l-0.3,0.1
			c0,0,3.9-4.4,3.9-4.4s0.3-0.4,0.3-0.4s0.3,0.4,0.3,0.4l4.6,5.1c0,0-0.5-0.1-0.5-0.1s6.4-2.1,6.4-2.1l0.2-0.1l0.2,0.1
			c0,0,5.1,2.7,5.1,2.7c0,0,2.6,1.6,2.6,1.6c0,0-0.2-0.1-0.2-0.1l6.6,0.6c0,0-0.3,0.1-0.3,0.1s5.1-3.1,5.1-3.1s-0.2,0.3-0.2,0.3
			s2.1-5.2,2.1-5.2s0.1-0.2,0.1-0.2s0.2-0.1,0.2-0.1l8-2.9c0,0-0.1,1-0.1,1s-9.3-6.6-9.3-6.6s0,0,0,0l0,0l-4.4-4.4
			c0,0,0.1,0.1,0.1,0.1s-5.6-4.1-5.6-4.1s0.7,0.1,0.7,0.1s-6.5,2.9-6.5,2.9l-0.2,0.1c-3.1-0.9-6.2-1.8-9.3-2.6c0,0-5.2-2.1-5.2-2.1
			l0.5,0l-6.5,1.7c0,0-0.1,0-0.1,0s-0.1,0-0.1,0s-6.5,0.6-6.5,0.6s0.4-0.2,0.4-0.2s-5.2,4.1-5.2,4.1s-0.1,0.1-0.1,0.1l-0.1,0
			l-4.8,1.8c0,0,0.2-0.1,0.2-0.1s-4.3,2.9-4.3,2.9c-0.1,0.1-0.2,0.1-0.3,0.1c0,0-7.7,1.7-7.7,1.7s0.6-0.9,0.6-0.9l0.7,7.5
			c0,0,0,0.2,0,0.2s-0.1,0.2-0.1,0.2s-2.4,4.9-2.4,4.9c0,0-0.1,0.1-0.1,0.1c0,0-4.9,6.3-4.9,6.3s-0.1-1.2-0.1-1.2l7.9,6.3l0.5,0.4
			l-0.2,0.6l-2.2,7.6c0,0-0.4-1.1-0.4-1.1l5.7,3.3l0.3,0.2c0,0,0.1,0.3,0.1,0.3s2.1,5.4,2.1,5.4l-0.1-0.3l4.1,5.1l-0.7-0.4l6.4,0.1
			c0,0,0.4,0,0.4,0s0.3,0.2,0.3,0.2l4.6,4l-1.1-0.2l7-3.1l0.6-0.3c0.4,0.3,4,3.2,4.4,3.5c0,0,0.1,0.2,0.1,0.2l3.1,6l-0.5-0.5
			c0,0,6.7,3.5,6.7,3.5s0.4,0.2,0.4,0.2s0.1,0.5,0.1,0.5s1.6,5.6,1.6,5.6s-0.2-0.4-0.2-0.4l3.5,4.6c0,0,1.8,2.4,1.8,2.4
			c-1.9-0.4-8-1.7-10-2.1c0,0,1.3-0.8,1.3-0.8l-2.7,8.3c0,0-0.5,1.7-0.5,1.7l-1.3-1.2l-5.9-5.2l0.6,0.3c0,0-4.9-0.7-4.9-0.7
			s0.5,0,0.5,0c-0.3,0.2-5.3,1.7-5.4,1.7c0,0-0.5-0.4-0.5-0.4s-3.3-2.7-3.3-2.7s-0.2-0.1-0.2-0.1s-0.1-0.2-0.1-0.2s-2.7-4.7-2.7-4.7
			l1.4,0.6c-0.6,0.2-8.4,2.5-8.8,2.6c-0.2-0.4-2.7-7.7-2.9-8.4c0,0,2.3,0.2,2.3,0.2s-3.7,6.9-3.7,6.9s0-0.1,0-0.1s-2.1,4.8-2.1,4.8
			s-0.2,0.5-0.2,0.5c-1,0.4-5.2,1.8-6.2,2.1c0,0,0.9-1,0.9-1s-1.1,5.6-1.1,5.6l0-0.1c0,0-0.4,4.1-0.4,4.1s-0.5-1.2-0.5-1.2
			s4.8,3.9,4.8,3.9s-0.9-0.3-0.9-0.3s6.5,0,6.5,0s0.3,0,0.3,0l0.3,0.1c2.3,1.1,6.9,3.5,9.2,4.7C732.7,317.4,734.3,317.9,734.3,317.9
			L734.3,317.9z"/>
	</g>
	<g>
		<path class="st5" d="M64,317.9c-1.1,0.4-2.3,1-3.3,1.3c-1.8,0.7-6.3,1.8-8.3,2.3c0,0-0.4-0.2-0.4-0.2s-5.6-2.2-5.6-2.2l0.7,0.1
			c0,0-5.2,0.8-5.2,0.8l0.6-0.3c0,0-5.9,4.5-5.9,4.5s-0.7,0.5-0.7,0.5l-0.7-0.3l-6-2.8c0,0,0.3,0.1,0.3,0.1s-5.5-1.3-5.5-1.3
			s0.1,0,0.1,0s-5.7-0.9-5.7-0.9s0.9-0.2,0.9-0.2s-7.2,5-7.2,5s-0.8,0.6-0.8,0.6c-0.8-0.7-1.9-1.7-2.7-2.4c0,0,0.5-0.9,0.5-0.9
			s4.2-7.8,4.2-7.8c-0.4,1.1,1.8-5.2,1.7-4.8c0,0,0,0.9,0,0.9s-1.8-4.3-1.8-4.3s-0.5-1.1-0.5-1.1s1.1-0.5,1.1-0.5l4.2-2
			c0,0,0.2-0.1,0.2-0.1c0,0,0.7-0.1,0.8-0.1c0,0-0.7,2-0.7,2l-0.6-0.6c0,0,1.4,0.2,1.4,0.2s-7.9,3.9-7.9,3.9s-1,0.5-1,0.5
			s-0.6-1-0.6-1c-0.4-0.6-1-1.9-1.4-2.4c2.7-1.7,7.8-4.8,10.4-6.6c0,0,3.1-2.1,3.1-2.1s-0.4,0.5-0.4,0.5c1.2-2.6,3.4-7.8,4.5-10.5
			c0,0,0.1-0.1,0.1-0.1l3.8-4.3l0.1-0.1c0,0,0.1-0.1,0.1-0.1s4.2-3.3,4.2-3.3s-0.4,0.9-0.4,0.9s-0.2-7-0.2-7s0-0.5,0-0.5
			s0.4-0.3,0.4-0.3s4.5-3.9,4.5-3.9l-0.2,0.3l2.9-4.9c0,0,0.2-0.4,0.2-0.4s0.4-0.1,0.4-0.1l6.8-1.9l-0.6,0.4l2.8-4.2
			c0,0-0.1,0.3-0.1,0.3l1.3-5.7c-0.1,0.3,0.9-6.2,0.9-6.2c0,0,0-0.1,0-0.1s0.1-0.1,0.1-0.1s2.4-5.2,2.4-5.2
			c-0.1,0.3,1.5-3.8,1.4-3.8c0,0,1.1,1.3,1.1,1.3l-2.1,0.6c0,0-0.3,0.1-0.3,0.1s-0.3-0.1-0.3-0.1l-5.6-2.1c0,0,0.5,0,0.5,0
			s-5.2,0.8-5.2,0.8l0.4-0.2l-5.8,4.4c0,0-0.4,0.3-0.4,0.3s-0.5-0.2-0.5-0.2s-6-2.7-6-2.7l0.2,0.1l-5.5-1.3c0,0,0.1,0,0.1,0
			s-5.6-0.8-5.6-0.8l0.6-0.1c-1.8,1.1-10.8,6.6-12.4,7.6c0.8-1.7,5.9-11.9,6.8-13.8c0,0-0.1,0.1-0.1,0.1s1.7-6.3,1.7-6.3
			s0,0.4,0,0.4s-1.9-5.8-1.9-5.8l-0.3-0.9c0,0,0.9-0.1,0.9-0.1s4.7-0.5,4.7-0.5c0,0,0.1,0,0.2,0c0,0,5.6,0.5,5.6,0.5s0.1,0,0.1,0
			s0.1,0,0.1,0s5.2,1.4,5.2,1.4s-0.6,0.1-0.6,0.1s5.5-4,5.5-4s0.3-0.2,0.3-0.2s0.3,0.1,0.3,0.1s5.7,1.2,5.7,1.2l-0.2,0
			c0,0,5.7-0.5,5.7-0.5s0.3,0,0.3,0s0.2,0.2,0.2,0.2s5.5,4,5.5,4s-0.4-0.1-0.4-0.1l5.1-0.2c0,0-0.2,0-0.2,0s5.4-2.2,5.4-2.2s0,0,0,0
			l5.6-2.7l0.1,0l0.1,0c0,0,5.8-1,5.6-1c0,0,5.9-1.5,5.9-1.5s0.3-0.1,0.3-0.1l0.2,0.2c0,0,5.7,5.7,5.7,5.7l-0.2-0.1c0,0,3.1,1,3.1,1
			s0.3,0.1,0.3,0.1s0.1,0.2,0.1,0.2s1.3,3.4,1.3,3.4l0.1,0.2c0,0-0.1,0.2-0.1,0.2l-2.3,5.3c0,0,0-0.4,0-0.4c0.1,0.2,2.1,4.7,2.2,4.8
			c0,0-0.6,0.2-0.6,0.2s-4.4,1.2-4.4,1.2l0.1,0c0,0-4.7,2.1-4.7,2.1s0.2-0.1,0.2-0.1s-0.9,0.9-0.9,0.9s-0.5-0.8-0.5-0.8l5.1-1.1
			c0,0-0.1,0-0.1,0s3.6-1.8,3.6-1.8l0.3-0.2c0,0,0.2,0.3,0.2,0.3l1,1.3l0.2,0.3c0,0-0.2,0.3-0.2,0.3s-2.1,2.6-2.1,2.6l0.1-0.3l0,6.7
			c0,0,0,0.1,0,0.1s0,0.1,0,0.1l-2.5,5.9c0,0-0.1,0.3-0.1,0.3s-0.3,0-0.3,0l-10.1-0.6c0,0,0.4-0.3,0.4-0.3c-0.9,2.7-2.8,8-3.8,10.6
			c0,0-0.1,0.1-0.1,0.1l-5.1,3.2c0,0,0.1-0.1,0.1-0.1s-2.3,4.6-2.3,4.6s0-0.2,0-0.2l0.4,7.5c0,0,0,0.2,0,0.2l-0.2,0.1l-5.9,3
			c0.3-0.2-4.4,3.6-4.3,3.5c0.2-0.2-4.2,4.1-3.8,3.6c0,0-2.3,5.2-2.3,5.2l0,0.1c0,0,0,0,0,0l-4,3.7c0,0,0.1-0.2,0.1-0.2l-0.1,5.4
			l-0.1-0.2c0,0,5.7,4.2,5.7,4.2l-0.1,0c0,0,5.3-0.2,5.3-0.2c-0.4,0.1,5.6-2.3,5.5-2.2c0,0,5.8-2.8,5.8-2.8c0,0,5.9-1.1,5.9-1
			c0,0,6.2-1.6,6.2-1.6s0.1,0,0.1,0s0.1,0.1,0.1,0.1s5.9,5.9,5.9,5.9l-0.1,0c0,0,3.1,0.8,3.1,0.8s0.1,0,0.1,0s0,0.1,0,0.1
			c0,0,1.5,4.8,1.5,4.8c0,0-2.4,6.6-2.4,6.6c0,0,0-0.1,0-0.1s2.1,5.7,2.1,5.7s0,0.1,0,0.1l-0.1,0c0,0-4.7-0.4-4.7-0.4
			c0.1,0-5.3,0.9-5.3,0.9c0.1,0-5.6,3.9-5.6,3.9c0,0-6.3,1.4-6.4,1.4C69,325.2,64,317.9,64,317.9L64,317.9z M62.7,315.9
			c0.4,0.7,5.8,8.4,6.3,9.2c0,0,6.3-1.4,6.3-1.4c0,0,5.6-3.9,5.6-3.9c0,0,5.3-1,5.3-1c0,0,4.7,0.3,4.7,0.3s-0.1,0.1-0.1,0.1
			c0,0-2.2-5.7-2.2-5.8c0,0,2.3-6.6,2.3-6.6c0,0,0,0.1,0,0.1l-1.6-4.8c0,0,0.1,0.1,0.1,0.1s-3.1-0.8-3.1-0.8l0,0c0,0-6-5.9-6-5.9
			c0,0,0.1,0,0.1,0c0,0-6.2,1.6-6.2,1.6c0,0-5.9,1.1-5.9,1.1c0,0,0,0,0,0c0,0-5.8,2.9-5.8,2.9c0,0-5.6,2.3-5.7,2.3
			c0,0-5.3,0.2-5.4,0.2c0,0-0.1,0-0.1,0s-0.1,0-0.1,0l-5.8-4.2c0,0-0.1-0.1-0.1-0.1s0-0.1,0-0.1s0.1-5.4,0.1-5.4s0-0.1,0-0.1
			l0.1-0.1l4-3.7c0,0-0.1,0.1-0.1,0.1l2.2-5.2c0,0,0-0.1,0.1-0.1c0,0,3.9-3.7,3.9-3.7c0,0,4.3-3.6,4.3-3.6c0,0,0,0,0.1,0
			c0,0,5.9-3.1,5.9-3.1s-0.2,0.3-0.2,0.3l-0.4-7.5c0,0,0-0.1,0-0.1s0-0.1,0-0.1l2.3-4.6c0,0,0-0.1,0-0.1l0.1-0.1l5.1-3.2
			c0,0-0.2,0.2-0.2,0.2c1-2.6,2.9-7.9,3.7-10.5c0,0,0.1-0.3,0.1-0.3s0.3,0,0.3,0s10.1,0.5,10.1,0.5l-0.4,0.3c0,0,2.5-5.9,2.5-5.9
			s0,0.2,0,0.2l0-6.7l0-0.2l0.1-0.1c0,0,2.1-2.6,2.1-2.6l0,0.6l-1-1.3c0,0,0.6,0.1,0.6,0.1s-3.6,1.9-3.6,1.9c0,0-0.1,0-0.1,0
			c-1.3,0.3-5.5,1.2-6.7,1.4c0.4-0.4,1.5-1.7,1.9-2.1c0,0,0.1-0.1,0.1-0.1s0.1,0,0.1,0c0,0,4.7-2.1,4.8-2.1c0,0,4.4-1.3,4.5-1.3
			c0,0-0.3,0.7-0.3,0.7l-1.9-4.2l-0.1-0.2c0,0,0.1-0.2,0.1-0.2s2.3-5.3,2.3-5.3s0,0.4,0,0.4s-1.3-3.4-1.3-3.4s0.4,0.3,0.4,0.3
			s-3.1-1-3.1-1s-0.1,0-0.1,0s-0.1-0.1-0.1-0.1l-5.7-5.7c0,0,0.6,0.2,0.6,0.2s-5.9,1.5-5.9,1.5c0,0,0,0,0,0c0,0-5.6,1-5.6,1
			s0.2-0.1,0.2-0.1s-5.5,2.8-5.5,2.8c0,0,0,0,0,0c0,0-5.3,2.2-5.3,2.2s-0.1,0-0.1,0l-0.1,0c0,0-5.1,0.2-5.1,0.2s-0.2,0-0.2,0
			s-0.2-0.1-0.2-0.1s-5.5-4-5.5-4s0.5,0.1,0.5,0.1s-5.7,0.5-5.7,0.5s-0.1,0-0.1,0s-0.1,0-0.1,0s-5.7-1.2-5.7-1.2l0.6-0.1l-5.5,4
			c0,0-0.3,0.2-0.3,0.2s-0.3-0.1-0.3-0.1l-5.2-1.3c0.6,0.1-5.7-0.5-5.5-0.5c0,0,0.2,0,0.2,0s-4.7,0.5-4.7,0.5s0.6-1,0.6-1l1.9,5.8
			l0.1,0.2c0,0-0.1,0.2-0.1,0.2s-1.7,6.3-1.7,6.3s0,0.1,0,0.1c0,0.1-5.5,11.3-5.5,11.3c0,0-1.2-1.1-1.2-1.1s9.9-6.2,9.9-6.2
			s0.3-0.2,0.3-0.2s0.3,0,0.3,0s5.6,0.8,5.6,0.8c0,0,0.1,0,0.1,0c0,0,5.5,1.3,5.5,1.3l0.1,0l0.1,0l6,2.7c0,0-0.9,0.1-0.9,0.1
			s5.8-4.4,5.8-4.4s0.2-0.1,0.2-0.1l0.2,0c0,0,5.2-0.8,5.2-0.8s0.2,0,0.2,0s0.2,0.1,0.2,0.1l5.6,2.1l-0.6,0c0,0,2.1-0.6,2.1-0.6
			l1.8-0.5c-0.4,1.1-1.7,4.5-2.1,5.6c0,0,0,0.1,0,0.1c0,0-2.4,5.2-2.4,5.2s0.1-0.3,0.1-0.3s-0.9,6.2-0.9,6.2c0,0,0,0.1,0,0.1
			c0,0-1.3,5.7-1.3,5.7s0,0.2,0,0.2l-0.1,0.2l-2.8,4.2l-0.2,0.3c0,0-0.4,0.1-0.4,0.1L42,264l0.6-0.5l-2.9,5c0,0-0.1,0.1-0.1,0.1
			s-0.1,0.1-0.1,0.1l-4.5,3.9l0.4-0.8l0.3,7l0,0.5c0,0-0.4,0.3-0.4,0.3S31,283,31,283s0.1-0.1,0.1-0.1l-3.8,4.3c0,0,0.2-0.3,0.2-0.3
			s-2.1,5.2-2.1,5.2s-2.3,5.1-2.3,5.1l-0.1,0.3c-1.8,1.2-4.6,3.3-6.5,4.4c0,0-6.3,4-6.3,4s0.4-1.6,0.4-1.6s0.8,1.5,0.8,1.5
			s-1.6-0.5-1.6-0.5s7.8-4,7.8-4s0.8-0.4,0.8-0.4c0.8,0.8,2.2,2.2,3,3c0,0-2.4,0.3-2.4,0.3l-0.6,0.1c0,0,0.4-0.1,0.4-0.1
			s-4.2,2-4.2,2s0.6-1.6,0.6-1.6l1.9,4.3l0.2,0.4c0,0-0.2,0.5-0.2,0.5l-1.7,5c0,0,0,0.1,0,0.1s0,0.1,0,0.1s-4.1,7.8-4.1,7.8
			s-0.3-1.5-0.3-1.5l1.2,1.1l-1.6-0.1c0,0,7.2-5,7.2-5s0.4-0.3,0.4-0.3s0.5,0.1,0.5,0.1l5.7,0.8c0,0,0.1,0,0.1,0s0.1,0,0.1,0
			s5.5,1.3,5.5,1.3c0.1,0,0.2,0.1,0.3,0.1c0,0,6,2.8,6,2.8s-1.4,0.2-1.4,0.2l5.8-4.6c0,0,0.3-0.2,0.3-0.2s0.4-0.1,0.4-0.1l5.2-0.8
			c0,0,0.4-0.1,0.4-0.1l0.3,0.1c0,0,5.7,2.1,5.7,2.1s-0.9,0-0.9,0C55.2,317.9,59.6,316.6,62.7,315.9L62.7,315.9z"/>
		<path class="st5" d="M151.6,320.4c-2.1-0.3-6.6-1-8.7-1.4c0,0,0.9-0.2,0.9-0.2s-5.6,3.4-5.6,3.4l-0.2,0.1c0,0-0.2,0-0.2,0
			c-2,0.5-11.1,2.8-12.9,3.3c0.8-1.5,5.4-10.5,6.2-12.2c0,0-0.1,0.2-0.1,0.2l1.7-5.5c0,0,0,0.6,0,0.6c-0.5-2.9-1.6-8.5-2.3-11.4
			c0,0,0-0.2,0-0.2s0-0.2,0-0.2s0.5-5.9,0.5-5.9s0-0.1,0-0.1s0-0.1,0-0.1s1.4-5.4,1.4-5.4s0.2,0.9,0.2,0.9s-4-5.7-4-5.7
			s-0.3-0.4-0.3-0.4l0.1-0.5c0,0,1.3-6,1.3-6s0,0.3,0,0.3l-0.5-5.9l0-0.4l0.2-0.3l4.1-5.7l-0.2,0.6l-0.1-5.3c0,0,0.1,0.3,0.1,0.3
			l-2.2-5.6c0.1,0.3-2.7-5.8-2.7-5.7c0,0-0.1-0.1-0.1-0.1s0-0.1,0-0.1s-1-5.9-1-5.9s0,0.1,0,0.1s-1.5-6.1-1.5-6.1l-0.1-0.5l0.3-0.3
			c0,0,5.7-5.9,5.7-5.9s-0.2,0.3-0.2,0.3l1.8-5.2l0.1,0.6c-0.8-1.5-4.4-8-5.2-9.4c1.4,0.9,7.8,4.5,9.4,5.5c0,0-0.5-0.1-0.5-0.1
			s5.6-1,5.6-1s5.7-0.7,5.7-0.7s-0.1,0-0.1,0s5.6-1.4,5.6-1.4l0.4-0.1c0,0,0.2,0.4,0.2,0.4s3.8,5.7,3.8,5.7s0.1,0.1,0.1,0.1
			s0,0.1,0,0.1l1.3,6.4l0.1,0.4l-0.3,0.2c0,0-7.9,5.7-7.9,5.7l0.2-0.5c0.8,2.8,2.2,8.4,2.9,11.2c0,0,0,0.1,0,0.1l0,0.1l-2.1,5.8
			l0-0.2c0,0,0.8,5.3,0.8,5.3s-0.1-0.2-0.1-0.2s4.3,6,4.3,6s0.1,0.2,0.1,0.2s-0.1,0.2-0.1,0.2s-2.7,6.1-2.7,6.1l0-0.1l-1.3,5.6
			l-0.9,5.6l0-0.1l1.1,5.8c0,0,0,0,0,0s0,0,0,0s-1,5.6-1,5.6l0-0.2l3.6,5.8c0,0,0,0.1,0,0.1s0,0.1,0,0.1c-0.8,3.2-1.9,8.6-2.6,11.4
			c0,0,3.3,5.7,3.3,5.7s0,0,0,0l0,0l0.2,9.7c0,0,0,0.1,0,0.1s-0.1,0-0.1,0S151.6,320.4,151.6,320.4L151.6,320.4z M145,316.5
			c2.3,1.4,10,5.8,12.4,7.2c0,0-0.1,0-0.1,0s-0.3-9.6-0.3-9.6c0.1,0.2-3.4-5.6-3.4-5.6c0.6-3.3,1.7-8.2,2.4-11.6c0,0,0,0.1,0,0.1
			s-3.6-5.8-3.6-5.8s0-0.1,0-0.1l0-0.1l1-5.6c0.1,0.5-1.2-5.8-1.2-5.7c0,0,0-0.1,0-0.1c0,0,0.9-5.7,0.9-5.7l1.2-5.6c0,0,0,0,0-0.1
			c0,0,2.7-6.1,2.7-6.1s0,0.4,0,0.4s-4.4-5.9-4.4-5.9l-0.1-0.1c0,0,0-0.1,0-0.1s-0.8-5.3-0.8-5.3s0-0.1,0-0.1l0-0.1l2-5.8
			c0,0,0,0.3,0,0.3c-0.7-2.8-2.2-8.4-3-11.2c0,0-0.1-0.3-0.1-0.3s0.3-0.2,0.3-0.2l7.8-5.8l-0.2,0.6l-1.4-6.4c0,0,0.1,0.2,0.1,0.2
			s-3.9-5.6-3.9-5.6l0.7,0.3c0,0-5.6,1.4-5.6,1.4c0,0-5.6,0.7-5.6,0.7c0,0-5.5,1.1-5.5,1.1s-0.3,0-0.3,0s-0.2-0.1-0.2-0.1
			s-7.1-4.1-7.1-4.1l1-1c0,0,4,7,4,7l0.2,0.3c0,0.2-1.9,5.5-2,5.7c0,0-0.1,0.1-0.1,0.1s-5.7,6-5.7,6l0.2-0.8c0,0,1.6,6.1,1.6,6.2
			c0,0,1.1,5.9,1.1,5.9c0,0-0.1-0.2-0.1-0.2s2.8,5.8,2.8,5.8c0,0,2.2,5.6,2.2,5.7c0,0,0.1,0.1,0.1,0.1l0,0.2l0.2,5.3l0,0.3
			c0,0-0.2,0.3-0.2,0.3s-4,5.8-4,5.8s0.2-0.7,0.2-0.7l0.5,5.9c0,0,0,0.1,0,0.1s0,0.2,0,0.2s-1.2,6-1.2,6s-0.2-0.8-0.2-0.8
			s4,5.7,4,5.7l0.3,0.4c-0.1,0.4-1.3,5.5-1.5,5.9c0,0,0-0.2,0-0.2l-0.5,5.9l0-0.4c0.7,2.8,1.9,8.6,2.4,11.4c0,0,0.1,0.3,0.1,0.3
			s-0.1,0.3-0.1,0.3s-1.7,5.5-1.7,5.5c0,0-0.1,0.2-0.1,0.2c0,0-4.8,9.7-4.8,9.7s-1.5-1.9-1.5-1.9s10-2.6,10-2.6s-0.4,0.2-0.4,0.2
			s5.5-3.5,5.5-3.5s0.4-0.3,0.4-0.3C143.2,316.3,144.5,316.5,145,316.5L145,316.5z"/>
		<path class="st5" d="M266.6,321.4c-0.5-1.8-1.5-4.9-1.8-6.3c0,0-2-5.5-2-5.5l0.4,0.6c-2.2-2-6.7-5.7-9-7.6c0,0-0.2-0.1-0.2-0.1
			s-0.1-0.2-0.1-0.2s-3.3-5.1-3.3-5.1l-0.1-0.1c0,0,0-0.1,0-0.1s-2.3-5.2-2.3-5.2s0.9,0.8,0.9,0.8l-6.9-2c0,0-0.6-0.2-0.6-0.2
			s-0.3-0.5-0.3-0.5l-2.7-5.6c0,0,0.2,0.3,0.2,0.3l-4.1-4.4c0,0-0.3-0.4-0.3-0.4s0-0.5,0-0.5l-0.3-7.2l0.3,0.8c0,0-3.5-4.1-3.5-4.1
			s0.3,0.3,0.3,0.3s-5.3-3.1-5.3-3.1c0.4,0.2-4.5-2.2-4.5-2.2c0,0,1.5-1.9,1.5-1.9c0.4,0.5,1.9,2.3,2.2,2.8c-0.1,0.3-3,6.2-3.2,6.6
			c0,0,0.1-0.2,0.1-0.2s-1.4,5.4-1.4,5.4l0-0.1l-0.9,5.3l0-0.5c0,0,1.2,5.5,1.2,5.5s0.1,0.2,0.1,0.2l0,0.2l-1,5.3
			c0,0-0.2-0.9-0.2-0.9l3.8,5.6l0.3,0.4l-0.1,0.5l-1.4,5.5c-0.4,1.8-0.8,3.7-1.3,5.5c0,0-0.2-0.9-0.2-0.9l3.5,5.4
			c0,0,0.2,0.3,0.2,0.3c0,1.5,0.2,10.5,0.2,12c0,0-1.7-1.1-1.7-1.1l-9.1-5.7c0,0,0.4,0.1,0.4,0.1s-5.3-0.9-5.3-0.9s0.8-0.2,0.8-0.2
			s-5.6,3.6-5.6,3.6l-0.1,0.1c-1.5,0.4-11.2,3-12.6,3.4c0.6-1.1,5.5-10.5,6.2-11.9c0,0-0.1,0.2-0.1,0.2s1.8-5.5,1.8-5.5s0,0.5,0,0.5
			c-0.5-2.9-1.8-8.5-2.5-11.4c0,0,0-0.2,0-0.2s0-0.2,0-0.2s0.6-6,0.6-6c0,0,0-0.1,0-0.2c0,0,1.4-5.4,1.4-5.4l0.2,0.8l-4.2-5.7
			c0,0-0.2-0.3-0.2-0.3l0.1-0.4l1.3-6l0,0.3c0,0-0.5-5.9-0.5-5.9l0-0.3c0,0,0.2-0.3,0.2-0.3l4.3-5.8l-0.2,0.5c0,0-0.2-5.3-0.2-5.3
			s0.1,0.3,0.1,0.3s-2.3-5.6-2.3-5.6c0.1,0.3-2.8-5.8-2.8-5.7c0,0-0.1-0.1-0.1-0.1s0-0.1,0-0.1s-1.1-5.9-1.1-5.9l0,0.1
			c0,0-1.6-6.2-1.6-6.2s-0.1-0.5-0.1-0.5s0.3-0.3,0.3-0.3s6-5.9,6-5.9l-0.2,0.3c0,0,1.9-5.2,1.9-5.2s0.1,0.7,0.1,0.7
			s-2.5-4.3-2.5-4.3s-0.3-0.5-0.3-0.5l0.4-0.4c0.3-0.3,1.3-1.2,1.7-1.5c0,0,0.5,0.3,0.5,0.3s3.9,2.7,3.9,2.7l-0.6-0.1
			c0,0,4.9-1,4.9-1s4.8-1.3,4.8-1.3s-0.5,0.8-0.5,0.8s-0.1-0.9-0.1-0.9s-0.2-1.2-0.2-1.2c0.2,0.1,7.8,2.4,8.3,2.6c0,0,0.1,0,0.1,0
			s0.1,0.1,0.1,0.1s5.1,4.3,5.1,4.3s0.4,0.3,0.4,0.3s-0.1,0.4-0.1,0.4l-2,6.7l-0.1-0.6c0.2,0.4,0.8,1.3,1,1.7c0,0-0.3,0.4-0.3,0.4
			l-1.6,1.8c0,0-0.1-1-0.1-1c2.4,1.8,7.1,5.3,9.5,7.1c0,0,0.1,0.2,0.1,0.2s1.9,6,1.9,6s-0.2-0.3-0.2-0.3s4,3.8,4,3.8l-0.3-0.1l7.3,2
			c0,0,0.3,0.1,0.3,0.1s0.1,0.3,0.1,0.3l1.6,6.6c-0.2-0.6,2.4,5.3,2.4,5.1c0,0,2.8,5.1,2.8,5.1l-0.1-0.2l4.5,3.9l0.1,0.1
			c0,0,0,0.1,0,0.1s2.7,5.1,2.7,5.1s-0.3-0.3-0.3-0.3l3.1,1.1c0,0-0.7,0.4-0.7,0.4s0.2-1.1,0.2-1.1s0,0.2,0,0.2s-0.5-5.7-0.5-5.7
			s0-0.2,0-0.2l0.1-0.2c0,0,4-5.5,4-5.5s-0.1,0.3-0.1,0.3s-0.2-5.1-0.2-5.1s0,0.2,0,0.2s-2.2-5.4-2.2-5.4c0.1,0.1-2.8-5.6-2.7-5.5
			c0,0,0-0.1,0-0.1l0-0.1c0,0-1-5.8-1-5.6c0,0-1.5-5.9-1.5-5.9s-0.1-0.2-0.1-0.2l0.2-0.2c0,0,5.7-5.7,5.7-5.7s-0.1,0.2-0.1,0.2
			s1.8-5,1.8-5s0,0.3,0,0.3s-2.2-5.5-2.2-5.5s-0.1-0.1-0.1-0.1l0.1-0.1l1.5-3.6c0,0,0.1-0.2,0.1-0.2s0.3,0,0.3,0s3.7,0,3.7,0
			s0,0,0,0s5.7-0.7,5.7-0.7s5.6-0.9,5.6-0.9l-0.1,0c0,0,8.5-3.2,8.5-3.2s0.3-0.1,0.3-0.1s0.1,0.3,0.1,0.3s2.4,9.1,2.4,9.1
			s0.1,0.2,0.1,0.2S291,223,291,223s-7.9,5.7-7.9,5.7s0.1-0.3,0.1-0.3c0.8,2.8,2.2,8.4,2.9,11.3c0,0,0,0.1,0,0.1s-2.1,5.8-2.1,5.8
			s0-0.1,0-0.1l0.8,5.3c-0.2-0.5,4.4,6,4.3,5.9c0,0,0.1,0.1,0.1,0.1s0,0.1,0,0.1c0,0-2.8,6.2-2.7,6.1c0,0-1.3,5.6-1.3,5.6l-0.9,5.6
			l0-0.1c0,0,1.1,5.8,1.1,5.8l0,0l0,0c0,0-1,5.6-1,5.6s0-0.1,0-0.1s3.6,5.8,3.6,5.8l0,0c0,0,0,0.1,0,0.1s-1.3,5.7-1.3,5.7
			c-0.4,1.8-0.8,4.2-1.2,5.7c0,0,3.3,5.6,3.3,5.6c0,0,1.2,6.4,1.2,6.4c0,0,0,0,0,0s0,0,0,0c0,0-5.6,4.7-5.6,4.7c0,0-3.9-1.7-4-1.7
			c0,0,0,0,0,0c0,0-5.3,3.4-5.3,3.4c0,0-4.8,1.6-4.7,1.5c0,0-0.1,1-0.1,1s0,0,0,0c0,0-1.6,0.1-1.7,0.1c0,0,0,0,0,0s0,0,0,0
			s-0.1-0.5-0.1-0.5l0,0c0,0-2.5,0.8-2.5,0.8s0,0,0,0s0,0,0,0S266.6,321.4,266.6,321.4L266.6,321.4z M268,316c-0.4,1.9-1.5,6.1-2,8
			c-0.1,0,2.5-0.8,2.5-0.8c0,0,0,0,0,0s0,0,0,0s0.1,0.5,0.1,0.5c-0.1,0,1.6-0.1,1.6-0.1c0,0,0,0,0,0s0.1-1,0.1-1s0,0,0,0s0,0,0,0
			s4.7-1.5,4.7-1.5c0,0,5.3-3.4,5.3-3.4c0,0,3.9,1.7,4,1.7c0,0-0.1,0-0.1,0s5.6-4.7,5.6-4.7s0,0.1,0,0.1c0,0-1.3-6.5-1.2-6.4
			c0,0-3.3-5.6-3.3-5.6c0.3-1.9,0.8-3.9,1.2-5.8c0,0,1.3-5.7,1.3-5.7s0,0.1,0,0.1s-3.6-5.8-3.6-5.8c0,0,0-0.1,0-0.1c0,0,1-5.6,1-5.6
			s0,0.1,0,0.1c0,0-1.2-5.8-1.2-5.8c0,0,0.9-5.6,0.9-5.7c0,0,1.3-5.6,1.3-5.6c0,0,2.7-6.1,2.7-6.1c0,0,0,0.2,0,0.2l-4.4-6l0,0l0-0.1
			l-0.8-5.3c0,0,0-0.1,0-0.1l0-0.1c0,0,2.1-5.8,2.1-5.8s0,0.1,0,0.1c-0.7-2.8-2.2-8.4-3-11.2c0,0-0.1-0.2-0.1-0.2s0.2-0.1,0.2-0.1
			s7.9-5.8,7.9-5.8s-0.1,0.3-0.1,0.3l-2.4-9.1c0,0,0.4,0.2,0.4,0.2s-8.5,3.3-8.5,3.3c0,0,0,0-0.1,0c0,0-5.6,1-5.6,1
			s-5.7,0.7-5.7,0.7c0,0,0,0,0,0c0,0-3.7,0.1-3.7,0.1s0.3-0.2,0.3-0.2s-1.4,3.6-1.4,3.6s0-0.3,0-0.3s2.2,5.5,2.2,5.5
			s0.1,0.1,0.1,0.1s-0.1,0.1-0.1,0.1s-1.8,5.1-1.8,5.1s0,0.1,0,0.1s-0.1,0.1-0.1,0.1s-5.7,5.7-5.7,5.7s0.1-0.4,0.1-0.4
			c0,0,1.5,5.9,1.5,5.9c0,0,1,5.6,1,5.6c0,0,0-0.1,0-0.1c0,0,2.8,5.6,2.8,5.6c0,0,2.2,5.4,2.2,5.4c0,0,0,0.1,0,0.1s0,0.1,0,0.1
			l0.2,5.1c0,0,0,0.2,0,0.2s-0.1,0.1-0.1,0.1l-4,5.5c0,0,0.1-0.3,0.1-0.3s0.5,5.7,0.5,5.7s0,0.1,0,0.1s0,0.1,0,0.1s-0.2,1.1-0.2,1.1
			s-0.1,0.6-0.1,0.6s-0.6-0.2-0.6-0.2s-3.1-1.1-3.1-1.1l-0.2-0.1l-0.1-0.2l-2.7-5.1c0,0,0.1,0.2,0.1,0.2l-4.6-3.8
			c-0.1,0-0.1-0.1-0.1-0.2c0,0-2.8-5.1-2.8-5.1s-2.5-5.3-2.5-5.3s0-0.1,0-0.1s0-0.1,0-0.1l-1.6-6.6l0.4,0.4c0,0-7.3-1.9-7.3-1.9
			s-0.1,0-0.1,0s-0.1-0.1-0.1-0.1l-4-3.7l-0.1-0.1c0,0-0.1-0.2-0.1-0.2s-1.9-5.9-1.9-5.9s0.2,0.3,0.2,0.3s-4.6-3.5-4.6-3.5
			s-4.7-3.4-4.7-3.4s-0.6-0.4-0.6-0.4s0.5-0.6,0.5-0.6s1.6-1.8,1.6-1.8l-0.1,0.8l-0.8-1.2c0,0-0.2-0.3-0.2-0.3s0.1-0.3,0.1-0.3
			l2-6.7c0,0,0.2,0.7,0.2,0.7l-5.1-4.3c0,0,0.2,0.1,0.2,0.1l-7.2-2.2c0,0,0.9-0.8,0.9-0.8c0.1,0.4,0.2,1.1,0.3,1.5
			c0,0-0.6,0.2-0.6,0.2s-4.9,1.3-4.9,1.3s-4.9,1.1-4.9,1.1s-0.3,0.1-0.3,0.1s-0.3-0.2-0.3-0.2l-3.9-2.7c0,0,0.9-0.1,0.9-0.1
			s-1.2,1.1-1.2,1.1l0.1-0.9c0,0,2.5,4.3,2.5,4.3s0.2,0.3,0.2,0.3c-0.1,0.1-2,5.5-2.1,5.7c0,0-0.1,0.1-0.1,0.1l-6,6
			c0,0,0.2-0.8,0.2-0.8s1.6,6.1,1.6,6.1c0,0,0,0,0,0.1c0,0,1.1,5.9,1.1,5.9s-0.1-0.2-0.1-0.2l2.9,5.8c0,0,0,0,0,0.1
			c0,0,2.3,5.6,2.3,5.6s0.1,0.1,0.1,0.1s0,0.2,0,0.2l0.2,5.3c0,0,0,0.3,0,0.3s-0.2,0.2-0.2,0.2s-4.2,5.8-4.2,5.8l0.2-0.6l0.6,5.9
			c0,0,0,0.1,0,0.1s0,0.1,0,0.1s-1.3,6-1.3,6s-0.2-0.7-0.2-0.7s4.2,5.7,4.2,5.7s0.3,0.4,0.3,0.4s-0.1,0.4-0.1,0.4s-1.4,5.4-1.4,5.4
			s0-0.2,0-0.2s-0.5,6-0.5,6l0-0.3c0.7,2.8,2,8.6,2.5,11.4c0,0,0.1,0.3,0.1,0.3s-0.1,0.2-0.1,0.2l-1.8,5.5c0,0,0,0.1,0,0.1
			s0,0.1,0,0.1s-5.1,9.8-5.1,9.8s-1.2-1.5-1.2-1.5l10.2-2.8c0,0-0.3,0.1-0.3,0.1s5.5-3.7,5.5-3.7s0.3-0.2,0.3-0.2s0.4,0.1,0.4,0.1
			s5.3,0.8,5.3,0.8c0.2,0,0.2,0,0.4,0.1c0,0,9.2,5.6,9.2,5.6l-1.7,1c0,0-0.2-9.6-0.2-9.6l0.2,0.6c0,0-3.5-5.4-3.5-5.4
			s-0.3-0.4-0.3-0.4s0.1-0.5,0.1-0.5c0.6-3.2,1.8-7.9,2.6-11.1c0,0,0.2,0.9,0.2,0.9S218,293,218,293s-0.3-0.4-0.3-0.4
			s0.1-0.5,0.1-0.5s1-5.3,1-5.3s0,0.5,0,0.5l-1.2-5.5c0,0-0.1-0.2-0.1-0.2s0-0.2,0-0.2s0.9-5.3,0.9-5.3c0,0,0-0.1,0-0.1
			c0,0,1.3-5.4,1.3-5.4c0-0.1,0.1-0.2,0.1-0.2c0,0,2.8-5.9,2.8-5.9s0.1,1.3,0.1,1.3l-1.7-2.2c0,0,1.5-1.9,1.5-1.9l4.6,2.2
			c0,0,0,0,0,0c0,0,5.3,3.1,5.3,3.1c0.2,0.1,0.2,0.1,0.3,0.3c0,0,3.5,4.1,3.5,4.1s0.3,0.3,0.3,0.3s0,0.4,0,0.4s0.3,7.2,0.3,7.2
			l-0.3-0.8l4.1,4.4c0,0,0.1,0.1,0.1,0.1l0.1,0.2l2.7,5.6L243,288l6.9,2c0,0,0.6,0.2,0.6,0.2c0.2,0.4,2.3,5.3,2.5,5.8
			c0,0-0.1-0.2-0.1-0.2l3.3,5.1c0,0-0.3-0.3-0.3-0.3c2.5,1.9,7,5.8,9.4,7.8c0,0,0.1,0.3,0.1,0.3s2,5.5,2,5.5
			C267.6,314.8,267.8,315.4,268,316L268,316z"/>
		<path class="st5" d="M374.8,320.4c-2.1-0.3-6.6-1-8.7-1.3c0,0,1-0.2,1-0.2l-5.6,3.5l-0.2,0.1l-0.2,0.1c-2,0.5-11.1,2.9-12.9,3.3
			c0.8-1.5,5.3-10.5,6.3-12.3c0,0-0.1,0.2-0.1,0.2s1.7-5.4,1.7-5.4s0,0.6,0,0.6s-1.1-5.6-1.1-5.6s-1.2-5.6-1.2-5.6s0-0.2,0-0.2
			s0-0.2,0-0.2s0.5-5.9,0.5-5.9s0-0.1,0-0.1s0-0.1,0-0.1l1.4-5.3l0.2,1l-4-5.7l-0.3-0.4c0,0,0.1-0.5,0.1-0.5l1.2-5.9l0,0.3l-0.5-5.8
			c0,0,0-0.4,0-0.4s0.2-0.3,0.2-0.3l4-5.7c0,0-0.2,0.7-0.2,0.7l-0.2-5.2c0,0,0.1,0.4,0.1,0.4l-2.2-5.5c0.1,0.4-2.7-5.7-2.7-5.7
			c0,0-0.1-0.1-0.1-0.1l0-0.1l-1-5.8l0,0.1c0,0-1.4-5.8-1.4-5.8l1.2,0.8l-4.3,0.9l-0.2,0l-0.2,0l-5.7-1c0,0,0.7-0.1,0.7-0.1
			s-5.9,3.6-5.9,3.6l-0.3,0.2c0,0-0.4-0.1-0.4-0.1l-6-1.4c0,0,0.5,0,0.5,0c-1.4,0.5-10.7,3.7-12,4.2c0,0,1.1-2.1,1.1-2.1
			s5-9.4,5-9.4s0,0.1,0,0.1s1.7-4.7,1.7-4.7s0,0.5,0,0.5s-1-4.7-1-4.7l0,0.1c-0.2-0.6-2.6-6.2-2.8-6.9c0.8,0.1,7.1,1.2,8.1,1.3
			c0,0,0.1,0,0.1,0c0,0,5.5,1.4,5.5,1.4s-0.7,0.1-0.7,0.1s5.8-4.1,5.8-4.1s0.3-0.2,0.3-0.2s0.3,0.1,0.3,0.1s6.1,1.3,6.1,1.3l-0.2,0
			l6-0.5c0,0,0.3,0,0.3,0s0.2,0.2,0.2,0.2s3.2,2.3,3.2,2.3s-0.1,0-0.1,0s3.2,1.9,3.2,1.9s-0.4-0.1-0.4-0.1s4.9-0.1,4.9-0.1
			s-0.2,0-0.2,0l5.7-2.2c0,0,0,0,0,0s5.9-2.8,5.9-2.8s0.1,0,0.1,0s0.1,0,0.1,0c0,0,6.1-1.1,5.9-1c0,0,6.2-1.5,6.2-1.5
			s0.3-0.1,0.3-0.1s0.2,0.2,0.2,0.2l6,5.8c0,0-0.2-0.1-0.2-0.1l5.4,1.9c0,0-0.4,0-0.4,0s5.9-2.2,5.9-2.2l0.2-0.1
			c0,0,0.2,0.1,0.2,0.1s4.2,1.8,4.2,1.8s0.4,0.2,0.4,0.2s0,0.4,0,0.4s-0.3,2.6-0.3,2.6s0-0.1,0-0.1s0.7,4.9,0.7,4.9l1,4.9
			c0,0,0-0.1,0-0.1s3.2,8,3.2,8l0.2,0.5c0,0-0.5,0.1-0.5,0.1l-9.2,2.3c0,0-0.3,0.1-0.3,0.1l-0.2-0.2c0,0-5.8-8.1-5.8-8.1
			s0.4,0.2,0.4,0.2c-2.9,0.8-8.6,2.3-11.5,3c0,0-0.1,0-0.1,0l-5.9-2.1c0,0,0.2,0,0.2,0s-5.4,0.8-5.4,0.8l0.1-0.1L375,236
			c0,0,0.1-0.4,0.1-0.4l1.5,5.4c0,0,1.4,5.4,1.4,5.4s0,0.1,0,0.1s0,0.1,0,0.1l-2.1,5.7l0-0.1l0.8,5.2c-0.3-0.5,4.4,5.9,4.3,5.8
			c0,0,0.1,0.1,0.1,0.1s-0.1,0.1-0.1,0.1l-2.7,6c0.1-0.2-1.3,5.5-1.3,5.4c0,0-0.9,5.5-0.9,5.5c0-0.3,1.1,5.7,1.1,5.6c0,0,0,0,0,0
			s0,0,0,0l-1,5.5c0,0,0-0.1,0-0.1s3.6,5.7,3.6,5.7s0,0,0,0s0,0,0,0s-1.3,5.6-1.3,5.6c-0.4,1.8-0.8,4-1.2,5.6c0,0,3.3,5.6,3.3,5.6
			c0,0.1,0.2,9.6,0.2,9.6c0,0-0.1,0-0.1,0L374.8,320.4L374.8,320.4z M368.3,316.5c2.3,1.4,10,5.8,12.4,7.2c-0.1,0.2-0.3-9.6-0.3-9.6
			c0.1,0.1-3.4-5.6-3.3-5.5c0.3-1.9,0.8-3.8,1.2-5.7c0,0,1.3-5.7,1.3-5.7s0,0.1,0,0.1s-3.6-5.7-3.6-5.7s0,0,0,0s0-0.1,0-0.1
			s1-5.5,1-5.5s0,0.1,0,0.1s-1.2-5.7-1.2-5.7c0,0,0,0,0-0.1c0,0,0.9-5.6,0.9-5.6s1.2-5.5,1.2-5.5c0,0,0,0,0,0c0,0,2.7-6,2.7-6
			s0,0.2,0,0.2l-4.4-5.9c0,0,0-0.1,0-0.1s0-0.1,0-0.1s-0.8-5.2-0.8-5.2c0-0.1,0-0.1,0-0.1c0,0,2-5.7,2-5.7s0,0.2,0,0.2
			c-0.7-2.7-2.1-8.1-2.9-10.7c0,0-0.1-0.2-0.1-0.2l0.2-0.1l0.5-0.4c0,0,0.1,0,0.1,0s0.1,0,0.1,0s5.4-0.8,5.4-0.8s0.1,0,0.1,0
			s0.1,0,0.1,0l5.9,2.1c0,0-0.2,0-0.2,0l5.7-1.5l5.7-1.6l0.3-0.1l0.2,0.2c0,0,5.9,8,5.9,8l-0.5-0.2c0,0,9.1-2.3,9.1-2.3
			s-0.3,0.6-0.3,0.6c0,0-3.2-8-3.2-8c0,0,0,0,0,0s-1-4.9-1-4.9s-0.7-4.9-0.7-4.9s0-0.1,0-0.1s0-0.1,0-0.1s0.3-2.6,0.3-2.6
			s0.3,0.6,0.3,0.6s-4.2-1.8-4.2-1.8l0.4,0c0,0-5.9,2.3-5.9,2.3l-0.2,0.1c0,0-0.2-0.1-0.2-0.1s-5.4-1.9-5.4-1.9s-0.1,0-0.1,0
			s-0.1-0.1-0.1-0.1s-6.1-5.8-6.1-5.8s0.6,0.2,0.6,0.2s-6.2,1.6-6.2,1.6s0,0,0,0s0,0,0,0s-6,1.1-6,1.1l0.2-0.1c0,0-5.9,2.8-5.9,2.8
			c0,0,0,0,0,0c0,0-5.7,2.3-5.7,2.3s-0.1,0-0.1,0s-0.1,0-0.1,0s-4.9,0.2-4.9,0.2s-0.2,0-0.2,0s-0.2-0.1-0.2-0.1c0,0-3.2-1.8-3.2-1.8
			c0,0-3.2-2.2-3.3-2.3c0,0,0.5,0.1,0.5,0.1l-6,0.5l-0.1,0c0,0-0.1,0-0.1,0s-6.1-1.2-6.1-1.2s0.6-0.1,0.6-0.1s-5.8,4.1-5.8,4.1
			s-0.3,0.2-0.3,0.2s-0.4-0.1-0.4-0.1s-5.6-1.4-5.6-1.4l0.1,0l-6.6-1c0,0,0.9-1.2,0.9-1.2s2.3,5.4,2.3,5.4l0,0.1l0,0.1
			c0,0,1.1,4.7,1.1,4.7s0.1,0.2,0.1,0.2s-0.1,0.2-0.1,0.2s-1.7,4.7-1.7,4.7c0,0,0,0.1,0,0.1c0,0-4.9,9.4-4.9,9.4s-1.1-1.3-1.1-1.3
			s9.8-3.5,9.8-3.5s0.3-0.1,0.3-0.1s0.3,0.1,0.3,0.1s6,1.4,6,1.4l-0.7,0.1l5.9-3.7c0,0,0.3-0.2,0.3-0.2l0.4,0.1c0,0,5.7,1,5.7,1
			l-0.4,0c0.8-0.2,4.6-0.9,5.3-1.1c0.1,0.4,1.6,6.1,1.7,6.7c0,0,0,0.1,0,0.1c0,0,1,5.8,1,5.8s-0.1-0.3-0.1-0.3l2.8,5.7
			c0,0,0,0.1,0,0.1c0,0,2.2,5.5,2.2,5.5s0.1,0.2,0.1,0.2s0,0.2,0,0.2l0.2,5.2l0,0.4l-0.2,0.3l-4,5.7l0.2-0.8l0.5,5.8l0,0.2
			c0,0,0,0.2,0,0.2l-1.2,5.9c0,0-0.2-0.9-0.2-0.9s4,5.6,4,5.6s0.3,0.5,0.3,0.5c-0.2,0.8-1.3,5.1-1.5,5.9c0,0,0-0.2,0-0.2
			s-0.5,5.9-0.5,5.9l0-0.4c0,0,1.3,5.6,1.3,5.6s1.1,5.6,1.1,5.6s0.1,0.3,0.1,0.3l-0.1,0.3l-1.7,5.4c0,0,0,0.1,0,0.1
			s-0.1,0.1-0.1,0.1l-4.8,9.6c0,0-1.5-1.9-1.5-1.9s10-2.7,10-2.7L360,320c0,0,5.5-3.5,5.5-3.5s0.4-0.3,0.4-0.3s0.5,0.1,0.5,0.1
			L368.3,316.5L368.3,316.5z"/>
		<path class="st5" d="M466.5,320.3c-2.1-0.3-6.6-1-8.7-1.4c0,0,1-0.2,1-0.2s-5.6,3.5-5.6,3.5l-0.2,0.1c0,0-0.2,0.1-0.2,0.1
			c-1.9,0.4-11.3,3-13.1,3.4c0,0,1.4-2.7,1.4-2.7s5-9.7,5-9.7s-0.1,0.2-0.1,0.2s1.7-5.5,1.7-5.5s0,0.7,0,0.7
			c-0.5-2.9-1.7-8.5-2.4-11.3c0,0,0-0.2,0-0.2l0-0.2c0,0,0.5-5.9,0.5-5.9c0-0.1,0-0.2,0-0.2c0,0,1.4-5.4,1.4-5.4l0.2,1.1
			c0,0-4.1-5.7-4.1-5.7l-0.3-0.5c0,0,0.1-0.5,0.1-0.5s1.3-6,1.3-6s0,0.4,0,0.4l-0.5-5.9l0-0.5c0,0,0.3-0.4,0.3-0.4s4.1-5.8,4.1-5.8
			s-0.2,0.8-0.2,0.8s-0.2-5.3-0.2-5.3l0.1,0.4l-2.2-5.6c0.2,0.4-2.8-5.8-2.8-5.7c0,0-0.1-0.1-0.1-0.1l0-0.2c0,0-1-5.9-1-5.9
			c0.1,0.4-1.5-6.1-1.5-6.1c0,0-0.2-0.6-0.2-0.6l0.5-0.5c0,0,5.8-5.9,5.8-5.9s-0.3,0.4-0.3,0.4s1.9-5.2,1.9-5.2s0.1,0.9,0.1,0.9
			c-1.2-2.2-4.9-8.6-6.2-10.8c2.2,1.3,8.5,5.1,10.8,6.5c0,0-0.8-0.1-0.8-0.1c0,0,5.4-1.1,5.5-1.1c0,0,5.8-0.7,5.8-0.7
			c-0.7,0.1,5.6-1.4,5.4-1.4c0,0,0.7-0.2,0.7-0.2s0.4,0.6,0.4,0.6s3.9,5.6,3.9,5.6s0.1,0.2,0.1,0.2c0.1,0.6,1.5,6.9,1.6,7.3
			c0,0-0.5,0.4-0.5,0.4l-8.1,5.7c0,0,0.4-1.1,0.4-1.1c0.8,2.8,2.3,8.4,3,11.2c0,0,0.1,0.3,0.1,0.3s-0.1,0.3-0.1,0.3l-2.1,5.8l0-0.5
			l0.8,5.3c0,0-0.2-0.4-0.2-0.4s1.6,2.2,1.6,2.2s-0.5-0.3-0.5-0.3l1.9,0.5c0,0-0.8,0.1-0.8,0.1l5.8-4.1l0.3-0.2l0.4,0.1
			c0,0,6,1.3,6,1.3l-0.3,0l6-0.5c0,0,0.3,0,0.3,0s0.3,0.2,0.3,0.2s5.8,4.1,5.8,4.1s-0.5-0.2-0.5-0.2s5.4-0.2,5.4-0.2l-0.3,0.1
			l5.7-2.2c-0.2,0.1,5.9-2.8,5.8-2.8c0,0,0.2-0.1,0.2-0.1l0.2,0c0,0,0.2,0,0.2,0s-0.7,1.1-0.7,1.1s-1.3-3.2-1.3-3.2s0,0.1,0,0.1
			s-2.7-5.8-2.7-5.8l0-0.1c0,0,0-0.1,0-0.1s-1-5.9-1-5.9s0,0.1,0,0.1s-1.5-6.1-1.5-6.1l-0.1-0.4c0,0,0.3-0.3,0.3-0.3
			s5.7-5.9,5.7-5.9s-0.2,0.3-0.2,0.3l1.8-5.2c0,0,0.1,0.6,0.1,0.6c-0.9-1.5-4.4-7.9-5.2-9.4c1.5,0.9,7.8,4.5,9.4,5.4
			c0,0-0.5-0.1-0.5-0.1s5.6-1.1,5.6-1.1s5.7-0.7,5.7-0.7c-0.4,0.1,5.6-1.4,5.5-1.4c0,0,0.5-0.1,0.5-0.1s0.3,0.4,0.3,0.4
			s3.9,5.7,3.9,5.7s0.1,0.1,0.1,0.1s0,0.1,0,0.1l1.3,6.4c0,0,0.1,0.4,0.1,0.4s-0.3,0.2-0.3,0.2s-7.9,5.7-7.9,5.7s0.2-0.7,0.2-0.7
			c0.8,2.8,2.2,8.4,2.9,11.2c0,0,0,0.2,0,0.2l-0.1,0.2c0,0-2.1,5.8-2.1,5.8s0-0.3,0-0.3s0.8,5.3,0.8,5.3s-0.1-0.3-0.1-0.3
			s4.4,6,4.4,6l0.2,0.3c0,0-0.1,0.3-0.1,0.3s-2.7,6.1-2.7,6.1s0-0.1,0-0.1s-1.3,5.6-1.3,5.6s-0.9,5.6-0.9,5.6l0-0.2
			c0,0,1.1,5.8,1.1,5.8l0,0.1c0,0,0,0.1,0,0.1l-1,5.6c0,0-0.1-0.4-0.1-0.4s3.6,5.8,3.6,5.8s0.1,0.2,0.1,0.2s0,0.2,0,0.2
			s-1.3,5.7-1.3,5.7c-0.4,1.9-0.8,3.8-1.2,5.8c0,0-0.1-0.3-0.1-0.3s3.3,5.7,3.3,5.7l0.1,0.1c0,0,0,0.1,0,0.1s0.2,9.7,0.2,9.7l0,0.8
			c0,0-0.7-0.4-0.7-0.4s-9.1-5.3-9.1-5.3s0.1,0.1,0.1,0.1s-5.3-0.8-5.3-0.8s0.3-0.1,0.3-0.1s-5.6,3.5-5.6,3.5s0,0,0,0
			c0,0-10.1,2.6-10.1,2.6c0,0-0.8,0.2-0.8,0.2l0.4-0.7c0,0,5-9.8,4.9-9.6c0,0,1.7-5.5,1.7-5.5c0.1,1-1.1-5.8-1.1-5.6
			c0,0-1.3-5.7-1.3-5.7s0,0,0,0c0,0,0.5-5.9,0.5-6c0,0,1.4-5.5,1.4-5.5c0,0,0,0.2,0,0.2l-4-5.7c0,0-0.1-0.1-0.1-0.1l0-0.1l1.2-5.7
			c0,0,0.3,0.3,0.3,0.3c-2.1,0.5-5.2,0.9-7.3,1.1c-1.9,0.2-5.6,0.9-7.2,1.1c0,0-5.8,3.8-5.8,3.8c0,0-6.5,1.4-6.5,1.4
			c0,0-0.1,0-0.1,0s-0.1-0.1-0.1-0.1s-5.7-8.1-5.7-8.1s0.2,0.1,0.2,0.1s-4.5,1.2-4.5,1.2c-1.5,0.4-3,0.8-4.6,1.2
			c0,0,0.1-0.1,0.1-0.1s-0.6,3.6-0.6,3.6l0,0c0,0,1.2,5.8,1.2,5.8c0,0-1,5.6-1,5.6s0-0.1,0-0.1s3.7,5.8,3.7,5.8s0,0,0,0l0,0
			c-0.8,3.2-1.9,8.4-2.6,11.4c0,0,3.4,5.7,3.4,5.7c0,0,0.2,9.7,0.2,9.8C472.5,323.9,466.6,320.3,466.5,320.3L466.5,320.3z
			 M460.1,316.5c2.2,1.3,10.1,6,12.4,7.3c-0.1,0.1-0.3-9.7-0.3-9.7c0,0.1-3.4-5.7-3.4-5.6c0.4-1.9,0.8-3.9,1.2-5.8
			c0,0,1.3-5.7,1.3-5.7l0,0.1l-3.7-5.8c0,0,0,0,0,0s0,0,0,0c0,0,1-5.7,1-5.5c0,0-1.2-5.8-1.2-5.8c0,0,0.6-3.6,0.6-3.6
			c0,0,0-0.1,0-0.1c1.5-0.4,3.1-0.8,4.6-1.2c0,0,4.5-1.3,4.5-1.3s0.1,0,0.1,0s0.1,0.1,0.1,0.1l5.8,8l-0.2-0.1l6.5-1.4
			c0,0-0.1,0-0.1,0l5.8-3.8c0,0,0.1,0,0.1,0c1.2-0.2,4.3-0.7,5.4-1c3-0.4,6.5-0.8,9.4-1.4c0,0-0.1,0.3-0.1,0.3l-1.2,5.7
			c0,0,0-0.2,0-0.2l4,5.7l0.1,0.1c0,0,0,0.1,0,0.1l-1.3,5.4c0.1-0.2-0.5,5.9-0.5,5.9c-0.1-0.4,1.3,5.7,1.3,5.6c0,0,1.1,5.7,1.1,5.7
			s0,0.1,0,0.1s0,0.1,0,0.1s-1.7,5.5-1.7,5.5c0,0.1-4.8,9.7-4.9,9.7c0,0-0.4-0.5-0.4-0.5s10.1-2.6,10.1-2.6l-0.1,0l5.6-3.5
			c0,0,0.1-0.1,0.1-0.1l0.1,0c0,0,5.3,0.8,5.3,0.8s0.1,0,0.1,0s0.1,0,0.1,0s9.1,5.3,9.1,5.3s-0.6,0.4-0.6,0.4s-0.3-9.7-0.3-9.7
			l0.1,0.2l-3.4-5.7l-0.1-0.2l0-0.2c0.6-3.3,1.7-8.2,2.5-11.5c0,0,0.1,0.4,0.1,0.4s-3.6-5.8-3.6-5.8l-0.1-0.2c0,0,0-0.2,0-0.2
			s1-5.6,1-5.6l0,0.2c0,0-1.2-5.8-1.2-5.8c0-0.1,0-0.1,0-0.2c0,0,0.9-5.7,0.9-5.7s1.3-5.6,1.3-5.6s0-0.1,0-0.1l0-0.1l2.7-6.1
			l0.1,0.6c0,0-4.4-6-4.4-6s-0.1-0.1-0.1-0.1l0-0.1l-0.8-5.3c0,0,0-0.1,0-0.1s0.1-0.1,0.1-0.1s2.1-5.8,2.1-5.8s0,0.4,0,0.4
			c-0.7-2.8-2.2-8.4-3-11.2c0,0-0.1-0.4-0.1-0.4s0.4-0.3,0.4-0.3s7.8-5.7,7.8-5.7s-0.3,0.7-0.3,0.7s-1.4-6.4-1.4-6.4l0.1,0.2
			c0,0-3.9-5.6-3.9-5.6s0.7,0.3,0.7,0.3s-5.6,1.4-5.6,1.4c0,0-0.1,0-0.1,0c0,0-5.6,0.7-5.6,0.7s-5.6,1.1-5.6,1.1s-0.3,0.1-0.3,0.1
			s-0.2-0.1-0.2-0.1s-7.1-4.1-7.1-4.1l1-1c0,0,3.9,7,3.9,7s0.2,0.3,0.2,0.3c-0.1,0.2-1.9,5.4-2,5.7c0,0-0.1,0.1-0.1,0.1l-5.7,6
			c0,0,0.2-0.7,0.2-0.7s1.5,6.1,1.5,6.1c0,0,0,0,0,0.1c0,0,1,5.9,1,5.9l-0.1-0.2l2.8,5.8c0.3,0.8,1.4,3.6,1.7,4.4
			c-0.2,0-1.2,0.1-1.4,0.1c0,0,0.3-0.1,0.3-0.1c0,0-5.9,2.8-5.9,2.9c0,0-5.7,2.3-5.7,2.3c0,0-0.1,0.1-0.1,0.1
			c-0.2,0-5.7,0.2-5.8,0.2c0,0-0.2-0.2-0.2-0.2l-5.8-4.1c0,0,0.6,0.2,0.6,0.2l-6,0.5l-0.1,0c0,0-0.1,0-0.1,0s-6-1.2-6-1.2
			s0.7-0.2,0.7-0.2s-5.8,4.1-5.8,4.1l-0.4,0.3l-0.4-0.1c0,0-1.9-0.5-1.9-0.5s-0.3-0.1-0.3-0.1c-0.3-0.3-1.7-2.3-2-2.6
			c0,0,0-0.2,0-0.2s-0.8-5.3-0.8-5.3s0-0.2,0-0.2s0.1-0.2,0.1-0.2s2.1-5.8,2.1-5.8l0,0.6c-0.7-2.8-2.2-8.4-3-11.2
			c0,0-0.2-0.7-0.2-0.7s0.6-0.4,0.6-0.4s8-5.7,8-5.7l-0.4,1c0,0-1.4-6.4-1.4-6.4s0.2,0.4,0.2,0.4s-4-5.6-4-5.6s1.1,0.4,1.1,0.4
			s-5.5,1.4-5.5,1.4s-0.1,0-0.1,0s-0.1,0-0.1,0s-5.8,0.7-5.8,0.7c0.3-0.1-5.4,1.1-5.4,1.1c0,0-0.4,0.1-0.4,0.1s-0.4-0.2-0.4-0.2
			s-7.1-4.2-7.1-4.2l1.5-1.5c0,0,4.1,7.1,4.1,7.1s0.3,0.4,0.3,0.4l-0.2,0.5c0,0-1.8,5.2-1.8,5.2s-0.1,0.2-0.1,0.2s-0.2,0.2-0.2,0.2
			s-5.8,6-5.8,6s0.3-1.1,0.3-1.1c0,0,1.6,6.1,1.6,6.2c0,0,1.1,5.9,1.1,5.9c0,0-0.1-0.3-0.1-0.3s2.8,5.8,2.8,5.8c0,0,0,0.1,0,0.1
			c0,0,2.2,5.6,2.2,5.6c0.1,0.2,0.1,0.2,0.1,0.4c0,0,0.2,5.3,0.2,5.3l0,0.4l-0.2,0.3l-4.1,5.8c0,0,0.2-0.8,0.2-0.8l0.5,5.9
			c0,0.1,0,0.2,0,0.4c0,0-1.2,6-1.2,6s-0.2-1-0.2-1s4.1,5.7,4.1,5.7s0.3,0.5,0.3,0.5c-0.2,0.7-1.3,5.3-1.5,6c0,0,0-0.2,0-0.2
			l-0.5,5.9c0,0,0-0.4,0-0.4c0.7,3,2,8.7,2.5,11.7c0,0-0.1,0.3-0.1,0.3s-1.7,5.5-1.7,5.5s0,0.1,0,0.1s-0.1,0.1-0.1,0.1s-5,9.7-5,9.7
			s-1.6-1.9-1.6-1.9s10.1-2.7,10.1-2.7s-0.4,0.2-0.4,0.2l5.5-3.6c0,0,0.4-0.3,0.4-0.3s0.5,0.1,0.5,0.1L460.1,316.5L460.1,316.5z"/>
		<g>
			<path class="st5" d="M623.3,323.6c-2.1-1-6.3-3.2-8.3-4.3c0,0,0.6,0.2,0.6,0.2l-5.1-0.1c0,0-0.1,0-0.1,0s0,0,0,0l-5.7-0.5
				c0,0-0.3,0-0.3,0s-0.3-0.2-0.3-0.2s-4.6-2.8-4.6-2.8s-0.2-0.1-0.2-0.1s-0.1-0.1-0.1-0.1s-3.3-3.6-3.3-3.6s1,0.4,1,0.4
				s-6.7,0.4-6.7,0.4s-0.7,0-0.7,0s-0.4-0.6-0.4-0.6l-3.3-4.7c0,0,0.2,0.2,0.2,0.2l-4.1-3.7c0,0-0.5-0.4-0.5-0.4s0-0.6,0-0.6
				s0.4-6.7,0.4-6.7l0.2,0.7c0,0-2.4-3.7-2.4-3.7s0.2,0.3,0.2,0.3c-2.7-2.1-6.4-5.3-8.9-7.7c0,0-0.2-0.2-0.2-0.2s-0.1-0.2-0.1-0.2
				c-1.7-3.5-3.7-8.4-5.2-12.1c0,0,0.5-0.5,0.5-0.5l5.8-6c0,0-0.2,0.3-0.2,0.3s2.1-4.6,2.1-4.6s-0.1,0.8-0.1,0.8s-1.6-5.5-1.6-5.5
				s-0.2-0.5-0.2-0.5l0.3-0.4c0,0,3.7-4.5,3.7-4.5s-0.2,0.5-0.2,0.5s0.6-5,0.6-5l0-0.1c0,0,0-0.1,0-0.1c0.7-2.4,2.3-7.2,3.2-9.5
				c0,0-0.1,0.3-0.1,0.3s0-6.6,0-6.6s0-0.3,0-0.3c0.3-0.6,3.5-6.1,3.7-6.5c0,0,0.7,0.2,0.7,0.2l9.4,2.8c0,0-1,0.3-1,0.3l2.6-3.7
				c0,0,0,0,0,0s0,0,0,0s3.8-4.1,3.8-4.1s0.3-0.3,0.3-0.3s0.4,0,0.4,0s5.6-0.1,5.6-0.1s-0.4,0.1-0.4,0.1l4.3-2.4
				c0,0-0.3,0.2-0.3,0.2s4.6-5.9,4.6-5.9s0.3-0.4,0.3-0.4s0.5,0.2,0.5,0.2s6.5,2.1,6.5,2.1l-0.1,0c0,0,5.3,1.1,5.3,1.1
				s5.3,1.2,5.3,1.2l-0.2,0l5.5-0.5l0.2,0c0,0,0.2,0.1,0.2,0.1l4.8,2.2c0,0-0.5,0-0.5,0l6.5-1.8c0,0,0.3-0.1,0.3-0.1l0.3,0.2
				c0,0,4.5,3.8,4.5,3.8s0,0,0,0s0,0,0,0s3.6,3.5,3.6,3.5s-0.4-0.2-0.4-0.2l6.2,0.2c0,0,0.2,0,0.2,0s0.1,0.1,0.1,0.1
				s5.5,3.1,5.5,3.1s0.3,0.2,0.3,0.2s0,0.4,0,0.4l-0.8,8.1l-0.1-0.3l1.9,3.9l-0.3-0.3c0,0,5.6,2.3,5.6,2.3s0,0,0,0s0,0,0,0l5.8,3.7
				c0,0,0.2,0.2,0.2,0.2l0,0.3c0,0-0.4,6.8-0.4,6.8l0,0.1c0,0,0,0.1,0,0.1s-2.1,5.6-2.1,5.6l-0.1-0.5c0,0,5.8,5,5.8,5
				s0.4,0.3,0.4,0.3l-0.4,0.3l-6.3,5.7l0-0.6l5.3,5.3c0,0,0.2,0.2,0.2,0.2s-0.1,0.2-0.1,0.2s-2.1,6-2.1,6s0,0.1,0,0.1
				S681,280,681,280s-4.8,4.4-4.8,4.4s0,0,0,0l-3,4c0,0,0-0.1,0-0.1l-1.3,4.4c0-0.5,0.7,6.2,0.7,6.1c0,0,0,0,0,0s0,0,0,0
				s-0.9,6.5-0.9,6.5s0,0.1,0,0.1s-0.1,0.1-0.1,0.1s-4.9,3.1-4.9,3.1l0.1-0.1c0,0-3.5,4.8-3.5,4.8l-0.1,0.1c0,0-0.1,0-0.1,0l-7.5-1
				l0.1,0l-4.4,1.1c0,0,0.1-0.1,0.1-0.1s-2.5,7.3-2.5,7.3s0,0.1,0,0.1l-0.1,0c0,0-6.6-1.5-6.6-1.5s0.1,0,0.1,0s-4.5,5.9-4.5,5.9
				s0,0.1,0,0.1s-0.1,0-0.1,0s-6.2-3.8-6.2-3.8s0.1,0,0.1,0c0,0-5.5,5.1-5.5,5.1C626.1,326.6,623.3,323.6,623.3,323.6L623.3,323.6z
				 M617.2,317.3c2,2.1,6.9,7.1,9,9.2c-0.2,0.1,5.5-5.2,5.4-5.2c0,0,0,0,0,0s0,0,0,0s6.2,3.8,6.2,3.8l-0.1,0c0,0,4.4-6,4.4-6
				c0.1-0.1,0-0.1,0.1,0c0,0,6.6,1.5,6.6,1.5s-0.2,0.1-0.2,0.1s2.4-7.4,2.4-7.4s0-0.1,0-0.1s0.1,0,0.1,0s4.4-1.1,4.4-1.1l0,0
				c0,0,0,0,0,0s7.5,0.9,7.5,0.9s-0.2,0.1-0.2,0.1s3.4-4.8,3.4-4.8c0,0,0,0,0.1-0.1c0,0,4.9-3.1,4.9-3.1s-0.1,0.2-0.1,0.2
				s0.9-6.5,0.9-6.5s0,0.1,0,0.1l-0.8-6.2c0,0,0-0.1,0-0.1c0,0,1.2-4.4,1.2-4.4s0-0.1,0-0.1s0,0,0,0l3-4c0,0,0,0,0,0l0,0l4.7-4.4
				c0,0-0.1,0.1-0.1,0.1l2-6c0,0,0.1,0.4,0.1,0.4s-5.4-5.3-5.4-5.3l-0.3-0.3c0,0,0.3-0.3,0.3-0.3l6.2-5.7c0,0,0,0.6,0,0.6
				s-5.9-4.9-5.9-4.9l-0.2-0.2l0.1-0.3l2-5.6c0,0,0,0.1,0,0.1s0.3-6.8,0.3-6.8l0.2,0.5c0,0-5.8-3.7-5.8-3.7l0.1,0l-5.6-2.2l-0.2-0.1
				c0,0-0.1-0.2-0.1-0.2s-1.9-3.9-1.9-3.9s-0.1-0.1-0.1-0.1s0-0.2,0-0.2s0.7-8.1,0.7-8.1s0.3,0.6,0.3,0.6l-5.5-3.1
				c0,0,0.3,0.1,0.3,0.1l-6.2-0.1c0,0-0.2,0-0.2,0s-0.2-0.2-0.2-0.2s-3.6-3.4-3.6-3.4c0.2,0.1-4.5-3.7-4.5-3.7c0,0,0.6,0.1,0.6,0.1
				s-6.5,1.8-6.5,1.8s-0.2,0.1-0.2,0.1s-0.2-0.1-0.2-0.1l-4.8-2.2c0,0,0.4,0.1,0.4,0.1s-5.5,0.5-5.5,0.5s-0.1,0-0.1,0s-0.1,0-0.1,0
				s-5.3-1.2-5.3-1.2c0,0-5.3-1.1-5.3-1.1c0,0-6.5-2.1-6.5-2.1c0,0,0.9-0.3,0.9-0.3l-4.6,5.9c-0.1,0.1-0.1,0.1-0.3,0.2
				c0,0-4.3,2.4-4.3,2.4s-0.2,0.1-0.2,0.1s-0.2,0-0.2,0s-5.6,0.2-5.6,0.2s0.6-0.3,0.6-0.3l-3.8,4.2c0,0,0.1-0.1,0.1-0.1
				s-2.6,3.7-2.6,3.7s-0.4,0.5-0.4,0.5s-0.6-0.2-0.6-0.2l-9.5-2.7l1.1-0.4c0,0-3.2,5.7-3.2,5.7s0.1-0.5,0.1-0.5s0,6.6,0,6.6
				s0,0.2,0,0.2s-0.1,0.2-0.1,0.2s-1.7,4.7-1.7,4.7s-1.5,4.8-1.5,4.8c0.1-0.9-0.6,5-0.5,4.8c0,0,0,0.3,0,0.3s-0.2,0.2-0.2,0.2
				s-3.6,4.6-3.6,4.6l0.2-1c0,0,1.6,5.5,1.6,5.5s0.1,0.4,0.1,0.4l-0.2,0.4c0,0-2.1,4.7-2.1,4.7s-0.1,0.2-0.1,0.2l-0.1,0.1l-5.8,6.1
				l0.2-1.2c1.4,3.4,3.4,8,5,11.3c0,0-0.3-0.4-0.3-0.4c1.6,1.4,4.9,4.5,6.5,5.7c0,0,2.3,1.8,2.3,1.8l0.1,0.1c0,0,0.1,0.2,0.1,0.2
				s2.4,3.7,2.4,3.7s0.2,0.3,0.2,0.3s0,0.4,0,0.4s-0.3,6.7-0.3,6.7s-0.4-1-0.4-1s4.2,3.6,4.2,3.6s0.1,0.1,0.1,0.1l0.1,0.1
				c0,0,3.3,4.7,3.3,4.7s-1.1-0.5-1.1-0.5s6.7-0.4,6.7-0.4s0.6,0,0.6,0c0.3,0.4,3.4,3.6,3.8,4.1c0,0-0.3-0.2-0.3-0.2
				s4.7,2.8,4.7,2.8l-0.6-0.2c0,0,5.7,0.5,5.7,0.5c-0.6,0,5.2,0,5,0.1c0,0,0.3,0,0.3,0s0.3,0.2,0.3,0.2S617.2,317.3,617.2,317.3
				L617.2,317.3z"/>
			<path class="st5" d="M617.6,301.6c2.7-2.4,5.4-4.8,8.2-7c0.4,0.3,6.5,5.4,7,5.9c0,0-0.8-0.3-0.8-0.3s5.8,0.4,5.8,0.4l-0.8,0.2
				l4.9-3.4c0,0-0.2,0.2-0.2,0.2l3.8-4.4l0.1-0.1c0,0,0.1,0,0.1,0s4.2-3.7,4.2-3.7s4.1-3.8,4.1-3.8l-0.3,1.1c0,0-1.5-7-1.5-7
				s-0.1-0.4-0.1-0.4s0.1-0.3,0.1-0.3l2.5-5.5c0,0-0.1,0.5-0.1,0.5s-0.1-5.9-0.1-5.9l0-0.3c0,0,0.1-0.2,0.1-0.2l3.7-7.2
				c0,0-0.1,0.7-0.1,0.7s-1.9-6.7-1.9-6.7l0.2,0.4c0,0-4.7-4.7-4.7-4.7s0.2,0.2,0.2,0.2c-3.1-1.6-7.6-4.1-10.6-5.8
				c0,0,0.2,0.1,0.2,0.1l-5.5-1.2c0,0-0.3-0.1-0.3-0.1l-0.2-0.3c0,0-4.3-7.3-4.3-7.3s0.3,0.3,0.3,0.3l-6.1-2.5l0.5,0l-5.8,2.6
				l-0.2,0.1c0,0-0.2,0-0.2,0l-6.4-0.9l0.4-0.1c0,0-5,3.4-5,3.4s0.1,0,0.1,0s-4.1,3.8-4.1,3.8s0.1-0.1,0.1-0.1l-2.9,4.4l0.1-0.3
				c0,0,0.5,6.2,0.5,6.2s0,0.1,0,0.1c0,0-0.9,5.9-0.9,5.9c0,0,0,0.2,0,0.2s-0.2,0.1-0.2,0.1l-9.1,3.9c0,0,0.2-0.4,0.2-0.4
				c0,0,1.1,5.9,1.1,5.7c0,0,2,7,2,7c0,0,0,0.1,0,0.1c0,0-0.3,7.4-0.3,7.4s0-0.1,0-0.1s3.3,5.1,3.3,5.1c-0.6-0.3,7.3,2.3,7.1,2.2
				c0.1,0,0.1,0,0.1,0.1c0,0,2.7,6.1,2.7,5.9c0,0,4.6,4,4.5,3.9C613,299.5,617.6,301.6,617.6,301.6L617.6,301.6z M620.1,302.7
				c-0.7-0.3-6.2-2.7-7.1-3.1c0,0-4.6-3.9-4.6-3.9c0,0-2.7-5.9-2.8-5.9c0,0,0.1,0.1,0.1,0.1s-7.2-2.2-7.2-2.2s-0.1,0-0.1,0
				s0-0.1,0-0.1s-3.3-5.1-3.3-5.1s0-0.1,0-0.1s0-0.1,0-0.1s0.2-7.4,0.2-7.4s0,0.1,0,0.1c0,0-2.1-7-2.1-7c0,0-1.1-5.7-1.1-5.8
				c0,0-0.1-0.3-0.1-0.3s0.2-0.1,0.2-0.1l9.1-4l-0.2,0.3l0.8-5.9c0,0,0,0.1,0,0.1l-0.6-6.2l0-0.2c0,0,0.1-0.1,0.1-0.1
				s2.9-4.4,2.9-4.4s0-0.1,0-0.1s0,0,0,0s4.1-3.8,4.1-3.8s0,0,0,0s0,0,0,0s4.9-3.5,4.9-3.5s0.2-0.1,0.2-0.1s0.2,0,0.2,0
				s6.4,0.8,6.4,0.8l-0.3,0.1l5.7-2.7l0.3-0.1l0.3,0.1c0,0,6.1,2.4,6.1,2.4s0.2,0.1,0.2,0.1s0.1,0.2,0.1,0.2s4.4,7.3,4.4,7.3
				s-0.5-0.3-0.5-0.3s5.6,1.1,5.6,1.1s0.1,0,0.1,0c1.6,0.9,3.8,2.1,5.4,3c0,0,5.3,2.7,5.3,2.7s0.1,0.1,0.1,0.1l0.1,0.1
				c0,0,4.7,4.6,4.7,4.6s0.2,0.2,0.2,0.2s0.1,0.2,0.1,0.2s2,6.7,2,6.7s0.1,0.4,0.1,0.4s-0.2,0.3-0.2,0.3l-3.6,7.3l0.1-0.5l0.2,5.9
				c0,0,0,0.2,0,0.2s-0.1,0.2-0.1,0.2s-2.4,5.5-2.4,5.5s0.1-0.7,0.1-0.7s1.6,7,1.6,7l0.1,0.6l-0.5,0.4l-4,3.8c0,0-4.1,3.7-4.1,3.7
				s0.1-0.1,0.1-0.1s-3.7,4.4-3.7,4.4s-0.1,0.1-0.1,0.1l-0.1,0.1l-4.9,3.5l-0.4,0.3l-0.4,0c0,0-5.8-0.3-5.8-0.3l-0.4,0
				c0,0-0.3-0.3-0.3-0.3l-6.2-5.1c0,0,1.7,0,1.7,0C624.6,299.2,622.3,301,620.1,302.7L620.1,302.7z"/>
		</g>
		<path class="st5" d="M746.5,323.5c-2.1-1-6.4-3.1-8.5-4.2c0,0,0.6,0.1,0.6,0.1s-5.2-0.1-5.2-0.1s-0.1,0-0.1,0l-0.1,0
			c0,0-5.8-0.7-5.8-0.7s-0.3,0-0.3,0l-0.3-0.2c0,0-4.6-3-4.6-3s-0.2-0.1-0.2-0.1l-0.1-0.2c0,0-3.1-3.9-3.1-3.9s1,0.5,1,0.5l-6.7-0.2
			c0,0-0.7,0-0.7,0s-0.4-0.6-0.4-0.6c-0.4-0.5-3.6-5.7-3.9-6.1c0,0,0.6-0.7,0.6-0.7c0.3-0.3,4.2-5,4.3-5.1c0,0,0.5-0.1,0.5-0.1
			s6.7-0.7,6.7-0.7s-0.8,0.4-0.8,0.4s3.3-3.5,3.3-3.5s-0.3,0.4-0.3,0.4l2-5.7c0,0,0.4-1.1,0.4-1.1c0.9,0.3,4.9,1.5,5.8,1.8
			c0,0,4.1,2,4.1,2l-0.3-0.1c0.4,0.1,5.2,1.2,5.5,1.2c0,0,0.2,0.7,0.2,0.7l2.2,7.2l-0.5-0.6c0,0,4.2,2.7,4.2,2.7l-1-0.1
			c0,0,5.2-1.8,5.2-1.8l0.3-0.1l0.3,0.1l6.6,1.7c0,0-0.9,0.1-0.9,0.1s5.8-3.3,5.8-3.3l-0.3,0.3c0,0,3-4.1,3-4.1s-0.2,0.6-0.2,0.6
			s0.3-4.5,0.3-4.5l0.4,0.9l-5.2-4.6l0.3,0.2c0,0-6.9-3-6.9-3l-0.5-0.2l-0.1-0.6l-1.6-9.2l1,0.9c-3.1-0.1-7.7-0.5-10.8-0.7
			c0,0-0.4,0-0.4,0s-0.3-0.2-0.3-0.2l-4.3-4.1c0,0,0.4,0.2,0.4,0.2l-4.7-1.5l0.4,0c0,0-7.5,0.4-7.5,0.4l-0.7,0c0,0-0.2-0.7-0.2-0.7
			s-2.2-5.9-2.2-5.9c-0.7-1.8-1.4-4.3-2-6c0,0,0-0.1,0-0.1s-1-6.1-1-6.1c0.1,0.5-1.7-6.4-1.7-6.3c0,0-0.1-0.2-0.1-0.2
			s0.1-0.2,0.1-0.2l1.5-5.3l0,0.5c0,0-2.1-6.6-2.1-6.6s-0.1-0.5-0.1-0.5s0.3-0.4,0.3-0.4s4.3-5,4.3-5l0.1-0.1l0.1-0.1
			c0,0,4.2-3.3,4.2-3.3s-0.3,0.4-0.3,0.4l2.2-6.2c0,0,0.1-0.2,0.1-0.2l0.2-0.1c0,0,5.3-4.3,5.3-4.3s0.4-0.3,0.4-0.3l0.4,0.2l8.3,3.4
			l-0.3-0.1l5.7-0.1c0,0-0.4,0.1-0.4,0.1s5.9-3.9,5.9-3.9s0,0,0,0s0,0,0,0s5.9-3.3,5.9-3.3s0.4-0.2,0.4-0.2s0.4,0.2,0.4,0.2
			s5.5,3.4,5.5,3.4s0.1,0.1,0.1,0.1s0.1,0.1,0.1,0.1s3.7,4.2,3.7,4.2s-0.8-0.2-0.8-0.2l6.7-2.9l0.7-0.3c0,0,0.2,0.7,0.2,0.7
			s2.6,8.5,2.6,8.5s-0.7-0.5-0.7-0.5l8-1.3l0.4-0.1c0,0,0.2,0.3,0.2,0.3s4.9,7.4,4.9,7.4l0.5,0.7l-0.9,0.2c0,0-7.4,1.7-7.4,1.7
			c0.9-0.4-4.6,2.6-4.4,2.4c0,0,0.2-0.2,0.2-0.2l-3,4c0,0,0.1-0.2,0.1-0.2l-1.3,7.2c0,0-0.1,0.6-0.1,0.6s-0.6-0.2-0.6-0.2l-7.8-2.1
			c-0.2,0-0.2,0-0.2-0.2c0,0-3.7-4.1-3.7-4.1s0.3,0.2,0.3,0.2s-5-0.5-5-0.5s-0.2,0-0.2,0s-0.1-0.1-0.1-0.1l-4.9-5.4
			c0,0,0.3,0.1,0.3,0.1l-4.7-0.8c0,0,0.5-0.3,0.5-0.3l-2.6,6.3c0,0,0,0.1,0,0.1l-0.1,0.1c0,0-5.3,4.2-5.3,4.2l0-0.7
			c0,0,5.3,3.5,5.3,3.5s0.1,0.1,0.1,0.1s0,0.1,0,0.1l4.2,7.5l-0.3-0.2c0.1,0,5,0.1,5.1,0.1c0,0,0,0,0,0s5.3,1.5,5.3,1.5s0.1,0,0.1,0
			l0.1,0.1l3.6,5.8l-0.3-0.2c0,0,5.7-0.5,5.7-0.5c0,0,6.7,0.2,6.7,0.2c0,0,0.1,0,0.1,0s0.1,0,0.1,0l5.9,2.9c0,0,0.1,0,0.1,0
			s0,0.1,0,0.1s2.7,6.4,2.7,6.4l0-0.1c0,0,3.7,5.2,3.7,5.2s0.1,0.1,0.1,0.1s-0.1,0.1-0.1,0.1s-3.2,7.9-3.2,7.9s0-0.2,0-0.2l4.3,6.2
			l0.1,0.1l0,0.1l-1.3,5.8c0,0,0,0.1,0,0.1s0,0,0,0s-3.8,3.7-3.8,3.7s0-0.2,0-0.2l5.4,8.6l0.1,0.2c0,0-0.3,0-0.3,0l-8.9,0.8
			c0,0,0.1-0.1,0.1-0.1l0.2,7.8c0,0,0,0.1,0,0.1s-0.1,0-0.1,0s-7.2,1.9-7.2,1.9c0.2-0.1-5.6,4.4-5.6,4.4c0,0,0,0,0,0l0,0
			c0,0-7.7-3.4-7.5-3.3c0,0-5.4,1.2-5.4,1.2c0.1,0-6.5,5.3-6.5,5.3C749.3,326.3,746.5,323.5,746.5,323.5L746.5,323.5z M740.2,317.3
			c2,2,7.1,6.9,9.1,8.9c0,0,6.5-5.3,6.5-5.3c0,0,5.4-1.3,5.4-1.3c0,0,7.5,3.3,7.6,3.3c0,0-0.1,0-0.1,0c0,0,5.6-4.4,5.6-4.4
			c0,0,7.2-2,7.2-2c0,0-0.1,0.1-0.1,0.1s-0.2-7.8-0.2-7.8s0-0.1,0-0.1s0.1,0,0.1,0s8.9-0.9,8.9-0.9s-0.1,0.2-0.1,0.2
			s-5.4-8.6-5.4-8.6l-0.1-0.1c0,0,0.1-0.1,0.1-0.1s3.8-3.7,3.8-3.7c-0.2,0.6,1.3-5.8,1.3-5.7c0,0,0,0.2,0,0.2l-4.4-6.2
			c0,0-0.1-0.1-0.1-0.1l0-0.1l3.1-8l0,0.2l-3.7-5.2c0,0,0,0,0-0.1c0,0-2.7-6.4-2.7-6.4s0.1,0.2,0.1,0.2l-5.9-2.8
			c0.7,0.1-6.8-0.1-6.6-0.1c0.2,0-5.7,0.5-5.6,0.5c0,0-0.2,0-0.2,0l-0.1-0.2c0,0-3.6-5.8-3.6-5.8s0.2,0.2,0.2,0.2
			c0.1,0-5.7-1.6-5.2-1.5c0,0-5-0.1-5-0.1l-0.2,0l-0.1-0.2l-4.2-7.4c0,0,0.1,0.1,0.1,0.1l-5.3-3.5c0,0-0.5-0.3-0.5-0.3l0.5-0.4
			c0,0,5.3-4.2,5.3-4.2l-0.1,0.2c0,0,2.6-6.3,2.6-6.3l0.1-0.3l0.4,0.1c0,0,4.7,0.7,4.7,0.7l0.2,0c0,0,0.1,0.1,0.1,0.1
			s4.9,5.4,4.9,5.4s-0.3-0.2-0.3-0.2s5,0.5,5,0.5s0.2,0,0.2,0s0.1,0.1,0.1,0.1s3.8,4,3.8,4S767,243,767,243l7.8,2.1
			c0,0-0.7,0.4-0.7,0.4l1.3-7.2c0,0,0-0.1,0-0.1s0.1-0.1,0.1-0.1s2.9-4,2.9-4s0.1-0.1,0.1-0.1s0.1-0.1,0.1-0.1l4.5-2.5
			c0,0,0.1,0,0.1,0s0.1,0,0.1,0s7.4-1.7,7.4-1.7l-0.4,0.9c0,0-5-7.4-5-7.4l0.6,0.3l-8,1.3c0,0-0.6,0.1-0.6,0.1s-0.2-0.5-0.2-0.5
			s-2.6-8.5-2.6-8.5s0.9,0.4,0.9,0.4l-6.7,2.9c0,0-0.5,0.2-0.5,0.2s-0.3-0.4-0.3-0.4l-3.7-4.2c0,0,0.2,0.1,0.2,0.1s-5.5-3.3-5.5-3.3
			s0.7,0,0.7,0l-5.9,3.3c0,0,0,0,0,0s-5.9,3.9-5.9,3.9l-0.2,0.1l-0.2,0c0,0-5.7,0.2-5.7,0.2s-0.2,0-0.2,0s-0.2-0.1-0.2-0.1
			s-8.3-3.4-8.3-3.4s0.8-0.1,0.8-0.1s-5.3,4.3-5.3,4.3s0.3-0.4,0.3-0.4s-2.2,6.2-2.2,6.2s-0.1,0.2-0.1,0.2s-0.2,0.2-0.2,0.2
			l-4.2,3.3l0.1-0.1c0,0-4.2,5-4.2,5s0.2-0.8,0.2-0.8s2.2,6.6,2.2,6.6l0.1,0.3c0,0-0.1,0.3-0.1,0.3l-1.4,5.3c0,0,0-0.5,0-0.5
			s1.8,6.4,1.8,6.4s0,0,0,0s0,0.1,0,0.1l1,6.1c0.8,2.6,3,8.5,4.2,11.6c0,0-1-0.6-1-0.6l7.5-0.4c0,0,0.2,0,0.2,0l0.2,0.1
			c0,0,4.7,1.5,4.7,1.5c0.2,0.1,0.2,0.1,0.4,0.2c0,0,4.3,4.1,4.3,4.1s-0.6-0.3-0.6-0.3c3.5,0.3,8.1,0.6,11.6,0.7
			c0,0,0.1,0.8,0.1,0.8l1.6,9.2l-0.6-0.8l6.9,2.9c0,0,0.2,0.1,0.2,0.1s0.1,0.1,0.1,0.1l5.3,4.5c0,0,0.4,0.4,0.4,0.4
			c0,0.4-0.2,4.5-0.3,5.1c0,0,0,0.3,0,0.3s-0.2,0.3-0.2,0.3l-3,4.1c0,0-0.1,0.2-0.1,0.2c-0.3,0.2-6.2,3.6-6.4,3.7
			c0,0-0.5-0.1-0.5-0.1l-6.6-1.7l0.7,0c-0.2,0.1-5.7,2-5.8,2.1c0,0-0.5-0.3-0.5-0.3s-4.2-2.7-4.2-2.7s-0.4-0.2-0.4-0.2
			s-0.1-0.4-0.1-0.4l-2.3-7.2c0,0,0.9,0.8,0.9,0.8s-4.8-1.1-4.8-1.1l-0.1,0l-0.1-0.1c0,0-4.1-2-4.1-2s0.2,0.1,0.2,0.1l-4.5-1.4
			l1.6-0.8l-2,5.7l-0.1,0.3c0,0-0.2,0.2-0.2,0.2l-3.3,3.5c0,0-0.3,0.3-0.3,0.3s-0.5,0.1-0.5,0.1l-6.7,0.8c0,0,0.9-0.5,0.9-0.5
			s-3.9,4.7-3.9,4.7l0.1-1.5l3.4,5.3l-1.1-0.6c0,0,6.7,0.2,6.7,0.2s0.6,0,0.6,0l0.4,0.5l3.2,3.8c0,0-0.3-0.3-0.3-0.3s4.6,3,4.6,3
			l-0.6-0.2l5.8,0.7c-0.7,0,5.2,0.1,5.1,0.1c0,0,0.3,0,0.3,0s0.3,0.1,0.3,0.1S740.2,317.3,740.2,317.3L740.2,317.3z"/>
	</g>
</g>
<g class="st1">
	
		<radialGradient id="SVGID_00000044884048799426228820000004163183076978788768_" cx="414.6602" cy="365.5362" r="88.9612" gradientTransform="matrix(3.3418 0 0 1 -985.6992 -1.5875)" gradientUnits="userSpaceOnUse">
		<stop  offset="3.608497e-07" style="stop-color:#B3B3B3"/>
		<stop  offset="0.1855" style="stop-color:#7F7F7F"/>
		<stop  offset="0.374" style="stop-color:#525252"/>
		<stop  offset="0.5552" style="stop-color:#2E2E2E"/>
		<stop  offset="0.7246" style="stop-color:#151515"/>
		<stop  offset="0.8777" style="stop-color:#050505"/>
		<stop  offset="1" style="stop-color:#000000"/>
	</radialGradient>
	
		<ellipse style="display:inline;fill:url(#SVGID_00000044884048799426228820000004163183076978788768_);" cx="400" cy="363.9" rx="325.7" ry="97.4"/>
</g>
<g class="st1">
	
		<radialGradient id="SVGID_00000150800714912652556400000010775986295082374077_" cx="647.7835" cy="325.2949" r="105.6622" gradientUnits="userSpaceOnUse">
		<stop  offset="3.608497e-07" style="stop-color:#B3B3B3"/>
		<stop  offset="0.1855" style="stop-color:#7F7F7F"/>
		<stop  offset="0.374" style="stop-color:#525252"/>
		<stop  offset="0.5552" style="stop-color:#2E2E2E"/>
		<stop  offset="0.7246" style="stop-color:#151515"/>
		<stop  offset="0.8777" style="stop-color:#050505"/>
		<stop  offset="1" style="stop-color:#000000"/>
	</radialGradient>
	
		<circle style="display:inline;fill:url(#SVGID_00000150800714912652556400000010775986295082374077_);" cx="647.8" cy="325.3" r="115.7"/>
</g>
<g class="st1">
	
		<radialGradient id="SVGID_00000026849856822861156060000004333244122585487799_" cx="179.4755" cy="290.0893" r="105.6622" gradientUnits="userSpaceOnUse">
		<stop  offset="3.608497e-07" style="stop-color:#B3B3B3"/>
		<stop  offset="0.1855" style="stop-color:#7F7F7F"/>
		<stop  offset="0.374" style="stop-color:#525252"/>
		<stop  offset="0.5552" style="stop-color:#2E2E2E"/>
		<stop  offset="0.7246" style="stop-color:#151515"/>
		<stop  offset="0.8777" style="stop-color:#050505"/>
		<stop  offset="1" style="stop-color:#000000"/>
	</radialGradient>
	
		<circle style="display:inline;fill:url(#SVGID_00000026849856822861156060000004333244122585487799_);" cx="179.5" cy="290.1" r="115.7"/>
</g>
</svg>
