<?xml version="1.0" standalone="no"?>
<!DOCTYPE svg PUBLIC "-//W3C//DTD SVG 20010904//EN"
 "http://www.w3.org/TR/2001/REC-SVG-20010904/DTD/svg10.dtd">
<svg version="1.0" xmlns="http://www.w3.org/2000/svg"
 width="1599.000000pt" height="899.000000pt" viewBox="0 0 1599.000000 899.000000"
 preserveAspectRatio="xMidYMid meet">

<g transform="translate(0.000000,899.000000) scale(0.100000,-0.100000)"
fill="#000000" stroke="none">
<path d="M0 4495 l0 -4495 7995 0 7995 0 0 4495 0 4495 -7995 0 -7995 0 0
-4495z m4070 245 c0 -5 -4 -10 -10 -10 -5 0 -10 5 -10 10 0 6 5 10 10 10 6 0
10 -4 10 -10z m102 -42 c-4 -18 -2 -19 16 -9 28 15 55 14 46 -1 -5 -10 -4 -10
5 -2 14 13 67 9 121 -9 20 -6 81 -10 142 -9 66 2 109 -1 113 -8 3 -6 11 -8 16
-5 5 4 9 -3 9 -14 0 -11 -4 -23 -10 -26 -5 -3 -10 -28 -10 -55 0 -36 -5 -54
-19 -67 -11 -10 -31 -42 -46 -71 -15 -30 -29 -51 -32 -49 -2 3 2 18 10 34 8
15 18 43 22 62 4 18 18 55 31 81 13 26 24 57 24 69 0 20 -5 21 -87 21 -154 1
-210 5 -226 18 -13 11 -19 11 -37 0 -18 -11 -23 -11 -33 2 -7 8 -25 16 -42 16
-59 3 -145 17 -145 23 0 4 12 8 28 9 15 1 41 6 57 11 39 11 54 4 47 -21z
m2675 -24 c16 -23 8 -50 -28 -91 -15 -18 -30 -47 -33 -65 -25 -174 -44 -225
-39 -105 4 76 19 142 39 167 6 8 15 25 18 38 8 24 -1 26 -86 22 -20 -1 -48 6
-63 16 -24 16 -27 16 -44 0 -13 -12 -32 -16 -58 -14 -50 4 -49 20 2 24 22 1
55 5 74 7 19 3 45 1 58 -4 28 -10 73 5 73 25 0 19 70 3 87 -20z m-1167 14 c0
-4 7 -5 15 -2 9 4 15 0 15 -10 0 -9 8 -16 21 -16 12 0 17 -4 14 -11 -4 -6 -14
-8 -22 -4 -22 8 -83 -5 -83 -18 0 -5 8 -16 17 -23 10 -7 18 -27 19 -46 2 -48
39 -141 62 -156 20 -13 20 -14 -3 -81 -12 -37 -29 -77 -36 -90 -12 -18 -12
-23 0 -30 11 -7 13 -23 8 -70 -4 -34 -12 -71 -17 -82 -6 -11 -7 -25 -3 -32 4
-6 6 -22 5 -34 -2 -11 2 -24 7 -28 7 -4 8 -12 2 -23 -8 -16 -3 -41 38 -173 6
-19 3 -39 -12 -70 -11 -24 -21 -55 -22 -69 -2 -27 -8 -45 -31 -99 -19 -43 -30
-33 -14 14 6 20 13 46 15 58 7 58 25 110 40 121 13 10 15 17 7 32 -19 35 -40
122 -41 172 -1 14 -5 21 -12 16 -8 -4 -9 3 -4 26 4 18 9 49 11 69 2 20 6 65
10 101 6 60 4 67 -20 93 -26 28 -26 63 0 53 8 -3 14 -1 14 4 0 4 12 22 26 39
18 21 21 31 11 31 -18 0 -37 42 -37 84 0 19 -16 63 -36 102 -28 54 -34 75 -29
102 4 23 3 32 -4 27 -6 -3 -11 -2 -11 4 0 5 8 14 17 19 19 11 63 11 63 0z
m4830 -10 c-14 -5 -39 -7 -55 -5 -17 3 -48 -1 -70 -9 -35 -12 -42 -11 -55 3
-14 14 -12 15 13 11 15 -3 29 -2 32 2 2 4 21 7 41 8 20 1 38 3 40 5 2 2 20 1
41 -1 36 -5 37 -5 13 -14z m70 -11 c0 -18 -2 -19 -10 -7 -13 20 -13 43 0 35 6
-3 10 -16 10 -28z m-1027 -9 c4 -27 0 -38 -20 -56 -42 -39 -55 -113 -48 -281
5 -140 7 -147 30 -164 30 -23 33 -57 6 -57 -11 0 -23 -4 -26 -10 -3 -5 -16
-10 -28 -9 -15 0 -17 2 -7 6 33 13 53 63 26 63 -21 0 -23 17 -25 189 -2 160
12 245 46 284 15 16 12 17 -53 18 -38 1 -73 0 -79 -2 -5 -1 -31 -2 -57 -2 -27
1 -48 -3 -48 -8 0 -5 -6 -9 -14 -9 -8 0 -17 -6 -20 -12 -5 -10 -7 -10 -12 0
-10 21 -24 13 -24 -12 0 -14 -4 -28 -10 -31 -5 -3 -10 2 -10 12 0 9 -12 27
-27 39 -27 21 -27 21 -6 33 17 8 28 8 48 -1 21 -9 28 -9 34 0 4 7 33 12 72 12
175 1 229 5 229 18 0 26 18 10 23 -20z m2066 3 c-15 -5 -22 6 -14 19 6 9 10 9
16 -1 5 -8 4 -15 -2 -18z m301 4 c-7 -8 -17 -15 -23 -15 -5 0 -2 9 8 20 21 23
35 19 15 -5z m-5418 8 c-7 -2 -25 -18 -41 -34 -21 -20 -28 -35 -24 -50 l6 -22
-22 22 c-18 18 -20 25 -10 37 6 8 17 14 24 14 6 0 20 9 30 20 10 11 25 20 34
19 11 0 12 -2 3 -6z m3773 -3 c3 -5 1 -10 -4 -10 -6 0 -11 5 -11 10 0 6 2 10
4 10 3 0 8 -4 11 -10z m1595 -6 c5 -5 -25 -8 -68 -8 -95 2 -107 4 -62 15 42 9
118 5 130 -7z m201 -15 c16 -17 27 -35 24 -39 -5 -9 -77 24 -114 52 l-24 18
43 0 c34 0 47 -6 71 -31z m-7911 12 c0 -5 -7 -11 -15 -15 -9 -3 -15 0 -15 9 0
8 7 15 15 15 8 0 15 -4 15 -9z m-323 -14 c6 -4 14 -3 18 3 3 6 48 10 103 10
62 0 93 -3 86 -10 -5 -5 -65 -10 -132 -11 -118 -1 -124 -3 -139 -25 -8 -13
-23 -24 -33 -24 -11 0 -24 -14 -33 -37 -9 -21 -16 -30 -16 -20 -1 9 -8 17 -16
17 -8 0 -15 4 -15 9 0 5 7 14 15 21 8 7 15 10 15 6 0 -3 9 2 20 11 11 10 20
25 20 34 0 8 3 18 6 22 8 8 86 3 101 -6z m1489 2 c3 -6 -5 -22 -20 -35 -14
-14 -26 -30 -26 -36 0 -6 -2 -9 -5 -6 -10 10 18 58 34 58 31 0 -5 19 -44 23
l-40 4 47 1 c26 1 50 -3 54 -9z m584 1 c12 -8 12 -10 -5 -10 -11 0 -27 5 -35
10 -12 8 -12 10 5 10 11 0 27 -5 35 -10z m2097 -10 c29 -15 33 -20 16 -20 -11
0 -31 9 -44 20 -31 25 -19 25 28 0z m83 10 c0 -5 -7 -10 -15 -10 -8 0 -15 5
-15 10 0 6 7 10 15 10 8 0 15 -4 15 -10z m670 -10 c0 -5 -9 -6 -20 -3 -11 3
-20 9 -20 13 0 5 9 6 20 3 11 -3 20 -9 20 -13z m1983 -15 c31 -10 57 -22 57
-26 0 -5 7 -9 16 -9 9 0 24 -10 34 -22 10 -13 28 -24 39 -24 46 -3 51 -4 51
-14 0 -5 -17 -10 -37 -10 -30 0 -47 8 -81 40 -24 22 -49 40 -56 40 -32 0 -106
33 -106 47 0 11 4 13 13 6 6 -6 38 -18 70 -28z m-518 16 c-6 -5 -21 -12 -35
-16 -24 -7 -24 -7 -5 9 21 16 56 23 40 7z m375 -16 c0 -2 -7 -5 -15 -9 -9 -3
-15 0 -15 9 0 9 6 12 15 9 8 -4 15 -7 15 -9z m-1760 -5 c0 -5 -5 -10 -11 -10
-5 0 -7 5 -4 10 3 6 8 10 11 10 2 0 4 -4 4 -10z m3310 -5 c0 -8 -4 -15 -9 -15
-13 0 -22 16 -14 24 11 11 23 6 23 -9z m-2006 -19 c-10 -8 -21 -12 -24 -9 -3
2 4 11 14 19 11 7 22 12 25 9 2 -3 -4 -12 -15 -19z m1440 9 c-4 -8 -8 -15 -10
-15 -2 0 -4 7 -4 15 0 8 4 15 10 15 5 0 7 -7 4 -15z m636 -20 c0 -13 -3 -32
-7 -42 -6 -14 -9 -10 -13 17 -4 26 -10 34 -23 32 -9 -2 -17 2 -17 7 0 10 39
20 53 13 4 -2 7 -14 7 -27z m-1655 15 c3 -5 1 -10 -4 -10 -6 0 -11 5 -11 10 0
6 2 10 4 10 3 0 8 -4 11 -10z m-5645 -30 c0 -5 -5 -10 -11 -10 -5 0 -7 5 -4
10 3 6 8 10 11 10 2 0 4 -4 4 -10z m1100 0 c0 -5 -4 -10 -10 -10 -5 0 -10 5
-10 10 0 6 5 10 10 10 6 0 10 -4 10 -10z m1110 0 c0 -5 -9 -34 -21 -64 -11
-31 -18 -59 -15 -64 3 -5 0 -27 -6 -50 -8 -34 -14 -41 -33 -40 l-22 2 23 51
c13 27 24 58 24 67 0 37 25 108 37 108 7 0 13 -4 13 -10z m-630 -21 c7 -11 9
-28 5 -37 -5 -13 -9 -10 -20 12 -8 16 -15 32 -15 37 0 17 19 9 30 -12z m3530
2 c0 -20 -55 -89 -64 -80 -3 3 8 20 24 38 17 18 30 39 30 47 0 8 2 14 5 14 3
0 5 -8 5 -19z m1471 -8 c-8 -15 -10 -15 -11 -2 0 17 10 32 18 25 2 -3 -1 -13
-7 -23z m-6541 -2 c13 -25 13 -102 0 -136 -7 -18 -6 -31 2 -44 6 -10 8 -27 4
-37 -6 -16 -8 -15 -21 9 -11 21 -11 34 -3 58 12 34 3 130 -14 140 -12 7 -2 29
12 29 5 0 14 -9 20 -19z m285 -35 c-11 -23 -16 -49 -12 -70 5 -32 -6 -67 -15
-50 -13 22 24 175 38 161 3 -3 -2 -22 -11 -41z m2869 36 c2 -4 1 -14 -3 -21
-6 -9 -10 -7 -14 8 -5 20 7 29 17 13z m-839 -11 c-15 -14 -55 -23 -55 -13 0
15 12 22 39 22 15 0 21 -4 16 -9z m1451 -69 c-11 -10 -14 3 -7 38 l6 35 3 -33
c2 -19 1 -36 -2 -40z m488 -9 c-10 -34 -19 -51 -22 -40 -2 10 1 23 6 30 5 7
13 27 17 45 4 18 9 31 12 28 3 -2 -3 -31 -13 -63z m-1904 47 c0 -5 -2 -10 -4
-10 -3 0 -8 5 -11 10 -3 6 -1 10 4 10 6 0 11 -4 11 -10z m3627 -22 c-3 -7 -5
-2 -5 12 0 14 2 19 5 13 2 -7 2 -19 0 -25z m547 0 c-1 -25 -5 -32 -18 -30 -9
2 -26 -7 -36 -20 -24 -29 -25 -21 -3 23 15 31 40 58 53 59 3 0 4 -15 4 -32z
m316 22 c0 -5 -2 -10 -4 -10 -3 0 -8 5 -11 10 -3 6 -1 10 4 10 6 0 11 -4 11
-10z m-4585 -20 c-20 -23 -29 -21 -19 4 3 9 13 16 22 16 13 0 12 -3 -3 -20z
m142 14 c-3 -3 -12 -4 -19 -1 -8 3 -5 6 6 6 11 1 17 -2 13 -5z m4638 -24 c-5
-9 7 -14 27 -11 4 0 10 -8 13 -19 3 -10 14 -21 23 -23 15 -4 15 -5 1 -11 -10
-4 -31 2 -54 19 -23 15 -46 23 -57 20 -10 -4 -23 -3 -30 1 -7 5 6 12 33 19 24
7 45 13 47 14 2 0 0 -3 -3 -9z m239 -61 c1 -35 -3 -53 -12 -57 -10 -3 -12 4
-7 32 6 27 4 37 -8 42 -13 5 -14 10 -5 30 16 35 30 15 32 -47z m-494 54 c-1
-10 -50 -46 -50 -37 0 11 32 44 42 44 4 0 8 -3 8 -7z m-7693 -9 c-3 -3 -12 -4
-19 -1 -8 3 -5 6 6 6 11 1 17 -2 13 -5z m3365 -8 c13 -19 9 -22 -27 -23 -38
-1 -38 -1 -30 19 6 16 47 19 57 4z m3584 -18 c43 -47 84 -111 84 -132 0 -9 5
-26 10 -36 11 -21 3 -70 -11 -70 -5 0 -9 10 -9 23 0 55 -70 194 -110 219 -23
15 -26 28 -7 28 7 0 27 -15 43 -32z m-4482 -28 c-5 -30 -3 -41 9 -46 10 -3 15
-18 14 -42 -1 -20 2 -49 7 -63 7 -23 4 -27 -18 -31 -20 -4 -26 -1 -26 13 0 11
5 19 10 19 6 0 10 7 10 15 0 8 -4 24 -10 35 -5 11 -14 29 -20 40 -6 13 -6 21
1 26 6 3 10 20 9 38 -3 43 -1 48 10 41 6 -4 7 -23 4 -45z m1296 35 c0 -9 -9
-15 -24 -15 -26 0 -36 -21 -36 -76 0 -17 -8 -38 -17 -45 -15 -13 -16 -11 -9
11 4 14 12 48 18 77 10 44 16 53 37 56 15 2 27 5 29 6 1 0 2 -6 2 -14z m73 -7
c7 6 36 8 67 5 30 -3 74 -6 96 -6 44 -2 48 -13 13 -35 -18 -11 -24 -11 -40 4
-14 13 -39 18 -92 19 -89 3 -87 3 -87 16 0 8 5 8 15 -1 10 -9 19 -9 28 -2z
m263 -45 c-2 -65 -18 -78 -40 -34 -20 37 -20 45 -2 38 9 -4 16 4 20 24 10 50
24 32 22 -28z m579 -22 c0 -76 -1 -79 -17 -64 -13 11 -15 20 -8 28 6 7 10 26
9 41 -2 24 8 74 14 74 1 0 2 -36 2 -79z m1214 66 c-8 -7 -21 -21 -27 -32 -6
-11 -12 -14 -12 -7 0 13 35 52 48 52 4 0 0 -6 -9 -13z m-6292 -47 c-10 -53
-37 -71 -37 -24 0 24 27 73 41 74 3 0 2 -22 -4 -50z m333 35 c-14 -8 -34 -14
-45 -14 -18 0 -17 1 5 14 14 8 34 14 45 14 18 0 17 -1 -5 -14z m200 7 c0 -4
-18 -6 -40 -4 -22 2 -40 6 -40 8 0 2 18 4 40 4 22 0 40 -3 40 -8z m1950 -9 c1
-23 22 -51 35 -46 14 4 52 -23 44 -32 -6 -5 -79 19 -79 27 0 2 -4 18 -9 36 -6
20 -6 32 0 32 5 0 9 -8 9 -17z m1040 10 c-1 -14 -40 -56 -47 -49 -4 3 4 17 17
31 25 26 30 30 30 18z m3249 -17 c11 -8 15 -8 18 2 6 17 23 15 23 -3 0 -23 17
-18 23 6 5 20 11 21 76 17 39 -2 76 -9 83 -16 9 -9 -3 -10 -54 -5 -58 5 -68 3
-87 -16 -27 -27 -79 -28 -124 -1 l-33 20 -34 -25 c-35 -26 -60 -32 -60 -16 0
5 10 13 23 17 12 3 29 12 37 19 28 24 79 25 109 1z m-6575 -7 c-10 -4 -29 -8
-40 -8 -12 -1 -27 -7 -34 -15 -6 -8 -18 -12 -26 -9 -8 3 -24 -3 -36 -13 -21
-19 -21 -19 -10 2 15 29 129 69 156 55 5 -2 1 -8 -10 -12z m386 11 c0 -5 -5
-10 -11 -10 -5 0 -7 5 -4 10 3 6 8 10 11 10 2 0 4 -4 4 -10z m7458 -132 c8
-10 20 -18 25 -18 10 0 36 -30 37 -42 0 -13 -29 -9 -59 6 -30 16 -51 68 -51
128 0 56 14 54 23 -4 5 -29 16 -61 25 -70z m-1806 90 c16 -30 12 -47 -18 -75
-15 -13 -24 -33 -24 -51 0 -16 -9 -37 -20 -47 -20 -18 -20 -17 -20 8 0 15 5
27 10 27 6 0 10 6 10 14 0 7 8 38 17 67 13 39 14 54 5 57 -19 6 -14 22 8 22
10 0 25 -10 32 -22z m-677 -100 l-7 -103 -116 0 c-69 0 -117 4 -119 10 -2 7
36 11 103 12 58 0 110 5 116 11 5 5 10 45 10 88 0 44 3 83 5 87 12 21 14 -10
8 -105z m2935 90 c0 -6 7 -8 14 -5 10 4 13 1 9 -9 -3 -8 1 -14 10 -14 8 0 20
-7 27 -15 7 -8 16 -13 20 -10 15 9 20 -12 7 -24 -18 -14 -87 17 -87 40 0 10
-13 21 -31 28 -17 6 -28 14 -25 19 7 12 56 3 56 -10z m-1435 -36 c-8 -8 -35
20 -35 37 1 12 5 11 21 -8 11 -13 17 -26 14 -29z m-5482 -3 c-8 -29 -13 -23
-13 14 0 22 3 28 9 18 5 -7 6 -22 4 -32z m1907 22 c0 -4 -5 -12 -11 -18 -6 -6
-14 -26 -18 -45 -5 -24 -12 -33 -26 -33 -17 0 -20 6 -18 40 2 26 10 46 23 57
19 16 50 15 50 -1z m3083 -36 c-9 -19 -21 -35 -26 -35 -5 0 -7 3 -5 8 24 48
32 62 39 62 5 0 1 -16 -8 -35z m1200 -37 c8 -5 7 -11 -2 -22 -13 -15 -11 -49
4 -106 l6 -25 -15 25 c-11 18 -15 50 -14 115 1 50 3 74 5 55 3 -19 10 -38 16
-42z m-4642 -32 c9 -15 7 -24 -10 -47 -23 -31 -27 -55 -10 -61 8 -3 9 -12 4
-28 -8 -23 -9 -22 -17 15 -6 26 -5 49 3 67 14 35 5 79 -16 72 -8 -4 -15 -1
-15 5 0 6 5 11 10 11 6 0 10 6 9 13 -5 41 4 48 17 12 7 -22 19 -48 25 -59z
m4019 78 c0 -14 -3 -15 -17 -3 -10 7 -20 15 -22 16 -2 2 5 3 17 3 14 0 22 -6
22 -16z m-6338 -16 c-3 -13 -14 -36 -24 -53 -10 -16 -18 -38 -18 -48 0 -10
-11 -33 -25 -51 -14 -18 -25 -38 -25 -43 0 -6 -7 -16 -15 -23 -12 -10 -10 -1
5 36 12 27 27 56 34 64 7 8 23 43 37 78 23 60 43 86 31 40z m5717 -16 c-11
-31 -29 -44 -29 -20 0 6 -7 3 -15 -8 -12 -16 -14 -17 -15 -3 0 18 26 33 41 23
5 -3 9 3 9 14 0 10 3 22 7 25 12 13 13 0 2 -31z m-3958 -2 c5 0 9 6 9 12 0 7
10 3 22 -9 12 -13 18 -26 14 -30 -5 -4 -11 -3 -13 3 -2 6 -15 9 -28 6 -22 -4
-25 -1 -24 24 1 17 3 22 6 12 2 -10 9 -18 14 -18z m1263 -1 c3 -17 6 -48 6
-69 0 -30 4 -39 21 -43 l22 -6 -22 -37 c-19 -32 -22 -50 -20 -128 1 -60 -2
-91 -10 -94 -18 -6 -14 156 4 192 20 38 21 73 1 57 -12 -10 -16 -8 -21 10 -6
17 -9 19 -17 8 -7 -10 -8 -8 -2 6 4 11 10 46 12 78 4 63 16 75 26 26z m-2508
-31 c-2 -24 -4 -47 -5 -53 -1 -5 -11 10 -23 33 -17 37 -19 45 -7 53 30 19 39
10 35 -33z m274 -3 c0 -13 -4 -27 -10 -30 -11 -7 -25 39 -15 55 10 16 25 2 25
-25z m5550 -5 c4 0 18 -17 30 -37 19 -32 22 -53 23 -164 1 -70 -1 -131 -6
-135 -11 -11 -28 10 -27 32 1 10 4 55 6 98 5 74 -9 166 -25 166 -15 0 -31 43
-24 63 l7 22 4 -22 c2 -13 7 -23 12 -23z m-2027 -5 c-4 -28 -2 -35 10 -35 9 0
19 -5 23 -12 5 -7 0 -9 -14 -6 -12 3 -20 3 -19 -1 1 -3 -2 -6 -8 -6 -10 0 -10
28 0 73 8 35 14 26 8 -13z m-39 -30 c3 -8 1 -15 -4 -15 -6 0 -10 7 -10 15 0 8
2 15 4 15 2 0 6 -7 10 -15z m2394 -22 c0 -21 5 -82 10 -135 11 -109 -4 -203
-34 -225 -10 -7 -19 -11 -21 -10 -2 2 8 35 21 73 20 56 23 77 16 114 -16 89
-13 220 5 220 2 0 3 -17 3 -37z m765 17 c-3 -11 -9 -23 -14 -26 -10 -6 -12 29
-2 39 13 13 21 7 16 -13z m47 10 c0 -5 7 -7 15 -4 10 4 15 0 15 -15 0 -16 6
-21 24 -21 13 0 26 -3 28 -8 2 -4 23 -15 47 -24 31 -13 49 -15 62 -7 18 9 23
5 20 -14 -1 -5 3 -6 8 -3 5 4 12 2 16 -4 12 -19 26 -10 19 12 -6 20 -5 21 10
9 9 -8 14 -16 12 -19 -3 -2 5 -12 17 -22 25 -21 33 -80 11 -80 -8 0 -14 4 -14
9 0 13 -85 62 -150 86 -69 26 -120 56 -120 73 0 6 -4 12 -10 12 -5 0 -10 -4
-10 -10 0 -5 -4 -10 -9 -10 -5 0 -8 11 -8 25 0 14 3 25 8 25 5 0 9 -4 9 -10z
m-6717 -47 c-6 -16 -8 -15 -13 7 -8 31 0 48 11 27 5 -8 6 -24 2 -34z m1375
-33 c2 -42 0 -70 -6 -70 -13 0 -19 43 -14 103 6 66 15 51 20 -33z m-278 59 c0
-6 -6 -9 -14 -6 -8 3 -20 -1 -26 -9 -14 -15 -30 -19 -30 -6 0 10 38 30 58 31
6 1 12 -4 12 -10z m2635 -19 c-5 -8 -11 -8 -17 -2 -6 6 -7 16 -3 22 5 8 11 8
17 2 6 -6 7 -16 3 -22z m-2983 -166 c-7 -31 -9 -18 -9 61 0 97 0 98 8 39 5
-34 5 -79 1 -100z m-717 126 c3 -11 11 -20 16 -20 15 0 10 -50 -7 -67 -11 -12
-14 -27 -11 -50 6 -37 0 -63 -14 -63 -5 0 -9 50 -9 110 0 102 10 138 25 90z
m4603 -47 c0 -47 -6 -75 -19 -97 -24 -39 -24 -52 0 -123 15 -44 18 -68 11 -98
l-8 -40 -1 46 c0 25 -9 61 -18 80 -9 18 -19 57 -21 87 -4 45 -1 57 18 77 17
18 21 30 16 51 -6 22 8 84 19 84 1 0 3 -30 3 -67z m255 21 c0 -15 -8 -33 -17
-40 -9 -6 -16 -16 -14 -20 5 -19 -14 -84 -23 -78 -13 7 -3 70 28 173 6 23 26
-3 26 -35z m-5153 -12 c16 -15 19 -29 16 -71 -2 -28 -6 -54 -9 -57 -6 -6 -14
37 -16 85 -1 19 -7 41 -13 48 -16 19 0 16 22 -5z m2416 -9 c-10 -10 -19 5 -10
18 6 11 8 11 12 0 2 -7 1 -15 -2 -18z m397 -79 c-4 -48 -2 -73 6 -78 14 -9 14
-59 0 -73 -7 -7 -12 -66 -12 -156 -2 -128 -4 -142 -16 -124 -11 15 -14 51 -14
129 0 60 -4 111 -8 114 -5 3 -5 14 1 24 14 26 13 180 -1 180 -8 0 -8 5 1 15 7
8 9 22 6 31 -9 24 3 35 24 22 17 -11 19 -20 13 -84z m3687 50 c0 -7 10 -20 23
-30 16 -12 17 -15 4 -10 -10 3 -22 6 -27 6 -4 0 -14 15 -21 33 -7 17 -15 37
-17 42 -3 6 5 1 17 -9 11 -11 21 -25 21 -32z m-3773 4 c-3 -8 -6 -5 -6 6 -1
11 2 17 5 13 3 -3 4 -12 1 -19z m-1167 -60 c0 -39 -3 -68 -7 -64 -10 10 -11
136 -1 136 4 0 8 -32 8 -72z m-2200 -8 c-7 -17 -17 -27 -25 -24 -7 3 -16 1
-20 -5 -3 -6 -11 -11 -17 -11 -7 0 -6 6 2 15 7 8 18 15 24 15 6 0 17 15 25 33
7 19 15 27 18 19 3 -7 0 -26 -7 -42z m861 13 c-10 -17 -10 -16 -11 3 0 23 13
41 18 25 2 -6 -1 -18 -7 -28z m1569 27 c13 -9 12 -12 -5 -25 -11 -8 -26 -19
-33 -26 -18 -15 -28 -3 -13 15 6 8 11 18 10 22 -4 26 14 32 41 14z m-163 -22
c-3 -8 -6 -5 -6 6 -1 11 2 17 5 13 3 -3 4 -12 1 -19z m2903 0 c0 -12 -1 -19
-3 -17 -1 2 -9 12 -16 22 -12 14 -11 17 3 17 10 0 16 -8 16 -22z m-3021 -24
c12 -20 20 -44 18 -53 -2 -10 -9 -3 -19 20 -9 20 -21 40 -27 43 -13 9 -15 26
-2 26 5 0 19 -16 30 -36z m2718 -6 c-3 -8 -6 -5 -6 6 -1 11 2 17 5 13 3 -3 4
-12 1 -19z m2422 -5 c18 -8 36 -12 38 -9 3 3 14 1 25 -5 10 -5 44 -12 74 -13
41 -3 60 -9 76 -26 16 -17 28 -21 50 -16 23 4 40 -1 71 -23 23 -15 54 -35 69
-44 15 -9 34 -32 43 -51 18 -37 14 -63 -13 -106 -14 -23 -16 -23 -22 -5 -4 11
0 31 9 47 15 25 15 30 0 55 -9 17 -23 28 -36 27 -12 0 -19 4 -17 10 4 14 -61
56 -89 57 -42 1 -141 25 -144 35 -2 6 -18 8 -37 6 -21 -2 -38 2 -49 12 -8 9
-22 16 -29 16 -7 0 -40 14 -73 30 -59 30 -59 30 -20 24 22 -4 55 -13 74 -21z
m-4827 -117 c-3 -82 -1 -101 14 -117 22 -25 13 -33 -28 -25 -46 9 -80 37 -68
56 8 13 11 12 24 -5 9 -11 16 -15 16 -10 0 6 4 3 10 -5 17 -27 21 -3 6 41 -11
31 -12 47 -4 56 6 8 8 35 6 64 -4 42 -3 49 11 47 14 -3 16 -18 13 -102z m1678
59 c0 -19 -4 -37 -10 -40 -6 -4 -10 12 -10 40 0 28 4 44 10 40 6 -3 10 -21 10
-40z m698 16 c3 -8 -1 -12 -9 -9 -7 2 -15 10 -17 17 -3 8 1 12 9 9 7 -2 15
-10 17 -17z m329 -18 c-3 -10 -5 -4 -5 12 0 17 2 24 5 18 2 -7 2 -21 0 -30z
m-712 18 c3 -5 21 -7 40 -4 36 6 49 -9 19 -21 -24 -9 -82 -7 -88 3 -3 5 -15 7
-26 4 -22 -6 -28 12 -7 20 21 9 56 7 62 -2z m335 -1 c-20 -13 -33 -13 -25 0 3
6 14 10 23 10 15 0 15 -2 2 -10z m-3132 -18 c3 -9 -2 -13 -14 -10 -9 1 -19 9
-22 16 -3 9 2 13 14 10 9 -1 19 -9 22 -16z m32 14 c0 -3 -4 -8 -10 -11 -5 -3
-10 -1 -10 4 0 6 5 11 10 11 6 0 10 -2 10 -4z m2930 -6 c0 -6 -13 -10 -30 -10
-39 0 -39 14 0 17 17 1 30 -2 30 -7z m1192 -17 c10 -9 18 -22 18 -29 0 -29 49
-124 64 -124 9 0 16 -5 16 -10 0 -6 19 -29 43 -50 49 -46 38 -53 -19 -11 -46
33 -90 82 -99 111 -3 11 -15 20 -25 20 -20 0 -22 6 -34 78 -6 36 7 42 36 15z
m-5154 -101 c3 -97 -6 -142 -28 -142 -6 0 -6 9 0 25 14 36 15 182 1 198 -12
15 -4 30 13 24 7 -2 12 -45 14 -105z m4258 51 c-6 -15 -10 -13 -22 16 -19 45
-18 49 7 24 15 -14 19 -27 15 -40z m-3996 -16 c-1 -29 2 -72 6 -95 4 -27 2
-48 -5 -55 -8 -8 -11 1 -11 36 0 35 -4 47 -15 47 -17 0 -20 16 -5 25 6 3 10
29 10 56 0 32 4 48 10 44 6 -4 10 -30 10 -58z m3492 26 c-13 -34 -12 -124 1
-116 5 3 7 -3 4 -13 -15 -54 -18 -84 -7 -84 7 0 9 -8 5 -20 -4 -13 2 -31 15
-50 22 -31 20 -50 -6 -50 -9 0 -14 10 -14 29 0 21 -6 32 -21 36 -14 5 -18 12
-13 23 11 26 13 163 2 207 -9 35 -7 41 12 57 29 23 36 17 22 -19z m-4530 -16
c-11 -12 -27 -35 -35 -52 l-16 -30 -1 28 c0 15 4 27 9 27 5 0 19 16 32 35 13
19 26 30 28 24 2 -6 -6 -20 -17 -32z m5284 -71 c-4 -44 -11 -97 -16 -116 -7
-31 -8 -29 -9 27 -1 36 4 65 10 69 8 5 10 29 6 73 -5 50 -4 61 5 47 7 -12 8
-47 4 -100z m-1769 87 c-9 -9 -20 -13 -24 -9 -4 4 -1 11 7 16 25 16 35 11 17
-7z m4333 7 c0 -5 -2 -10 -4 -10 -3 0 -8 5 -11 10 -3 6 -1 10 4 10 6 0 11 -4
11 -10z m-4583 -32 c-3 -7 -5 -2 -5 12 0 14 2 19 5 13 2 -7 2 -19 0 -25z m989
-53 c-4 -14 -10 -25 -15 -25 -4 0 -3 16 3 35 12 38 22 29 12 -10z m-970 -15
c3 -25 0 -48 -7 -56 -9 -11 -9 -21 0 -40 14 -31 15 -94 1 -94 -5 0 -10 6 -11
13 -1 6 -3 28 -5 47 -5 37 -5 38 0 115 4 65 5 69 12 63 3 -4 8 -25 10 -48z
m1735 -22 c-1 -40 0 -93 2 -118 3 -25 2 -32 0 -15 -3 16 -9 35 -14 41 -12 15
-21 102 -13 137 11 53 25 27 25 -45z m2159 54 c0 -10 -7 -19 -15 -19 -18 0
-19 9 -3 25 16 16 18 15 18 -6z m-2110 -43 c0 -24 -4 -38 -10 -34 -5 3 -10 24
-10 46 0 24 4 38 10 34 6 -3 10 -24 10 -46z m2191 3 c30 -27 33 -52 8 -52 -6
0 -8 4 -5 9 3 5 -10 23 -29 40 -22 19 -30 31 -21 31 9 0 30 -13 47 -28z m-407
6 c-11 -21 -47 -58 -55 -58 -16 0 4 37 29 53 33 20 35 20 26 5z m17 -41 c-8
-8 -11 -7 -11 4 0 20 13 34 18 19 3 -7 -1 -17 -7 -23z m-6941 -7 c-6 -12 -14
-19 -17 -17 -2 3 1 15 7 27 6 12 14 19 17 17 2 -3 -1 -15 -7 -27z m1860 0 c-6
-11 -15 -40 -20 -63 l-8 -42 -1 38 c-1 36 25 104 36 94 2 -3 -1 -15 -7 -27z
m-1939 -3 c-10 -9 -11 -8 -5 6 3 10 9 15 12 12 3 -3 0 -11 -7 -18z m584 -26
c-3 -15 -8 -52 -10 -80 -7 -96 -17 -161 -26 -167 -5 -3 -9 -25 -9 -50 0 -30
-4 -44 -14 -44 -10 0 -12 13 -9 53 3 28 8 63 13 77 13 40 41 210 34 210 -1 0
-22 -11 -45 -25 -47 -26 -69 -31 -69 -15 0 6 6 10 13 10 6 0 32 14 57 30 58
39 74 39 65 1z m1318 14 c-3 -9 -8 -14 -10 -11 -3 3 -2 9 2 15 9 16 15 13 8
-4z m1434 -17 c-3 -8 -6 -5 -6 6 -1 11 2 17 5 13 3 -3 4 -12 1 -19z m2503 11
c0 -17 122 -146 180 -190 19 -15 32 -29 29 -33 -9 -9 -110 70 -153 120 -21 25
-44 43 -51 40 -18 -7 -48 56 -32 66 17 11 27 10 27 -3z m1170 3 c0 -13 -12
-22 -22 -16 -10 6 -1 24 13 24 5 0 9 -4 9 -8z m-4196 -48 c5 -22 2 -35 -9 -44
-13 -11 -15 -6 -15 41 0 56 13 58 24 3z m1603 35 c8 -8 8 -18 1 -35 -14 -29
-28 -31 -28 -3 0 16 -4 19 -20 14 -11 -4 -20 -2 -20 4 0 6 9 11 20 11 11 0 20
5 20 10 0 13 13 13 27 -1z m3245 -47 c35 -34 50 -43 60 -35 16 13 168 23 168
11 0 -18 21 -7 30 16 11 31 29 41 36 23 3 -8 -6 -27 -21 -42 -22 -25 -28 -27
-48 -17 -21 12 -119 4 -173 -13 -15 -5 -31 4 -65 34 -24 23 -51 41 -59 42 -8
0 -25 2 -37 5 -13 2 -23 -1 -23 -6 0 -6 -4 -10 -10 -10 -5 0 -9 6 -7 12 1 7
-8 14 -21 16 -12 2 -20 7 -17 12 3 4 35 5 72 3 64 -5 71 -8 115 -51z m-7633
22 c-14 -18 -24 -11 -15 11 3 9 11 13 16 10 8 -5 7 -11 -1 -21z m4461 8 c0
-17 -30 -69 -50 -87 -11 -10 -23 -34 -26 -54 -4 -20 -13 -45 -20 -56 -17 -23
-18 -35 -4 -35 6 0 15 11 22 25 6 13 15 22 21 18 5 -3 13 1 18 8 4 7 10 11 13
8 3 -3 -6 -22 -21 -42 -27 -38 -25 -67 2 -31 8 10 15 14 15 7 0 -12 -60 -63
-75 -63 -4 0 -5 10 -3 23 l5 24 -38 -19 c-51 -24 -62 -23 -53 5 9 29 24 48 35
42 4 -3 13 5 20 17 7 12 18 29 26 36 8 8 17 27 20 43 3 15 11 30 19 33 19 7
47 65 41 87 -4 14 0 19 14 19 10 0 19 -4 19 -8z m1825 -18 c15 -15 22 -30 18
-37 -5 -8 -9 -7 -11 6 -2 9 -12 17 -23 17 -12 0 -19 7 -19 20 0 26 4 25 35 -6z
m295 16 c-8 -5 -19 -10 -25 -10 -5 0 -3 5 5 10 8 5 20 10 25 10 6 0 3 -5 -5
-10z m766 -43 c4 -23 8 -62 10 -87 6 -82 16 -125 32 -138 15 -13 15 -13 -3
-10 -21 4 -26 19 -45 168 -5 41 -12 86 -16 99 -5 16 -4 22 4 18 5 -4 14 -26
18 -50z m-6176 -26 c0 -20 4 -41 9 -46 5 -6 11 -29 15 -52 7 -48 -7 -58 -26
-18 -6 14 -15 25 -19 25 -4 0 -6 19 -4 43 1 23 3 55 4 70 2 42 21 22 21 -22z
m5347 43 c-3 -3 -12 -4 -19 -1 -8 3 -5 6 6 6 11 1 17 -2 13 -5z m926 -57 c-7
-12 -42 32 -43 52 0 8 11 2 24 -14 14 -16 22 -33 19 -38z m-7278 43 l30 -7
-25 -6 c-14 -4 -38 -5 -55 -3 -16 2 -36 4 -42 5 -7 0 -13 6 -13 11 0 11 59 11
105 0z m218 -1 c-16 -16 -93 -31 -125 -24 -36 8 -27 25 11 20 16 -2 42 0 58 5
42 13 69 12 56 -1z m503 -26 c-11 -11 -19 6 -11 24 8 17 8 17 12 0 3 -10 2
-21 -1 -24z m-1227 -37 c-7 -22 -16 -43 -19 -46 -8 -8 -40 -80 -40 -92 0 -6 6
-6 16 3 12 10 17 10 23 0 4 -6 22 -14 39 -16 26 -3 32 -1 32 15 0 14 -5 18
-17 13 -10 -4 -14 -2 -10 4 4 6 15 13 24 15 15 4 18 -2 20 -39 l1 -43 -84 2
c-47 1 -88 6 -91 11 -3 5 21 60 53 123 58 111 79 131 53 50z m1443 19 c-5 -18
-11 -25 -15 -18 -4 7 -2 21 5 32 16 26 19 22 10 -14z m-242 -24 c0 -19 -17
-38 -25 -29 -7 7 7 48 16 48 5 0 9 -9 9 -19z m31 -29 c-6 -10 -7 -29 -4 -41 4
-17 -2 -29 -28 -51 -58 -49 -69 -33 -18 25 22 25 33 48 34 73 3 48 4 50 16 30
6 -12 7 -24 0 -36z m1021 -7 c3 -14 1 -25 -3 -25 -5 0 -9 11 -9 25 0 14 2 25
4 25 2 0 6 -11 8 -25z m793 -47 c-7 -26 -11 -56 -8 -67 6 -24 -25 -40 -64 -33
-31 6 -30 32 2 32 16 0 28 7 32 18 11 33 45 103 49 100 2 -2 -3 -25 -11 -50z
m2705 35 c0 -10 -4 -14 -8 -8 -4 6 -11 13 -16 18 -5 4 -2 7 7 7 10 0 17 -8 17
-17z m-231 -12 c8 -14 7 -22 -5 -32 -20 -16 -35 0 -28 29 8 27 20 28 33 3z
m-5368 -14 c-10 -9 -11 -8 -5 6 3 10 9 15 12 12 3 -3 0 -11 -7 -18z m3576 -30
c-3 -57 -23 -99 -57 -117 -28 -15 -25 -3 10 37 31 34 33 44 30 101 -1 17 3 32
9 32 6 0 9 -22 8 -53z m1293 38 c0 -16 46 -65 60 -65 14 0 12 -34 -2 -48 -22
-22 -168 -9 -168 14 0 9 -11 12 -36 8 -30 -3 -35 -1 -30 12 3 8 6 20 6 26 0 6
8 4 18 -5 10 -10 25 -17 33 -17 8 0 19 -4 25 -9 10 -10 134 -20 134 -11 0 3
-13 21 -30 40 -29 35 -39 70 -20 70 6 0 10 -7 10 -15z m-966 -54 c-7 -8 -33
33 -27 43 3 5 12 -2 19 -15 7 -13 10 -26 8 -28z m-2117 2 l-2 -38 46 -1 c25 0
51 -4 58 -8 7 -4 19 -5 27 -2 10 4 14 1 12 -6 -3 -7 -12 -13 -21 -12 -9 0 -55
1 -102 2 -69 2 -85 5 -85 18 0 16 50 84 62 84 4 0 6 -17 5 -37z m333 22 c11
-13 10 -14 -4 -9 -9 3 -16 10 -16 15 0 13 6 11 20 -6z m-2093 -17 c-3 -8 -6
-5 -6 6 -1 11 2 17 5 13 3 -3 4 -12 1 -19z m2141 -41 c-4 -26 -33 -35 -42 -12
-4 13 -1 15 14 10 11 -4 20 -2 20 4 0 6 -4 11 -10 11 -5 0 -10 12 -10 27 l0
27 16 -22 c8 -12 14 -32 12 -45z m2477 19 c-4 -20 -11 -36 -16 -36 -8 0 -5 30
7 69 9 27 15 2 9 -33z m1608 37 c-7 -2 -19 -2 -25 0 -7 3 -2 5 12 5 14 0 19
-2 13 -5z m-980 -32 l-31 -29 52 -6 c29 -4 60 -4 71 0 13 5 16 4 11 -4 -4 -8
-36 -12 -82 -12 -85 0 -94 11 -43 54 42 35 62 32 22 -3z m-5303 9 c0 -5 -4
-10 -10 -10 -5 0 -10 5 -10 10 0 6 5 10 10 10 6 0 10 -4 10 -10z m6310 -10
c22 0 35 -16 20 -25 -5 -3 -10 -1 -10 5 0 6 -5 8 -10 5 -19 -12 -40 3 -33 22
4 10 8 12 11 5 2 -7 12 -12 22 -12z m-6214 -9 c9 7 14 8 14 1 0 -7 24 -9 70
-7 44 3 70 1 70 -6 0 -6 10 -9 23 -7 14 2 22 -2 22 -12 0 -10 -13 -16 -42 -18
-38 -3 -43 -1 -43 17 0 12 -2 21 -4 21 -14 0 -72 -25 -78 -34 -5 -8 -11 -7
-19 1 -6 6 -17 9 -24 7 -6 -3 -18 2 -25 11 -10 12 -10 18 1 32 13 15 14 15 17
-1 3 -14 7 -15 18 -5z m1642 -16 c0 -15 -6 -25 -15 -25 -10 0 -13 6 -9 16 3 9
6 20 6 25 0 5 4 9 9 9 5 0 9 -11 9 -25z m332 10 c-7 -8 -18 -15 -24 -15 -6 0
-2 7 8 15 25 19 32 19 16 0z m1895 5 c12 -19 -6 -50 -37 -66 -23 -12 -29 -13
-26 -2 3 7 17 19 31 26 31 15 34 27 10 41 -17 10 -17 10 -1 11 9 0 20 -5 23
-10z m1745 -10 c0 -11 -4 -20 -9 -20 -5 0 -7 9 -4 20 3 11 7 20 9 20 2 0 4 -9
4 -20z m-5210 -20 c0 -13 -17 -13 -42 1 -16 9 -18 13 -7 19 14 9 49 -5 49 -20z
m-80 14 c0 -7 -71 -36 -76 -31 -3 2 -2 12 2 21 4 10 18 16 40 16 19 0 34 -2
34 -6z m770 -4 c-20 -13 -33 -13 -25 0 3 6 14 10 23 10 15 0 15 -2 2 -10z
m937 -18 c-23 -5 -47 4 -47 17 0 6 13 5 33 -2 23 -8 27 -12 14 -15z m3333 18
c0 -5 -5 -10 -11 -10 -5 0 -7 5 -4 10 3 6 8 10 11 10 2 0 4 -4 4 -10z m210 -5
c0 -12 -15 -15 -85 -13 -47 1 -85 6 -85 11 0 6 30 6 75 2 52 -5 75 -3 75 4 0
6 5 11 10 11 6 0 10 -7 10 -15z m2145 -4 c6 -4 25 -6 43 -5 17 1 32 -2 32 -7
0 -12 -54 -5 -130 15 l-55 15 50 -5 c28 -3 55 -9 60 -13z m-7179 -1 c23 0 34
-5 34 -14 0 -8 6 -16 13 -19 6 -2 9 -8 5 -12 -5 -5 -16 -1 -26 8 -13 12 -36
17 -74 17 -40 0 -59 5 -69 17 -13 15 -10 16 35 10 27 -4 64 -7 82 -7z m444
-10 c-32 -25 -40 -25 -40 0 0 16 7 20 33 20 l32 0 -25 -20z m323 11 c5 -1 5
-6 2 -11 -4 -7 -13 -7 -24 0 -10 5 -33 7 -52 4 -19 -3 -52 -1 -74 4 -33 8 -24
10 50 7 50 -2 94 -4 98 -4z m2380 -3 c19 -1 10 -4 -23 -7 -63 -7 -99 -1 -60
10 14 4 31 5 38 3 8 -2 28 -5 45 -6z m2650 -5 c-7 -2 -21 -2 -30 0 -10 3 -4 5
12 5 17 0 24 -2 18 -5z m72 -13 c13 -6 15 -9 5 -9 -8 0 -22 4 -30 9 -18 12 -2
12 25 0z m118 -7 c-7 -2 -19 -2 -25 0 -7 3 -2 5 12 5 14 0 19 -2 13 -5z
m-5583 -23 c0 -5 -8 -10 -17 -10 -15 0 -16 2 -3 10 19 12 20 12 20 0z m2667
-34 c4 -3 -33 -6 -80 -6 -48 0 -87 3 -87 8 0 8 159 7 167 -2z"/>
<path d="M3745 4620 c-3 -5 -1 -10 4 -10 6 0 11 5 11 10 0 6 -2 10 -4 10 -3 0
-8 -4 -11 -10z"/>
</g>
</svg>
